<?xml version="1.0" encoding="utf-8"?>
<!-- Generator: Adobe Illustrator 25.2.0, SVG Export Plug-In . SVG Version: 6.00 Build 0)  -->
<svg version="1.1" xmlns="http://www.w3.org/2000/svg" xmlns:xlink="http://www.w3.org/1999/xlink" x="0px" y="0px"
	 viewBox="0 0 500 500" style="enable-background:new 0 0 500 500;" xml:space="preserve">
<style type="text/css">
	.st0{clip-path:url(#SVGID_2_);fill:url(#SVGID_3_);}
	.st1{clip-path:url(#SVGID_2_);}
	.st2{fill:#B299CE;}
	.st3{fill:#FFB936;}
	.st4{opacity:0.46;}
	.st5{fill:#FFFFFF;}
	.st6{opacity:0.2;fill:none;stroke:#FFFFFF;stroke-width:1.3572;stroke-miterlimit:10;}
	.st7{fill:#635BA7;}
	.st8{fill:none;stroke:#635BA7;stroke-width:0.8001;stroke-linecap:round;stroke-linejoin:round;stroke-miterlimit:10;}
	.st9{fill:#4C4896;}
	.st10{fill:none;stroke:#FFFFFF;stroke-width:0.7357;stroke-linecap:round;stroke-linejoin:round;}
	.st11{fill:none;stroke:#FFFFFF;stroke-width:0.7357;stroke-linecap:round;stroke-linejoin:round;stroke-dasharray:2.1961,2.1961;}
	.st12{fill:#E5E4E3;}
	.st13{opacity:0.6;}
	.st14{fill:#F16952;}
	.st15{fill:#F0583A;}
	.st16{fill:#101010;}
	.st17{fill:#FFA91F;}
	.st18{fill:#5394CC;}
	.st19{fill:#6BA2F9;}
	.st20{clip-path:url(#SVGID_5_);}
	.st21{fill:#4F94F7;}
	.st22{fill:#2DA09A;}
	.st23{fill:#38B4B0;}
	.st24{fill:#467FF1;}
	.st25{clip-path:url(#SVGID_7_);fill:#38B4B0;}
	.st26{opacity:0.2;clip-path:url(#SVGID_7_);}
	.st27{clip-path:url(#SVGID_9_);fill:#FFB936;}
	.st28{opacity:0.2;clip-path:url(#SVGID_9_);}
	.st29{fill:#E6F2F2;}
	.st30{fill:#FF97C9;}
	.st31{fill:#200B06;}
	.st32{opacity:0.46;fill:#FFFFFF;}
	.st33{fill:#FFFBF2;}
	.st34{fill:#FAB21B;}
	.st35{fill:#F05E5C;}
	.st36{fill:#EDA398;}
	.st37{clip-path:url(#SVGID_11_);}
	.st38{opacity:0.3;fill:none;stroke:#FEE9CD;stroke-width:8.942;stroke-miterlimit:10;}
	.st39{fill:#4C2D2A;}
	.st40{fill:none;stroke:#873B07;stroke-width:0.8456;stroke-miterlimit:10;}
	.st41{fill:#FCBCB1;}
	.st42{opacity:0.2;fill:#993028;}
	.st43{opacity:0.5;fill:#993028;}
	.st44{opacity:0.4;fill:url(#SVGID_12_);}
	.st45{opacity:0.4;fill:url(#SVGID_13_);}
	.st46{stroke:#000000;stroke-width:1.3885;stroke-miterlimit:10;}
	.st47{fill:#993028;}
	.st48{opacity:0.4;}
	.st49{fill:#A05320;}
	.st50{opacity:0.05;fill:#FFFFFF;}
	.st51{fill:#26263A;}
	.st52{fill:#D0D0DF;}
	.st53{fill:#E7E5F0;}
	.st54{fill:#FFBA36;}
</style>
<g id="BACKGROUND">
</g>
<g id="OBJECTS">
	<g>
		<defs>
			<rect id="SVGID_1_" x="0" y="0" width="500" height="500"/>
		</defs>
		<clipPath id="SVGID_2_">
			<use xlink:href="#SVGID_1_"  style="overflow:visible;"/>
		</clipPath>
		<linearGradient id="SVGID_3_" gradientUnits="userSpaceOnUse" x1="249.2632" y1="-0.1053" x2="249.2632" y2="367.299">
			<stop  offset="5.353010e-03" style="stop-color:#645CA7"/>
			<stop  offset="0.1775" style="stop-color:#6460A9"/>
			<stop  offset="0.3543" style="stop-color:#666CB1"/>
			<stop  offset="0.5333" style="stop-color:#6881BC"/>
			<stop  offset="0.7138" style="stop-color:#6C9ECD"/>
			<stop  offset="0.8938" style="stop-color:#70C3E3"/>
			<stop  offset="0.9844" style="stop-color:#73D8EF"/>
		</linearGradient>
		<path class="st0" d="M251.25-0.11h-4.81H-0.39c0,0,0.12,177.3,0,177.55c9.39,4.01,19.65,6.56,27.64,12.91
			c14.84,11.8,17.65,32.81,19.97,51.63c2.32,18.82,6.82,40,23.08,49.75c9.41,5.64,21.13,6.25,30.7,11.61
			c12.76,7.14,19.55,21.29,26.82,33.98c7.27,12.69,17.44,25.79,31.94,27.72c13.52,1.8,26.11-6.75,39.52-9.25
			c13.93-2.6,28.99,1.81,39.32,11.51l10.26-0.58l10.26,0.58c10.33-9.7,25.39-14.11,39.32-11.51c13.41,2.5,26,11.05,39.52,9.25
			c14.5-1.93,24.67-15.03,31.94-27.72c7.27-12.69,14.05-26.83,26.82-33.98c9.57-5.36,21.29-5.97,30.7-11.61
			c16.26-9.75,20.75-30.93,23.08-49.75c2.32-18.82,5.13-39.83,19.97-51.63c7.99-6.35,19.01-8.9,28.4-12.91
			c0.16-0.25,0-177.55,0-177.55H251.25z"/>
		<g class="st1">
			<path class="st2" d="M387.06,280.52l-2.29-5.39c-0.36-0.85-1.56-0.85-1.92,0l-2.24,5.28c-0.11,0.25-0.3,0.45-0.55,0.55
				l-5.39,2.29c-0.85,0.36-0.85,1.56,0,1.92l5.28,2.24c0.25,0.11,0.45,0.3,0.55,0.55l2.29,5.39c0.36,0.85,1.56,0.85,1.92,0
				l2.25-5.28c0.11-0.25,0.3-0.45,0.55-0.55l5.39-2.29c0.85-0.36,0.85-1.56,0-1.92l-5.28-2.25
				C387.37,280.97,387.17,280.77,387.06,280.52z"/>
			<path class="st2" d="M444.1,217.68l-1.48-3.48c-0.23-0.55-1.01-0.55-1.24,0l-1.45,3.41c-0.07,0.16-0.2,0.29-0.36,0.36l-3.48,1.48
				c-0.55,0.23-0.55,1.01,0,1.24l3.41,1.45c0.16,0.07,0.29,0.2,0.36,0.36l1.48,3.48c0.23,0.55,1.01,0.55,1.24,0l1.45-3.41
				c0.07-0.16,0.2-0.29,0.36-0.36l3.48-1.48c0.55-0.23,0.55-1.01,0-1.24l-3.41-1.45C444.3,217.97,444.17,217.84,444.1,217.68z"/>
			<path class="st2" d="M50.12,181.36l-2.29-5.39c-0.36-0.85-1.56-0.85-1.92,0l-2.24,5.28c-0.11,0.25-0.3,0.45-0.55,0.55l-5.39,2.29
				c-0.85,0.36-0.85,1.56,0,1.92l5.28,2.25c0.25,0.11,0.45,0.3,0.55,0.55l2.29,5.39c0.36,0.85,1.56,0.85,1.92,0l2.25-5.28
				c0.11-0.25,0.3-0.45,0.55-0.55l5.39-2.29c0.85-0.36,0.85-1.56,0-1.92l-5.28-2.25C50.42,181.81,50.22,181.61,50.12,181.36z"/>
			<path class="st2" d="M267.26,107.38l-2.29-5.39c-0.36-0.85-1.56-0.85-1.92,0l-2.24,5.28c-0.11,0.25-0.3,0.45-0.55,0.55
				l-5.39,2.29c-0.85,0.36-0.85,1.56,0,1.92l5.28,2.25c0.25,0.11,0.45,0.3,0.55,0.55l2.29,5.39c0.36,0.85,1.56,0.85,1.92,0
				l2.25-5.28c0.11-0.25,0.3-0.45,0.55-0.55l5.39-2.29c0.85-0.36,0.85-1.56,0-1.92l-5.28-2.25
				C267.56,107.83,267.36,107.63,267.26,107.38z"/>
			<path class="st2" d="M196.2,7.27l-2.29-5.39c-0.36-0.85-1.56-0.85-1.92,0l-2.24,5.28c-0.11,0.25-0.3,0.45-0.55,0.55l-5.39,2.29
				c-0.85,0.36-0.85,1.56,0,1.92l5.28,2.24c0.25,0.11,0.45,0.3,0.55,0.55l2.29,5.39c0.36,0.85,1.56,0.85,1.92,0l2.25-5.28
				c0.11-0.25,0.3-0.45,0.55-0.55l5.39-2.29c0.85-0.36,0.85-1.56,0-1.92l-5.28-2.25C196.51,7.72,196.31,7.52,196.2,7.27z"/>
			<path class="st2" d="M480.85,52.52l-2.29-5.39c-0.36-0.85-1.56-0.85-1.92,0l-2.24,5.28c-0.11,0.25-0.3,0.45-0.55,0.55l-5.39,2.29
				c-0.85,0.36-0.85,1.56,0,1.92l5.28,2.25c0.25,0.11,0.45,0.3,0.55,0.55l2.29,5.39c0.36,0.85,1.56,0.85,1.92,0l2.25-5.28
				c0.11-0.25,0.3-0.45,0.55-0.55l5.39-2.29c0.85-0.36,0.85-1.56,0-1.92l-5.28-2.25C481.16,52.97,480.96,52.77,480.85,52.52z"/>
			<path class="st2" d="M297.59,5.51l-2.29-5.39c-0.36-0.85-1.56-0.85-1.92,0l-2.24,5.28c-0.11,0.25-0.3,0.45-0.55,0.55l-5.39,2.29
				c-0.85,0.36-0.85,1.56,0,1.92l5.28,2.24c0.25,0.11,0.45,0.3,0.55,0.55l2.29,5.39c0.36,0.85,1.56,0.85,1.92,0l2.25-5.28
				c0.11-0.25,0.3-0.45,0.55-0.55l5.39-2.29c0.85-0.36,0.85-1.56,0-1.92l-5.28-2.25C297.9,5.96,297.7,5.76,297.59,5.51z"/>
			<path class="st2" d="M391.79,185.16l-1.48-3.48c-0.23-0.55-1.01-0.55-1.24,0l-1.45,3.41c-0.07,0.16-0.2,0.29-0.36,0.36
				l-3.48,1.48c-0.55,0.23-0.55,1.01,0,1.24l3.41,1.45c0.16,0.07,0.29,0.2,0.36,0.36l1.48,3.48c0.23,0.55,1.01,0.55,1.24,0
				l1.45-3.41c0.07-0.16,0.2-0.29,0.36-0.36l3.48-1.48c0.55-0.23,0.55-1.01,0-1.24l-3.41-1.45
				C391.99,185.45,391.86,185.32,391.79,185.16z"/>
			<path class="st2" d="M136.17,181.2l-1.48-3.48c-0.23-0.55-1.01-0.55-1.24,0l-1.45,3.41c-0.07,0.16-0.2,0.29-0.36,0.36l-3.48,1.48
				c-0.55,0.23-0.55,1.01,0,1.24l3.41,1.45c0.16,0.07,0.29,0.2,0.36,0.36l1.48,3.48c0.23,0.55,1.01,0.55,1.24,0l1.45-3.41
				c0.07-0.16,0.2-0.29,0.36-0.36l3.48-1.48c0.55-0.23,0.55-1.01,0-1.24l-3.41-1.45C136.37,181.49,136.24,181.36,136.17,181.2z"/>
			<path class="st2" d="M24,73.26l-1.48-3.48c-0.23-0.55-1.01-0.55-1.24,0l-1.45,3.41c-0.07,0.16-0.2,0.29-0.36,0.36L16,75.02
				c-0.55,0.23-0.55,1.01,0,1.24l3.41,1.45c0.16,0.07,0.29,0.2,0.36,0.36l1.48,3.48c0.23,0.55,1.01,0.55,1.24,0l1.45-3.41
				c0.07-0.16,0.2-0.29,0.36-0.36l3.48-1.48c0.55-0.23,0.55-1.01,0-1.24l-3.41-1.45C24.19,73.55,24.06,73.42,24,73.26z"/>
			<path class="st2" d="M488.95,160.32l-1.48-3.48c-0.23-0.55-1.01-0.55-1.24,0l-1.45,3.41c-0.07,0.16-0.2,0.29-0.36,0.36
				l-3.48,1.48c-0.55,0.23-0.55,1.01,0,1.24l3.41,1.45c0.16,0.07,0.29,0.2,0.36,0.36l1.48,3.48c0.23,0.55,1.01,0.55,1.24,0
				l1.45-3.41c0.07-0.16,0.2-0.29,0.36-0.36l3.48-1.48c0.55-0.23,0.55-1.01,0-1.24l-3.41-1.45
				C489.14,160.6,489.02,160.48,488.95,160.32z"/>
			<path class="st2" d="M416.66,25.96l-1.48-3.48c-0.23-0.55-1.01-0.55-1.24,0l-1.45,3.41c-0.07,0.16-0.2,0.29-0.36,0.36l-3.48,1.48
				c-0.55,0.23-0.55,1.01,0,1.24l3.41,1.45c0.16,0.07,0.29,0.2,0.36,0.36l1.48,3.48c0.23,0.55,1.01,0.55,1.24,0l1.45-3.41
				c0.07-0.16,0.2-0.29,0.36-0.36l3.48-1.48c0.55-0.23,0.55-1.01,0-1.24l-3.41-1.45C416.86,26.25,416.73,26.12,416.66,25.96z"/>
			<path class="st2" d="M387.51,117.83l-1.17-2.74c-0.18-0.43-0.8-0.43-0.98,0l-1.14,2.69c-0.05,0.13-0.15,0.23-0.28,0.28
				l-2.74,1.17c-0.43,0.18-0.43,0.8,0,0.98l2.69,1.14c0.13,0.05,0.23,0.15,0.28,0.28l1.17,2.75c0.18,0.43,0.8,0.43,0.98,0l1.14-2.69
				c0.05-0.13,0.15-0.23,0.28-0.28l2.75-1.17c0.43-0.18,0.43-0.8,0-0.98l-2.69-1.14C387.66,118.05,387.56,117.95,387.51,117.83z"/>
			<path class="st2" d="M92.22,283.19l-1.17-2.74c-0.18-0.43-0.8-0.43-0.98,0l-1.14,2.69c-0.05,0.13-0.15,0.23-0.28,0.28l-2.74,1.17
				c-0.43,0.18-0.43,0.8,0,0.98l2.69,1.14c0.13,0.05,0.23,0.15,0.28,0.28l1.17,2.74c0.18,0.43,0.8,0.43,0.98,0l1.14-2.69
				c0.05-0.13,0.15-0.23,0.28-0.28l2.75-1.17c0.43-0.18,0.43-0.8,0-0.98l-2.69-1.14C92.38,283.42,92.28,283.31,92.22,283.19z"/>
			<path class="st2" d="M159.35,106.73l-1.17-2.74c-0.18-0.43-0.8-0.43-0.98,0l-1.14,2.69c-0.05,0.13-0.15,0.23-0.28,0.28
				l-2.74,1.17c-0.43,0.18-0.43,0.8,0,0.98l2.69,1.14c0.13,0.05,0.23,0.15,0.28,0.28l1.17,2.75c0.18,0.43,0.8,0.43,0.98,0l1.14-2.69
				c0.05-0.13,0.15-0.23,0.28-0.28l2.75-1.17c0.43-0.18,0.43-0.8,0-0.98l-2.69-1.14C159.5,106.96,159.4,106.86,159.35,106.73z"/>
			<path class="st2" d="M80.06,118.51l-1.17-2.74c-0.18-0.43-0.8-0.43-0.98,0l-1.14,2.69c-0.05,0.13-0.16,0.23-0.28,0.28l-2.74,1.17
				c-0.43,0.18-0.43,0.8,0,0.98l2.69,1.14c0.13,0.05,0.23,0.16,0.28,0.28l1.17,2.74c0.18,0.43,0.8,0.43,0.98,0l1.14-2.69
				c0.05-0.13,0.15-0.23,0.28-0.28l2.75-1.17c0.43-0.18,0.43-0.8,0-0.98l-2.69-1.14C80.22,118.74,80.12,118.64,80.06,118.51z"/>
			<path class="st2" d="M94.92,17.68l-1.17-2.74c-0.18-0.43-0.8-0.43-0.98,0l-1.14,2.69c-0.05,0.13-0.15,0.23-0.28,0.28l-2.74,1.17
				c-0.43,0.18-0.43,0.8,0,0.98l2.69,1.14c0.13,0.05,0.23,0.15,0.28,0.28l1.17,2.75c0.18,0.43,0.8,0.43,0.98,0l1.14-2.69
				c0.05-0.13,0.15-0.23,0.28-0.28l2.75-1.17c0.43-0.18,0.43-0.8,0-0.98l-2.69-1.14C95.08,17.91,94.98,17.81,94.92,17.68z"/>
		</g>
		<g class="st1">
			<path class="st3" d="M495.51,91.67c-4.74-10.75-17.23-15.66-27.89-10.96c-10.66,4.7-15.46,17.23-10.72,27.98
				c2.35,5.33,6.61,9.23,11.6,11.22c2.81,1.12,5.11,3.24,6.33,6.02l0.16,0.36c2.52,5.72,9.21,8.32,14.94,5.79l0.24-0.1
				c5.72-2.52,8.32-9.21,5.79-14.94l-0.02-0.04c-1.25-2.83-1.23-6.03-0.1-8.91C497.86,103.01,497.91,97.11,495.51,91.67z"/>
			<g class="st4">
				<path class="st5" d="M466.59,85.56c1.74-1.79,3.89-2.91,6.23-3.65c2.33-0.71,4.9-0.95,7.44-0.53c2.55,0.36,5.04,1.58,6.95,3.28
					c1.99,1.66,3.2,3.98,3.81,6.29c0.09,0.35-0.12,0.71-0.47,0.81c-0.18,0.05-0.37,0.01-0.52-0.08l-0.07-0.04
					c-1.97-1.26-3.53-2.52-5.32-3.26c-1.72-0.81-3.42-1.39-5.26-1.64c-1.83-0.28-3.75-0.38-5.78-0.34
					c-2.03,0.04-4.16,0.18-6.43,0.28l-0.07,0c-0.37,0.02-0.68-0.27-0.69-0.63C466.4,85.87,466.47,85.69,466.59,85.56z"/>
			</g>
			<line class="st6" x1="481.89" y1="125.82" x2="464.86" y2="101.23"/>
			<line class="st6" x1="489.64" y1="124.06" x2="485.72" y2="94.41"/>
			<path class="st7" d="M495,133.79l-6.41,2.83c-4.26,1.88-9.24-0.05-11.12-4.31l-2.73-6.19l21.15-9.33l3.03,6.88
				C500.64,127.55,498.88,132.08,495,133.79z"/>
			<path class="st8" d="M465.06,102.4c1.87,0.68,4.06,0.25,4.94-1.64c0.34-0.72,0.34-1.63-0.09-2.31c-0.43-0.67-1.41-1-2.07-0.57
				c-0.67,0.44-0.76,1.46-0.37,2.15c0.4,0.7,1.16,1.11,1.92,1.34c2.74,0.85,5.97-0.38,7.47-2.83c0.65-1.06,0.79-2.78-0.35-3.27
				c-1.17-0.49-2.36,1.12-1.91,2.31c0.45,1.19,1.83,1.75,3.1,1.82c1.62,0.09,3.35-0.49,4.28-1.83c0.93-1.33,0.91-4.69-0.66-4.3
				c-1.54,0.38-0.44,3.81,1.11,4.15c1.55,0.34,3.71-1.54,3.54-3.12"/>
			<g>
				<path class="st9" d="M475.75,128.75c-0.26,0.02-0.52-0.13-0.63-0.4c-0.14-0.33,0.01-0.72,0.33-0.86
					c0.1-0.04,10.18-4.52,20.75-9.39c0.32-0.15,0.7,0,0.84,0.33c0.14,0.33,0,0.72-0.32,0.87c-10.58,4.88-20.67,9.36-20.77,9.4
					C475.89,128.73,475.82,128.75,475.75,128.75z"/>
			</g>
			<g>
				<path class="st9" d="M476.97,131.48c-0.26,0.02-0.52-0.13-0.63-0.4c-0.14-0.33,0.01-0.72,0.33-0.86
					c0.1-0.04,10.18-4.52,20.75-9.39c0.32-0.15,0.7,0,0.84,0.33c0.14,0.33,0,0.72-0.32,0.87c-10.58,4.88-20.67,9.36-20.77,9.4
					C477.11,131.46,477.04,131.48,476.97,131.48z"/>
			</g>
			<g>
				<path class="st9" d="M478.15,133.95c-0.26,0.02-0.52-0.13-0.63-0.4c-0.14-0.33,0.01-0.72,0.33-0.86
					c0.1-0.04,10.18-4.52,20.75-9.39c0.32-0.15,0.7,0,0.84,0.33c0.14,0.33,0,0.72-0.32,0.87c-10.58,4.88-20.67,9.36-20.77,9.4
					C478.29,133.93,478.22,133.95,478.15,133.95z"/>
			</g>
			<g>
				<path class="st9" d="M479.81,136.16c-0.26,0.02-0.52-0.13-0.63-0.4c-0.14-0.33,0.01-0.72,0.33-0.86
					c0.1-0.04,9.06-3.76,19.63-8.63c0.32-0.15,0.7,0,0.84,0.33c0.14,0.33,0,0.72-0.32,0.87c-10.58,4.88-19.55,8.6-19.65,8.64
					C479.95,136.14,479.88,136.16,479.81,136.16z"/>
			</g>
		</g>
		<g class="st1">
			<g>
				<g>
					<path class="st10" d="M433.22,147.75c0.36-0.06,0.73-0.1,1.1-0.14"/>
					<path class="st11" d="M436.51,147.47c8.26-0.14,16.57,3.72,21.63,10.28c5.73,7.43,7.06,18.02,3.35,26.64
						c-1.95,4.54-5.65,8.77-10.53,9.52c-4.88,0.75-10.42-3.54-9.47-8.39c0.61-3.13,3.5-5.33,6.47-6.51
						c8.44-3.34,18.99-0.12,24.12,7.37c4.72,6.88,4.42,16.73-0.44,23.46"/>
					<path class="st10" d="M470.97,210.71c-0.23,0.29-0.47,0.56-0.73,0.84"/>
				</g>
			</g>
			<g>
				<polygon class="st12" points="443.49,144.34 427.62,164.65 401.56,131.01 				"/>
				<polygon class="st5" points="454.09,131.43 443.49,144.34 401.56,131.01 				"/>
				<polygon class="st5" points="440.91,149.12 401.56,131.01 442.33,166.76 				"/>
			</g>
		</g>
		<g class="st1">
			<g>
				<g>
					<path class="st10" d="M147.05,2.94c-0.32,0.17-0.65,0.34-0.98,0.5"/>
					<path class="st11" d="M144.05,4.3c-7.73,2.92-16.85,2.09-23.83-2.38c-7.9-5.06-12.73-14.58-12.15-23.95
						c0.31-4.93,2.36-10.16,6.7-12.51c4.35-2.35,11-0.18,11.75,4.7c0.48,3.16-1.5,6.2-3.9,8.31c-6.82,5.99-17.84,6.52-25.2,1.2
						c-6.76-4.89-9.81-14.26-7.5-22.23"/>
					<path class="st10" d="M90.26-43.59c0.12-0.35,0.26-0.69,0.4-1.03"/>
				</g>
			</g>
			<g>
				<polygon class="st12" points="133.63,-0.55 126.07,24.09 168.57,26.19 				"/>
				<polygon class="st5" points="138.14,-16.63 133.63,-0.55 168.57,26.19 				"/>
				<polygon class="st5" points="131.2,4.3 168.57,26.19 115.92,13.25 				"/>
			</g>
		</g>
		<g class="st1">
			
				<ellipse transform="matrix(0.7738 -0.6334 0.6334 0.7738 -135.4317 99.8842)" class="st7" cx="72.13" cy="239.56" rx="25.33" ry="25.33"/>
			<g>
				<path class="st9" d="M74.82,232.65c-0.2,1.1-1.63,1.7-2.74,1.49c-1.1-0.2-1.83-1.26-1.63-2.37c0.2-1.1,1.26-1.83,2.37-1.63
					C73.93,230.34,75.02,231.54,74.82,232.65z"/>
				<path class="st9" d="M83.62,245.83c-0.2,1.1-1.26,1.83-2.37,1.63c-1.1-0.2-1.83-1.26-1.63-2.37c0.2-1.1,1.26-1.83,2.37-1.63
					C83.09,243.66,83.82,244.72,83.62,245.83z"/>
				<path class="st9" d="M69.33,260.8c-0.2,1.1-1.26,1.83-2.37,1.63c-1.1-0.2-1.83-1.26-1.63-2.37c0.2-1.1,1.26-1.83,2.37-1.63
					C68.81,258.64,69.54,259.7,69.33,260.8z"/>
				<path class="st9" d="M56.82,242.09c-0.12,0.67-0.76,1.11-1.43,0.99c-0.67-0.12-1.11-0.76-0.99-1.43
					c0.12-0.67,0.83-1.48,1.5-1.36C56.57,240.4,56.94,241.42,56.82,242.09z"/>
				<path class="st9" d="M86.55,221.29c-0.1,0.54-0.62,0.9-1.17,0.8s-0.9-0.62-0.8-1.17c0.1-0.54,0.62-0.9,1.17-0.8
					C86.29,220.22,86.65,220.74,86.55,221.29z"/>
				<path class="st9" d="M93.38,238.14c-0.15,0.8-0.92,1.33-1.71,1.18c-0.8-0.15-1.33-0.92-1.18-1.71c0.15-0.8,0.92-1.33,1.71-1.18
					C93,236.58,93.52,237.35,93.38,238.14z"/>
				<path class="st9" d="M55.2,238.65c-0.58,0.96-2.18,0.94-3.15,0.36c-0.96-0.58-1.27-1.83-0.7-2.79c0.58-0.96,1.83-1.27,2.79-0.7
					C55.12,236.1,55.78,237.69,55.2,238.65z"/>
				<path class="st9" d="M72.1,238.68c-0.41,0.68-1.28,0.9-1.96,0.49c-0.68-0.41-1.04-1.4-0.63-2.08c0.41-0.68,1.43-0.78,2.11-0.37
					C72.29,237.13,72.5,238.01,72.1,238.68z"/>
				<path class="st9" d="M62.42,249.95c-0.41,0.68-1.28,0.9-1.96,0.49c-0.68-0.41-1.04-1.4-0.63-2.08c0.41-0.68,1.43-0.78,2.11-0.37
					C62.61,248.39,62.83,249.27,62.42,249.95z"/>
				<path class="st9" d="M87.74,257.94c-0.58,0.96-1.83,1.27-2.79,0.7c-0.96-0.58-1.27-1.83-0.7-2.79c0.58-0.96,1.83-1.27,2.79-0.7
					C88,255.73,88.31,256.98,87.74,257.94z"/>
				<path class="st9" d="M72.75,258.79c-0.35,0.58-1.09,0.76-1.67,0.42s-0.76-1.09-0.42-1.67c0.35-0.58,1.09-0.76,1.67-0.42
					C72.91,257.47,73.1,258.21,72.75,258.79z"/>
				<path class="st9" d="M62.53,224.12c-0.58,0.96-1.83,1.27-2.79,0.7c-0.96-0.58-1.27-1.83-0.7-2.79c0.58-0.96,1.83-1.27,2.79-0.7
					C62.8,221.9,63.11,223.15,62.53,224.12z"/>
			</g>
			<g class="st13">
				<path class="st9" d="M54.07,230.81c-0.24-3.66,0.32-7.19,1.52-10.43c-5.8,5.01-9.27,12.58-8.73,20.82
					c0.91,13.96,12.96,24.54,26.92,23.63c10.29-0.67,18.74-7.4,22.11-16.49c-4.03,3.48-9.18,5.72-14.9,6.1
					C67.03,255.35,54.98,244.77,54.07,230.81z"/>
			</g>
			<path class="st3" d="M105.99,236.22c-0.84-2.35-5.26-3.07-9.39-3.2c0.28,1.04,0.49,2.11,0.63,3.2c2.69,0.15,4.91,0.52,5.66,1
				c-0.15,0.21-0.48,0.57-1.2,1.11c-1.27,0.94-2.71,1.84-4.29,2.69c-13.48,7.33-36.72,11.23-47.8,10.13
				c-0.66-0.07-1.29-0.14-1.85-0.24c-5.09-0.9-5.53-2.01-5.53-2.02c-0.02-0.62,1.97-2.28,5.18-3.84c-0.23-1.06-0.39-2.14-0.49-3.24
				c-3.31,1.47-8.13,4.18-7.82,7.39c0.3,3.07,4.77,4.22,8.11,4.81c1.26,0.22,2.75,0.36,4.41,0.42c1.98,0.07,4.2,0.03,6.6-0.13
				c11.75-0.76,27.65-4.15,38.69-9.5c2.5-1.21,4.76-2.53,6.66-3.94C104.37,240.25,106.79,238.46,105.99,236.22z"/>
			<g class="st4">
				<path class="st5" d="M70.91,219.33c2.07-0.86,4.23-1.02,6.41-0.81c2.17,0.24,4.37,0.95,6.31,2.19c1.97,1.2,3.59,3.08,4.57,5.15
					c1.05,2.07,1.23,4.4,0.91,6.52c-0.05,0.32-0.35,0.55-0.67,0.5c-0.17-0.03-0.31-0.12-0.4-0.25L88,232.57
					c-1.18-1.73-2.02-3.32-3.23-4.56c-1.13-1.27-2.32-2.35-3.76-3.21c-1.41-0.88-2.96-1.64-4.64-2.32c-1.68-0.69-3.49-1.32-5.4-2.03
					l-0.05-0.02c-0.31-0.12-0.46-0.46-0.35-0.77C70.64,219.51,70.77,219.39,70.91,219.33z"/>
			</g>
		</g>
		<g class="st1">
			<circle class="st14" cx="365.05" cy="0.91" r="25.33"/>
			<g>
				<path class="st15" d="M369.51-5.02c-0.5,1.01-2.03,1.19-3.04,0.69c-1.01-0.5-1.42-1.72-0.93-2.72c0.5-1.01,1.72-1.42,2.72-0.93
					C369.28-7.48,370.01-6.02,369.51-5.02z"/>
				<path class="st15" d="M374.4,10.06c-0.5,1.01-1.72,1.42-2.72,0.93s-1.42-1.72-0.93-2.72c0.5-1.01,1.72-1.42,2.72-0.93
					C374.48,7.83,374.89,9.05,374.4,10.06z"/>
				<path class="st15" d="M356.58,20.59c-0.5,1.01-1.72,1.42-2.72,0.93s-1.42-1.72-0.93-2.72c0.5-1.01,1.72-1.42,2.72-0.93
					S357.08,19.58,356.58,20.59z"/>
				<path class="st15" d="M349.62-0.82c-0.3,0.61-1.04,0.86-1.65,0.56s-0.86-1.04-0.56-1.65s1.21-1.2,1.81-0.9
					C349.84-2.51,349.92-1.43,349.62-0.82z"/>
				<path class="st15" d="M383.89-12.76c-0.24,0.5-0.85,0.7-1.34,0.46c-0.5-0.24-0.7-0.85-0.46-1.34c0.24-0.5,0.85-0.7,1.34-0.46
					C383.93-13.86,384.13-13.26,383.89-12.76z"/>
				<path class="st15" d="M385.88,5.31c-0.36,0.73-1.24,1.03-1.97,0.67c-0.73-0.36-1.03-1.24-0.67-1.97s1.24-1.03,1.97-0.67
					S386.24,4.58,385.88,5.31z"/>
				<path class="st15" d="M349-4.56c-0.82,0.77-2.35,0.31-3.12-0.51c-0.77-0.82-0.73-2.11,0.09-2.87c0.82-0.77,2.11-0.73,2.87,0.09
					C349.61-7.04,349.82-5.33,349-4.56z"/>
				<path class="st15" d="M365.25,0.05c-0.58,0.54-1.48,0.51-2.02-0.06c-0.54-0.58-0.62-1.63-0.05-2.17
					c0.58-0.54,1.59-0.36,2.13,0.22C365.86-1.39,365.83-0.49,365.25,0.05z"/>
				<path class="st15" d="M352.88,8.27c-0.58,0.54-1.48,0.51-2.02-0.06c-0.54-0.58-0.62-1.63-0.05-2.17
					c0.58-0.54,1.59-0.36,2.13,0.22C353.49,6.82,353.46,7.73,352.88,8.27z"/>
				<path class="st15" d="M375.07,22.83c-0.82,0.77-2.11,0.73-2.87-0.09s-0.73-2.11,0.09-2.87c0.82-0.77,2.11-0.73,2.87,0.09
					C375.93,20.78,375.89,22.06,375.07,22.83z"/>
				<path class="st15" d="M360.42,19.58c-0.49,0.46-1.26,0.44-1.72-0.05c-0.46-0.49-0.44-1.26,0.05-1.72
					c0.49-0.46,1.26-0.44,1.72,0.05C360.94,18.35,360.91,19.12,360.42,19.58z"/>
				<path class="st15" d="M360-16.56c-0.82,0.77-2.11,0.73-2.87-0.09c-0.77-0.82-0.73-2.11,0.09-2.87c0.82-0.77,2.11-0.73,2.87,0.09
					C360.86-18.62,360.82-17.33,360-16.56z"/>
			</g>
			<g class="st13">
				<path class="st15" d="M350.04-12.42c0.77-3.59,2.26-6.84,4.29-9.62c-6.94,3.25-12.34,9.59-14.06,17.67
					c-2.92,13.68,5.81,27.13,19.49,30.05c10.09,2.15,20.05-2.03,25.76-9.87c-4.82,2.25-10.39,3.02-15.99,1.82
					C355.85,14.72,347.12,1.26,350.04-12.42z"/>
			</g>
			<g class="st4">
				<path class="st5" d="M369.37-18.9c2.22-0.27,4.35,0.17,6.39,0.96c2.03,0.82,3.94,2.1,5.48,3.82c1.57,1.69,2.62,3.94,2.99,6.2
					c0.45,2.28-0.01,4.57-0.89,6.53c-0.13,0.3-0.48,0.43-0.78,0.3c-0.16-0.07-0.27-0.2-0.32-0.35l-0.02-0.07
					c-0.67-1.99-1.04-3.74-1.87-5.26c-0.74-1.53-1.6-2.89-2.74-4.11c-1.12-1.23-2.4-2.38-3.84-3.5c-1.43-1.12-3-2.22-4.64-3.42
					l-0.05-0.03c-0.26-0.19-0.32-0.57-0.13-0.83C369.06-18.8,369.21-18.88,369.37-18.9z"/>
			</g>
		</g>
		<g class="st1">
			<g>
				<path class="st3" d="M210.45,98.47c-1.68,1.09-24.9,18.87-24.9,18.87l5.38,8.22l35.16-26.63
					C222.59,97.13,212.05,97.43,210.45,98.47z"/>
				<path class="st3" d="M222.8,114.07c0,0,5.84-11.19,4.21-14.33l-35.42,26.82l3.82,5.83L222.8,114.07z"/>
				<path class="st16" d="M182.38,132.02c-0.27,0.2-0.32,0.58-0.12,0.84c0.03,0.04,0.07,0.08,0.1,0.11
					c0.21,0.17,0.52,0.18,0.74,0.01l8.48-6.42l-0.66-1.01L182.38,132.02z"/>
				<path class="st17" d="M226.59,99.22c-0.14-0.11-0.31-0.21-0.5-0.3l-35.16,26.63l0.66,1.01l35.42-26.82
					C226.9,99.53,226.76,99.36,226.59,99.22z"/>
			</g>
			<path class="st14" d="M182.52,140.8c0.64-0.4,1.25-0.79,1.84-1.18c0.17-0.11,0.34-0.22,0.5-0.33c0.52-0.34,1.14-0.77,1.8-1.25
				c-4.86-3.62-9.74-7.25-14.59-10.94c-2.87,2.39-6.02,5.34-7.08,7.55c-2.42,5.04,1.98,11.51,7.07,11.04
				c2.38-0.22,6.37-2.35,9.95-4.56C182.18,141.01,182.35,140.91,182.52,140.8z"/>
			<path class="st15" d="M193.11,133.26l-9.63-15.46c0,0-7.1,5.9-8.69,7.13c-0.15,0.12-0.31,0.24-0.48,0.37
				c-0.54,0.42-1.11,0.88-1.71,1.37c-0.15,0.13-0.31,0.25-0.47,0.38c-0.02,0.02-0.04,0.03-0.06,0.05
				c4.85,3.69,9.73,7.32,14.59,10.94C189.49,136.03,193.11,133.26,193.11,133.26z"/>
			<path class="st14" d="M193.03,138.99l-15.23-21.33c-1.43-2-0.96-4.78,1.04-6.21l1.93-1.38c2-1.43,4.78-0.96,6.21,1.04
				l15.23,21.33c1.43,2,0.96,4.78-1.04,6.21l-1.93,1.38C197.24,141.46,194.45,141,193.03,138.99z"/>
		</g>
		<g class="st1">
			<g>
				<g>
					<polygon class="st18" points="36.96,103.98 36.96,103.98 36.96,103.98 					"/>
					<path class="st19" d="M24.34,104.73c-6.44,2.07-11.23,5.08-10.7,6.73c0.01,0.04,0.03,0.07,0.05,0.11
						c0.74,1.53,6.28,1.16,12.58-0.86c6.12-1.97,10.75-4.79,10.74-6.48l-0.04-0.26v0C36.43,102.33,30.78,102.67,24.34,104.73z"/>
					<path class="st3" d="M15.06,104.48l5.98,11.12c0,0,6.61,1.31,12.3-3.7l-2.12-12.61L15.06,104.48z"/>
					<g>
						<defs>
							<path id="SVGID_4_" d="M15.06,104.48l5.98,11.12c0,0,6.61,1.31,12.3-3.7l-2.12-12.61L15.06,104.48z"/>
						</defs>
						<clipPath id="SVGID_5_">
							<use xlink:href="#SVGID_4_"  style="overflow:visible;"/>
						</clipPath>
						<g class="st20">
							<path class="st17" d="M21.55,108.02c0.11,0.51-0.21,1.02-0.72,1.13c-0.51,0.11-1.02-0.21-1.13-0.72
								c-0.11-0.51,0.21-1.02,0.72-1.13C20.94,107.19,21.44,107.51,21.55,108.02z"/>
							<path class="st17" d="M21.96,111.95c0.11,0.51-0.21,1.02-0.72,1.13c-0.51,0.11-1.02-0.21-1.13-0.72
								c-0.11-0.51,0.21-1.02,0.72-1.13C21.34,111.12,21.85,111.44,21.96,111.95z"/>
							<path class="st17" d="M25.17,108.66c0.45,0.27,0.6,0.85,0.33,1.3c-0.27,0.45-0.85,0.6-1.3,0.33c-0.45-0.27-0.6-0.85-0.33-1.3
								C24.14,108.54,24.72,108.4,25.17,108.66z"/>
							<path class="st17" d="M27.12,104.71c0.45,0.27,0.6,0.85,0.33,1.3c-0.27,0.45-0.85,0.6-1.3,0.33c-0.45-0.27-0.6-0.85-0.33-1.3
								C26.09,104.59,26.68,104.44,27.12,104.71z"/>
							<path class="st17" d="M31.38,106.06c0.45,0.27,0.6,0.85,0.33,1.3c-0.27,0.45-0.85,0.6-1.3,0.33c-0.45-0.27-0.6-0.85-0.33-1.3
								C30.35,105.94,30.93,105.79,31.38,106.06z"/>
							<path class="st17" d="M30.92,102.25c0.45,0.27,0.6,0.85,0.33,1.3c-0.27,0.45-0.85,0.6-1.3,0.33c-0.45-0.27-0.6-0.85-0.33-1.3
								C29.89,102.12,30.47,101.98,30.92,102.25z"/>
							<path class="st17" d="M22.92,103.88c0.45,0.27,0.6,0.85,0.33,1.3c-0.27,0.45-0.85,0.6-1.3,0.33c-0.45-0.27-0.6-0.85-0.33-1.3
								C21.89,103.76,22.47,103.62,22.92,103.88z"/>
							<path class="st17" d="M17.97,107.32c0.45,0.27,0.6,0.85,0.33,1.3c-0.27,0.45-0.85,0.6-1.3,0.33c-0.45-0.27-0.6-0.85-0.33-1.3
								C16.94,107.2,17.52,107.05,17.97,107.32z"/>
						</g>
					</g>
					<path class="st17" d="M31.21,99.29c0.37,1.14-2.95,3.23-7.41,4.66c-4.46,1.43-8.38,1.67-8.74,0.52
						c-0.37-1.14,2.95-3.23,7.41-4.66C26.93,98.38,30.85,98.14,31.21,99.29z"/>
					<path class="st21" d="M37.85,110.24L37,104.23c0.01,1.69-4.62,4.51-10.74,6.48c-6.3,2.02-11.84,2.39-12.58,0.86l-0.05,0.02
						l2.49,4.83c-6.13,5.39-9.26,13.41-7.48,21.38c2.69,12.1,15.63,19.51,28.9,16.56c13.27-2.95,21.84-15.16,19.15-27.26
						C54.7,118.13,47.07,111.74,37.85,110.24z"/>
					<path class="st18" d="M36.96,103.98L36.96,103.98l0.04,0.26C37,104.15,36.99,104.06,36.96,103.98z"/>
				</g>
				<path class="st22" d="M13.55,126.29c0,0,0.07-0.66,6.72-2.72c6.66-2.06,10.91-1.35,15.87-4.25c4.96-2.9,6.51-3.03,8.18-2.97
					c1.67,0.06,1.7,10.54,1.7,10.54L28.2,141.42l-13.95-8.1L13.55,126.29z"/>
				<path class="st23" d="M52.83,126.52c2.63,8.9-2.36,21.36-16.14,24.64c-10.02,2.39-21.17-3.33-24.62-12.48
					c-1.4-3.71-0.99-8.9,1.48-12.4c0.6-0.85,4.7,4.57,14.99,0.18c6.69-2.85,11.73-11.74,16.17-9.99
					C48.84,118.11,51.5,122,52.83,126.52z"/>
			</g>
			<line class="st18" x1="13.68" y1="111.57" x2="13.63" y2="111.59"/>
			<g class="st4">
				<path class="st5" d="M46.46,122.14c1.75,1.39,2.94,3.21,3.8,5.23c0.84,2.02,1.28,4.28,1.13,6.59c-0.1,2.31-0.96,4.63-2.31,6.49
					c-1.3,1.92-3.26,3.2-5.27,3.95c-0.31,0.11-0.65-0.04-0.76-0.35c-0.06-0.16-0.05-0.33,0.03-0.47l0.03-0.07
					c0.95-1.87,1.93-3.37,2.43-5.03c0.57-1.6,0.93-3.17,0.99-4.84c0.09-1.66,0.01-3.38-0.21-5.18c-0.21-1.8-0.53-3.69-0.82-5.71
					l-0.01-0.06c-0.05-0.32,0.18-0.63,0.5-0.67C46.17,122,46.33,122.05,46.46,122.14z"/>
			</g>
		</g>
		<g class="st1">
			
				<ellipse transform="matrix(0.4452 -0.8954 0.8954 0.4452 9.7698 481.9668)" class="st24" cx="393.83" cy="233.1" rx="27.63" ry="27.63"/>
			<g>
				<defs>
					
						<ellipse id="SVGID_6_" transform="matrix(0.4452 -0.8954 0.8954 0.4452 9.7698 481.9668)" cx="393.83" cy="233.1" rx="27.63" ry="27.63"/>
				</defs>
				<clipPath id="SVGID_7_">
					<use xlink:href="#SVGID_6_"  style="overflow:visible;"/>
				</clipPath>
				<path class="st25" d="M402.96,205.51c-0.92-0.86-2.48-0.67-3.47,0.11c-0.99,0.79-1.51,2.01-1.91,3.21
					c-0.4,1.2-0.71,2.45-1.41,3.5c-1.42,2.12-4.16,3.04-5.43,5.36c-0.39,0.71-0.57,1.53-0.43,2.33c0.34,1.97,2.2,2.49,3.79,2.27
					c1.14-0.16,2.2-0.63,3.3-0.94c2.29-0.64,4.77-0.55,7.02,0.21c1.42,0.48,1.46,2.5,0.08,3.07c-0.66,0.28-1.3,0.61-1.88,1.04
					c-1.59,1.16-2.72,3.17-2.25,5.08c0.32,1.32,1.32,2.34,2.28,3.3c2.12,2.12,4.25,4.24,6.37,6.36c1.27,1.27,2.8,2.65,4.7,2.1
					c1.21-0.35,2.07-1.39,2.41-2.59c0.61-2.16-0.26-4.27-1.23-6.2c-0.88-1.76-1.88-3.54-1.78-5.57c0.04-0.8,0.28-1.59,0.75-2.23
					c1.41-1.93,3.53-1.25,5.42-1.54c3.18-0.48,5.35-3.74,5.62-6.94c0.26-3.2-0.95-6.33-2.28-9.25"/>
				<path class="st25" d="M360.46,230.45c0.31,2.82,0.64,5.71,1.9,8.26c1.26,2.55,3.66,4.72,6.49,4.9c2.1,0.13,4.09-0.82,6.16-1.23
					c2.06-0.41,4.61-0.04,5.57,1.84c0.7,1.38,0.27,3.03,0.23,4.57c-0.14,5.2,4.15,9.32,8.09,12.71c1.32,1.14,2.68,2.29,4.29,2.94
					c1.62,0.65,3.57,0.73,5.02-0.24c1.36-0.92,2.05-2.61,2.15-4.25c0.1-1.64-0.31-3.27-0.71-4.86c-0.83-3.3-1.66-6.6-2.5-9.9
					c-0.73-2.91-1.95-6.32-4.87-7.01c-2.28-0.54-4.63,0.91-6.94,0.56c-1.71-0.26-3.22-1.59-3.7-3.25s0.11-3.59,1.43-4.71
					c0.8-0.68,1.83-1.07,2.62-1.78c0.79-0.7,1.29-1.95,0.67-2.81c-1.1-1.55-3.96,0.06-5.33-1.26c-0.65-0.63-0.66-1.69-0.34-2.53
					c0.32-0.85,0.89-1.57,1.3-2.37c1.62-3.19,0.27-7.25-2.23-9.81c-2.5-2.56-5.92-3.97-9.24-5.3"/>
				<g class="st26">
					<path class="st24" d="M393.86,254.13c-4.87,2.37-10.09,3.17-15.1,2.62c7.84,5.04,18.06,5.99,27.05,1.61
						c13.72-6.68,19.43-23.21,12.75-36.93c-4.31-8.85-12.72-14.36-21.83-15.37c4.11,2.65,7.58,6.42,9.87,11.14
						C413.29,230.92,407.58,247.45,393.86,254.13z"/>
				</g>
				<g class="st26">
					<path class="st5" d="M374.17,217.19c1.08-1.4,2.33-2.67,3.71-3.76c1.4-1.11,2.92-2,4.55-2.64c0.17-0.07,0.36,0.02,0.43,0.19
						c0.06,0.15,0,0.31-0.12,0.4c-0.7,0.48-1.38,0.98-2.06,1.49c-0.66,0.51-1.33,1.03-1.93,1.58c-1.23,1.14-2.36,2.36-3.38,3.68
						c-0.26,0.33-0.73,0.39-1.07,0.14C373.98,217.99,373.92,217.52,374.17,217.19z"/>
				</g>
				<g class="st26">
					<path class="st5" d="M369.94,239.32c-0.53-1.63-0.84-3.3-0.99-5c-0.17-1.7-0.14-3.41,0.04-5.12c0.06-0.86,0.23-1.7,0.36-2.56
						c0.22-0.84,0.37-1.69,0.69-2.5c0.52-1.66,1.34-3.21,2.28-4.66c0.3-0.46,0.92-0.6,1.38-0.29c0.42,0.27,0.57,0.81,0.36,1.26
						l-0.03,0.06c-0.67,1.45-1.37,2.86-1.86,4.37c-0.54,1.49-0.98,3.02-1.27,4.6c-0.58,3.14-0.72,6.45-0.33,9.68l0,0.02
						c0.02,0.18-0.11,0.35-0.29,0.37C370.14,239.57,369.99,239.47,369.94,239.32z"/>
				</g>
			</g>
		</g>
		<g class="st1">
			
				<ellipse transform="matrix(0.6448 -0.7644 0.7644 0.6448 91.1368 181.0434)" class="st23" cx="240.35" cy="-7.53" rx="27.63" ry="27.63"/>
			<g>
				<defs>
					
						<ellipse id="SVGID_8_" transform="matrix(0.6448 -0.7644 0.7644 0.6448 91.1368 181.0434)" cx="240.35" cy="-7.53" rx="27.63" ry="27.63"/>
				</defs>
				<clipPath id="SVGID_9_">
					<use xlink:href="#SVGID_8_"  style="overflow:visible;"/>
				</clipPath>
				<path class="st27" d="M220.86-29.08c-1.21,0.37-1.81,1.83-1.61,3.07c0.2,1.25,1,2.31,1.85,3.24c0.85,0.94,1.78,1.83,2.35,2.95
					c1.15,2.28,0.59,5.11,1.98,7.36c0.43,0.69,1.05,1.25,1.81,1.52c1.89,0.68,3.25-0.69,3.84-2.18c0.42-1.07,0.54-2.23,0.81-3.34
					c0.57-2.31,1.88-4.42,3.65-6c1.12-1,2.89-0.04,2.71,1.44c-0.09,0.71-0.11,1.43-0.03,2.15c0.22,1.95,1.42,3.93,3.31,4.46
					c1.31,0.37,2.69,0,4-0.36c2.89-0.8,5.78-1.6,8.67-2.41c1.73-0.48,3.68-1.13,4.15-3.05c0.29-1.22-0.19-2.48-1.07-3.37
					c-1.58-1.6-3.85-1.88-6-1.99c-1.97-0.1-4-0.11-5.73-1.19c-0.67-0.43-1.24-1.03-1.57-1.75c-0.98-2.18,0.65-3.69,1.33-5.48
					c1.15-3-0.62-6.5-3.27-8.31c-2.66-1.81-5.98-2.29-9.18-2.58"/>
				<path class="st27" d="M221.6,20.19c2.61,1.12,5.29,2.26,8.12,2.42c2.84,0.16,5.91-0.86,7.46-3.24c1.15-1.76,1.31-3.96,1.97-5.96
					c0.66-2,2.24-4.03,4.34-3.94c1.55,0.07,2.77,1.26,4.09,2.05c4.45,2.69,10.15,0.99,15.04-0.78c1.64-0.59,3.31-1.2,4.68-2.28
					c1.37-1.08,2.39-2.75,2.26-4.48c-0.12-1.64-1.26-3.07-2.64-3.96c-1.38-0.89-2.99-1.34-4.58-1.78c-3.28-0.9-6.56-1.81-9.84-2.71
					c-2.89-0.8-6.46-1.42-8.5,0.78c-1.59,1.72-1.49,4.48-2.94,6.32C240,4,238.11,4.66,236.42,4.25c-1.69-0.41-3.07-1.86-3.4-3.57
					c-0.2-1.04-0.03-2.12-0.26-3.15c-0.22-1.03-1.06-2.08-2.11-1.97c-1.89,0.2-1.9,3.47-3.72,4.02c-0.87,0.26-1.79-0.26-2.37-0.95
					c-0.58-0.69-0.92-1.55-1.42-2.3c-1.98-2.98-6.17-3.81-9.63-2.89c-3.46,0.91-6.37,3.2-9.17,5.43"/>
				<g class="st28">
					<path class="st24" d="M258.67,2.81c-0.34,5.4-2.21,10.34-5.17,14.43c8.26-4.34,14.12-12.75,14.74-22.74
						c0.96-15.23-10.61-28.35-25.84-29.3c-9.82-0.62-18.77,3.99-24.13,11.42c4.33-2.27,9.32-3.43,14.56-3.1
						C248.05-25.54,259.62-12.42,258.67,2.81z"/>
				</g>
				<g class="st28">
					<path class="st5" d="M216.82,1.72c-0.69-1.63-1.17-3.34-1.44-5.08c-0.28-1.77-0.3-3.52-0.05-5.26
						c0.03-0.18,0.19-0.31,0.38-0.28c0.16,0.02,0.27,0.15,0.28,0.3c0.08,0.85,0.17,1.69,0.28,2.52c0.12,0.83,0.24,1.67,0.42,2.46
						c0.39,1.63,0.89,3.22,1.53,4.75c0.16,0.39-0.02,0.83-0.41,0.99C217.43,2.28,216.98,2.1,216.82,1.72z"/>
				</g>
				<g class="st28">
					<path class="st5" d="M233.99,16.31c-1.68-0.34-3.28-0.9-4.83-1.61c-1.56-0.69-3.04-1.56-4.44-2.56
						c-0.72-0.48-1.37-1.04-2.05-1.58c-0.62-0.6-1.29-1.16-1.84-1.83c-1.18-1.27-2.13-2.75-2.93-4.28
						c-0.25-0.49-0.06-1.09,0.42-1.35c0.45-0.23,0.99-0.09,1.27,0.3l0.04,0.06c0.93,1.29,1.81,2.61,2.89,3.78
						c1.03,1.2,2.15,2.34,3.38,3.37c2.45,2.06,5.25,3.8,8.26,5.06l0.02,0.01c0.17,0.07,0.25,0.26,0.18,0.43
						C234.3,16.26,234.14,16.34,233.99,16.31z"/>
				</g>
			</g>
		</g>
		<g class="st1">
			<path class="st29" d="M467.31,21.76c0,0,5.06,5.03,2.56,8.3c-2.5,3.27-13.51-7.13-13.51-7.13S460.55,17.74,467.31,21.76z"/>
			<g>
				<path class="st21" d="M481.79,14.19c-11.02-4.55-26.99,1.22-33.14,9.55c-5.46,7.4-6.45,9.59-9.83,8.7
					c-0.64-0.59-0.76-1.03-0.81-2.16c-0.15-3.22,3.25-7.66,3.25-7.66c-3.69-6.41-3.36-13.26,2.61-19.59
					c5.97-6.33,16.35-7.01,16.35-7.01c0.09-4.15,9.1-13.32,13.05-9.5c2.22,2.42-0.7,10.73-0.7,10.73c13.76,2.25,28,25.37,28,25.37
					c0.49,0.56,0.54,1.01,3.01,0.1c2.46-0.91,5.37-2.11,9.61-0.31c2.79,1.18,5.39,4.39,2.56,4.68c-3.8,0.39-3.06,1.52-7.39,3.19
					c-4.34,1.67-6.01,0.26-6.01,0.26c-0.07,1.97-0.65,4.24-1.86,5.35s-3.3,2.65-3.59,3.95c-0.21,0.97-0.88,3.78-2.78,0.82
					c-3.28-5.71,1.15-11.3,2.71-13.31c1.56-2-0.25-2.8-0.25-2.8c-0.49-0.27-0.99-0.54-1.49-0.79
					C493.2,21.36,489.15,17.23,481.79,14.19z"/>
				<path class="st5" d="M448.65,23.74c6.15-8.33,22.12-14.1,33.14-9.55c7.36,3.04,11.41,7.17,13.29,9.58
					c-9.33-4.56-22.2-4.91-22.2-4.91c6.25,6.1,4.42,8.4,4.42,8.4c-4.03,3.55-16.15-5.31-16.15-5.31
					c-8.81,3.72-13.72,9.42-16.79,10.42c-1.99,0.65-4.36,1.18-5.54,0.08C442.2,33.32,443.19,31.14,448.65,23.74z"/>
			</g>
			<path class="st30" d="M447.5,25.07c1.09,1.33,3.15,1.45,4.61,0.26c1.46-1.19,1.76-3.23,0.68-4.57c-1.09-1.33-3.15-1.45-4.61-0.26
				C446.71,21.69,446.41,23.74,447.5,25.07z"/>
			<path class="st31" d="M443.54,22.21c0.48,0.59,1.33,0.68,1.92,0.2c0.58-0.47,0.67-1.33,0.19-1.92c-0.48-0.58-1.33-0.67-1.92-0.2
				C443.15,20.77,443.07,21.63,443.54,22.21z"/>
			<path class="st32" d="M482.29,6c0,0,1-1.2-2.01-3.42c-3.09-2.27-6.23-3.03-6.7-1.52c-0.23,0.74,1.89,0.65,3.88,1.78
				c1.07,0.6,3.46,2.41,4.07,3.04C481.87,6.17,482.29,6,482.29,6z"/>
			<path class="st32" d="M483.14,6.37c0,0,0.93-0.56,1.46,1c0.53,1.56-0.51,1.4-1.07,0.96C482.64,7.63,482.6,6.96,483.14,6.37z"/>
		</g>
		<g class="st1">
			<g>
				<g>
					<g>
						<path class="st14" d="M344.96,106.14c16.47,5.47,23.13,18.71,25.74,29.06c1.16,4.6,1.26,10.1,1.45,13.63
							c-0.51,0.17-1.02,0.33-1.52,0.5c-1.14,0.38-2.28,0.81-3.41,1.26c-0.14-3.39-0.6-7.74-1.78-12.34
							c-3.4-13.25-10.95-22.21-22.45-26.63c-21.15-8.12-34.49,4-45.07,15.78c-0.5-0.75-1-1.49-1.52-2.22
							c-0.49-0.69-1-1.35-1.53-1.99C306.09,110.76,320.3,97.95,344.96,106.14z"/>
					</g>
					<g>
						<path class="st3" d="M343.74,110.17c15.36,5.4,21.2,18.39,23.4,28.33c0.93,4.23,1.3,8.25,1.41,11.59
							c-1.61,0.6-3.2,1.26-4.78,1.96c-0.06-3.22-0.37-7.27-1.33-11.52c-2.86-12.73-9.84-21.13-20.74-24.96
							c-18.81-6.62-31.57,3.79-41.75,14.88c-0.9-1.36-1.79-2.71-2.71-4.05C308.14,114.56,322.63,102.74,343.74,110.17z"/>
					</g>
					<g>
						<path class="st23" d="M342.38,114.47c14.53,4.59,19.71,16.92,21.49,26.46c0.72,3.84,0.96,7.52,0.97,10.64
							c-1.55,0.66-3.1,1.36-4.63,2.07c0.02-3.02-0.17-6.72-0.91-10.55c-2.33-12.21-8.74-20.05-19.06-23.31
							c-16.51-5.22-28.5,3.54-38.22,13.75c-0.86-1.23-1.7-2.48-2.52-3.74C310.04,118.71,323.71,108.57,342.38,114.47z"/>
					</g>
					<g>
						<path class="st24" d="M340.05,119.7c14.03,4.09,18.79,16.03,20.32,25.32c0.48,2.89,0.68,5.68,0.72,8.22
							c-0.34,0.15-0.67,0.31-1.01,0.46c-1.17,0.54-2.34,1.09-3.51,1.65c-0.02-2.47-0.2-5.24-0.68-8.08
							c-2.01-11.89-8.07-19.39-18.03-22.3c-14.11-4.12-25,2.39-34.02,11.06c-0.59-0.76-1.15-1.54-1.68-2.3
							c-0.28-0.39-0.54-0.79-0.81-1.19C311.33,122.82,323.87,114.98,340.05,119.7z"/>
					</g>
				</g>
			</g>
			<path class="st33" d="M384.88,162.33c0.59-0.89,1.89-6.35,1.42-9c-0.47-2.65-2.49-5.06-5.13-5.64c-2.63-0.58-4.89,0.65-5.63,3.24
				c0.22-2.41,0.67-5.55-0.29-8.18c-1.26-3.45-3.62-4.74-6.42-4.86c-2.38-0.11-4.98,1.3-6.29,3.28c-1.31,1.99-1.88,4.35-2.4,6.67
				c0.7-2.18-0.57-4.73-2.64-5.72c-2.07-0.99-4.68-0.49-6.43,0.99c-1.75,1.48-2.66,3.81-2.68,6.1c-0.49-2.67-3.75-4.27-6.32-3.42
				c-2.58,0.85-4.22,3.64-4.21,6.35c0.01,2.72,1.04,7.33,1.94,8.36C340.52,161.33,382.11,164.75,384.88,162.33z"/>
			<path class="st33" d="M328.46,139.58c0.6-0.89,1.94-6.33,1.49-8.99c-0.45-2.66-2.45-5.09-5.08-5.68
				c-2.63-0.6-4.89,0.61-5.66,3.19c0.24-2.4,0.72-5.54-0.22-8.18c-1.23-3.46-3.58-4.77-6.38-4.92c-2.37-0.13-4.99,1.26-6.32,3.23
				c-1.33,1.97-1.92,4.34-2.46,6.65c0.72-2.18-0.53-4.74-2.59-5.74c-2.06-1-4.67-0.53-6.44,0.94c-1.76,1.47-2.69,3.79-2.73,6.08
				c-0.46-2.68-3.71-4.3-6.29-3.47c-2.58,0.83-4.25,3.6-4.26,6.32c-0.02,2.72,0.98,7.34,1.87,8.37
				C284.12,138.2,325.67,141.97,328.46,139.58z"/>
		</g>
		<g class="st1">
			<path class="st23" d="M97.51,139.75c0,0-15.41-1.12-18.46,7.47c-3.05,8.59-3.12,9.99-1.56,11.8c2.03,2.37,12.9-3.02,12.9-3.02
				L97.51,139.75z"/>
			<path class="st23" d="M121.09,156.14c0,0,7.36,13.59,0.79,19.9c-6.57,6.31-7.82,6.95-10.11,6.28c-3-0.88-2.55-13-2.55-13
				L121.09,156.14z"/>
			<path class="st14" d="M136.96,129.29c2.62-7.24,4.4-16.71-0.37-19.79c-5.93-3.83-14.04,1.9-20.21,7.22
				C122.34,122.3,129.38,126.46,136.96,129.29z"/>
			<path class="st14" d="M88.75,158.28c0,0-14.6,10.7-12.97,17.77c1.63,7.07,8.66,1.84,8.66,1.84s-10.98,11-4.58,16.33
				c6.4,5.32,11.94-6.9,11.94-6.9s-0.1,2.23,3.64,4.79c6.62,4.53,12.99-20.37,12.99-20.37L88.75,158.28z"/>
			<path class="st34" d="M92,160.5c0,0-10.03,7.35-8.91,12.2c1.11,4.86,5.94,1.26,5.94,1.26s-7.54,7.55-3.15,11.21
				c4.4,3.65,8.2-4.74,8.2-4.74s-0.07,1.53,2.5,3.29c4.55,3.11,8.92-13.99,8.92-13.99L92,160.5z"/>
			<path class="st5" d="M116.37,116.72c-25.82,25.93-27.63,41.56-27.63,41.56c5.75,10.87,19.67,13.46,19.67,13.46
				c-0.61,0.89,14.45-5.68,28.54-42.45C129.38,126.46,122.34,122.3,116.37,116.72z"/>
			<g>
				<path class="st23" d="M121.26,150.74c-2.75,4.03-9.1,6.12-13.57,3.06c-4.47-3.06-6.97-8.85-3.5-13.91
					c2.75-4.02,8.83-5.48,13.3-2.41C121.96,140.53,124.01,146.72,121.26,150.74z"/>
				<path class="st21" d="M116.56,138.98c-2.2-1.51-4.87-1.67-7.14-0.84c-1.48,0.54-2.79,1.51-3.68,2.8
					c-2.82,4.12-0.79,8.83,2.85,11.32c2.97,2.04,6.97,1.27,9.54-0.87c0.58-0.47,1.09-1.02,1.49-1.62
					C121.87,146.51,120.2,141.47,116.56,138.98z"/>
			</g>
		</g>
		<g class="st1">
			<path class="st14" d="M6.14,26.38c0,0-4.52,0.66-6.09-2.39c-1.57-3.05-2.13-6.25-1.38-6.94c0.75-0.69,7.57-1.05,9.08,0.09
				c1.51,1.14,1.83,3.46,1.83,3.46S7.34,24.25,6.14,26.38z"/>
			<path class="st14" d="M13.26,16.21c0,0-4.95-0.26-5.56-2.95c-0.62-2.69-0.36-6.33,0.22-7.47c0.58-1.14,5.32,0.2,7.47,0.85
				c2.14,0.65,2.3,6.37,2.3,6.37S15.21,14.12,13.26,16.21z"/>
			<path class="st14" d="M22.33,11.19c0,0-3.45-4.59-3.26-5.73c0.19-1.15,3.1-5.97,4.24-6.87c1.14-0.9,5.77,3.38,6.47,4.78
				c0.7,1.41-1.28,7.28-1.56,7.56C28.22,10.93,25.08,10.26,22.33,11.19z"/>
			<path class="st14" d="M34.05,12.64c0,0-1.39-5.2-1.09-6.98c0.3-1.78,4.54-4.26,6.56-4.08c2.02,0.18,3.35,5.4,3.4,6.86
				c0.05,1.47-5.26,6.28-5.26,6.28L34.05,12.64z"/>
			<path class="st14" d="M43.18,18.11c0,0,0.54-4.28,1.15-4.95c0.61-0.67,4.18-1.17,5.03-0.84c0.85,0.33,1.09,3.74,0.59,4.93
				c-0.49,1.19-4.28,2.33-4.28,2.33L43.18,18.11z"/>
			<path class="st17" d="M16.47,38.08c0,0,4.11,5.62,4.82,8.56c0.71,2.94,4.52,2.38,6.31,1.86c1.78-0.52,3.52-1.03,3.46-2.72
				c-0.06-1.69-2.05-8.03-1.6-10.72"/>
			<path class="st17" d="M38.81,32.23c0,0,4.11,5.62,4.82,8.56c0.71,2.94,4.52,2.38,6.31,1.86c1.78-0.52,3.52-1.03,3.46-2.72
				c-0.06-1.69-2.05-8.03-1.6-10.72"/>
			<path class="st14" d="M12.97,43.13c0.72-0.18,1.12-0.32,1.12-0.32c3.16-1.14,6.95-1.72,11.15-2.24c0.2-0.97,0.46-1.92,0.73-2.87
				C21.35,38.92,16.96,40.62,12.97,43.13z"/>
			<path class="st14" d="M28.79,37c-0.25,1.07-0.48,2.14-0.69,3.21c1.04-0.12,2.1-0.26,3.18-0.39c0.22-1.17,0.48-2.32,0.74-3.46
				C30.94,36.55,29.86,36.77,28.79,37z"/>
			<path class="st14" d="M32.02,36.35c-0.26,1.15-0.52,2.29-0.74,3.46c0.85-0.11,1.72-0.23,2.6-0.36c0.17-1.18,0.37-2.36,0.6-3.53
				C33.66,36.07,32.84,36.2,32.02,36.35z"/>
			<path class="st14" d="M34.48,35.93c-0.23,1.17-0.43,2.35-0.6,3.53c3.54-0.51,7.24-1.19,11.01-2.27c0.45-0.13,0.88-0.26,1.3-0.4
				c0.11-0.79,0.23-1.58,0.35-2.36C42.51,34.86,38.45,35.3,34.48,35.93z"/>
			<path class="st14" d="M46.54,34.44c-0.12,0.78-0.24,1.56-0.35,2.36c0.85-0.27,1.63-0.56,2.36-0.86c0.03-0.57,0.06-1.15,0.09-1.72
				C47.94,34.29,47.24,34.36,46.54,34.44z"/>
			<path class="st14" d="M48.64,34.22c-0.03,0.57-0.06,1.14-0.09,1.72c1.64-0.67,3.01-1.39,4.16-2.16
				C51.36,33.93,50,34.07,48.64,34.22z"/>
			<path class="st14" d="M25.97,37.69c-0.28,0.95-0.54,1.9-0.73,2.87c0.94-0.12,1.89-0.23,2.87-0.35c0.21-1.06,0.45-2.14,0.69-3.21
				C27.84,37.22,26.9,37.44,25.97,37.69z"/>
			<path class="st3" d="M59.17,0.31c-4.38,1.15-8.11,4.24-7.58,10.03c0.53,5.79,4.47,8.27-0.17,10.69
				c-4.64,2.42-17.29-12.82-28.62-9.96C11.47,13.92,8.42,22.84,4.2,29.76c-4.23,6.92-15.93,3.29-18.39,2.29
				c-2.46-1-4.7,3.86,7.08,9.01c9.38,4.1,17.26,2.77,20.08,2.06c11.36-7.13,25.98-7.79,39.74-9.35c4.83-3.22,5.8-7.15,6.95-10.33
				c1.62-4.45,1.36-4.31,2.44-4.95c1.07-0.65,8.73,0.35,9.44-8.69C72.24,0.76,63.55-0.84,59.17,0.31z"/>
			<path class="st3" d="M11.45,40.71c0,0,4.11,5.62,4.82,8.56c0.71,2.94,4.52,2.38,6.31,1.86c1.78-0.52,3.52-1.03,3.46-2.72
				c-0.06-1.69-2.05-8.03-1.6-10.72"/>
			<path class="st3" d="M33.79,34.86c0,0,4.11,5.62,4.82,8.56c0.71,2.94,4.52,2.38,6.31,1.86c1.78-0.52,3.52-1.03,3.46-2.72
				c-0.06-1.69-2.05-8.03-1.6-10.72"/>
			<path class="st14" d="M22.93,15.55c0.18,0.68-0.98,1.57-2.58,1.99c-1.6,0.42-3.05,0.21-3.23-0.47c-0.18-0.68,0.98-1.57,2.58-1.99
				C21.3,14.65,22.75,14.87,22.93,15.55z"/>
			<path class="st35" d="M32.08,14.47c0.18,0.68-0.98,1.57-2.58,1.99c-1.6,0.42-3.05,0.21-3.23-0.47c-0.18-0.68,0.98-1.57,2.58-1.99
				C30.46,13.58,31.9,13.79,32.08,14.47z"/>
			<path class="st35" d="M18.08,21.03c0.12,0.47-0.68,1.09-1.79,1.38c-1.11,0.29-2.11,0.14-2.24-0.33
				c-0.12-0.47,0.68-1.09,1.79-1.38C16.95,20.41,17.95,20.55,18.08,21.03z"/>
			<path class="st35" d="M21.78,23.04c0.12,0.47-0.51,1.05-1.4,1.28c-0.9,0.24-1.73,0.04-1.85-0.43c-0.12-0.47,0.51-1.05,1.4-1.28
				C20.83,22.38,21.66,22.57,21.78,23.04z"/>
			<path class="st14" d="M25.23,19.15c0.12,0.47-0.51,1.05-1.4,1.28c-0.9,0.24-1.73,0.04-1.85-0.43c-0.12-0.47,0.51-1.05,1.4-1.28
				C24.28,18.49,25.11,18.68,25.23,19.15z"/>
			<path class="st14" d="M32.97,17.95c0.16,0.6-0.73,1.36-1.97,1.68c-1.25,0.33-2.39,0.1-2.55-0.5c-0.16-0.6,0.73-1.36,1.97-1.68
				C31.68,17.12,32.81,17.35,32.97,17.95z"/>
			<circle class="st30" cx="65.32" cy="13.6" r="2.1"/>
			<path d="M68.5,10.68c0,0.45-0.37,0.82-0.82,0.82c-0.45,0-0.82-0.37-0.82-0.82c0-0.45,0.37-0.82,0.82-0.82
				C68.14,9.85,68.5,10.22,68.5,10.68z"/>
		</g>
		<g class="st1">
			<g>
				<g>
					<g>
						<path class="st36" d="M153.22,477.26c-1.67-0.25-3.34-0.74-4.95-1.49c-8.95-4.17-12.83-14.81-8.67-23.76l22.13-47.55
							c4.17-8.95,14.8-12.84,23.76-8.67c8.95,4.17,12.83,14.81,8.67,23.76l-22.13,47.55C168.62,474.46,160.85,478.39,153.22,477.26z
							"/>
					</g>
					<g>
						<path class="st36" d="M344.79,479.75c-6.36,0-12.51-3.4-15.74-9.38l-24.96-46.12c-4.7-8.69-1.47-19.54,7.22-24.24
							c8.69-4.7,19.54-1.47,24.24,7.22l24.96,46.12c4.7,8.69,1.47,19.54-7.22,24.24C350.58,479.06,347.66,479.75,344.79,479.75z"/>
					</g>
					<g>
						<path class="st23" d="M317.07,448.99c18.64,1.13,38.97-19.2,38.97-19.2s-12.42-54.78-50.26-58.73
							c-25.78-2.48-48.5-1.48-53.68-1.19c-5.39-0.28-28.98-1.28-54.76,1.19c-37.84,3.95-50.26,58.73-50.26,58.73
							s20.33,20.33,38.97,19.2l-5.65,68.9c0,0,30.5,13.85,71.16,14.11v0.01c0.19,0,0.38-0.01,0.56-0.01c0.19,0,0.38,0.01,0.57,0.01
							V532c40.64-0.26,70.03-14.11,70.03-14.11L317.07,448.99z"/>
						<g>
							<defs>
								<path id="SVGID_10_" d="M317.07,448.99c18.64,1.13,38.97-19.2,38.97-19.2s-12.42-54.78-50.26-58.73
									c-25.78-2.48-48.5-1.48-53.68-1.19c-5.39-0.28-28.98-1.28-54.76,1.19c-37.84,3.95-50.26,58.73-50.26,58.73
									s20.33,20.33,38.97,19.2l-5.65,68.9c0,0,30.5,13.85,71.16,14.11v0.01c0.19,0,0.38-0.01,0.56-0.01
									c0.19,0,0.38,0.01,0.57,0.01V532c40.64-0.26,70.03-14.11,70.03-14.11L317.07,448.99z"/>
							</defs>
							<clipPath id="SVGID_11_">
								<use xlink:href="#SVGID_10_"  style="overflow:visible;"/>
							</clipPath>
							<g class="st37">
								<path class="st38" d="M134.53,375.25c0,0,118.52,40.73,245.27-11.4"/>
								<path class="st38" d="M134.53,399.35c0,0,118.52,40.73,245.27-11.4"/>
								<path class="st38" d="M134.53,423.44c0,0,118.52,40.73,245.27-11.4"/>
								<path class="st38" d="M134.53,447.54c0,0,118.52,40.73,245.27-11.4"/>
								<path class="st38" d="M134.53,471.63c0,0,118.52,40.73,245.27-11.4"/>
								<path class="st38" d="M134.53,495.73c0,0,118.52,40.73,245.27-11.4"/>
							</g>
						</g>
						<g>
							<path class="st22" d="M223.56,371.81c-7.27,1.27-7.24,7.04-7.24,7.04c0,12.43,10.08,22.51,22.51,22.51H254
								c14.35,0,26.13-10.13,26.13-24.48l0,0c0,0,0.58-6.35-7.04-6.35C263.39,370.54,245.03,368.06,223.56,371.81z"/>
						</g>
						<g>
							<path class="st22" d="M145.68,430.31c0.71-0.99,2.08-1.28,3.12-0.63c4.76,2.94,19.86,11.23,36.03,11.56
								c1.25,0.03,2.27,1,2.29,2.24l0.09,4.3c0.03,1.31-1.03,2.42-2.34,2.39c-18.81-0.31-35.19-9.63-40.76-12.74
								C140.65,435.51,145.68,430.31,145.68,430.31z"/>
						</g>
						<g>
							<path class="st22" d="M357.24,430.31c-0.71-0.99-2.08-1.28-3.12-0.63c-4.76,2.94-19.86,11.23-36.03,11.56
								c-1.25,0.03-2.27,1-2.29,2.24l-0.09,4.3c-0.03,1.31,1.03,2.42,2.34,2.39c18.81-0.31,35.19-9.63,40.76-12.74
								C362.28,435.51,357.24,430.31,357.24,430.31z"/>
						</g>
					</g>
					<g>
						<g>
							<path class="st39" d="M191.82,364.03c-5.18,0-10.36-1-15.14-3.02c-11.4-4.83-20.16-15.34-22.87-27.42l0.87-0.19
								c2.65,11.8,11.21,22.07,22.35,26.79c11.14,4.72,24.47,3.74,34.79-2.57l0.47,0.76C206.15,362.12,198.98,364.03,191.82,364.03z
								"/>
						</g>
						<g>
							<path class="st39" d="M151.15,315.99c-6.28,0-12.86-2.16-18.28-6.28c-7.2-5.47-12.7-14.16-15.92-25.12
								c-6.18-21.08-2.51-44.52,9.81-62.71c9.4-13.87,22.9-22.29,36.12-22.52l0.01,0.89c-12.92,0.22-26.15,8.49-35.39,22.12
								c-12.18,17.97-15.8,41.13-9.69,61.96c2.2,7.52,6.7,17.9,15.6,24.66c8.33,6.32,19.47,7.9,27.74,3.93l0.39,0.81
								C158.37,315.25,154.81,315.99,151.15,315.99z"/>
						</g>
						<g>
							<path class="st39" d="M341.57,250.11c-0.42,0-0.85-0.04-1.28-0.12l0.17-0.88c3.03,0.59,5.94-1.36,7.48-3.55
								c1.8-2.57,2.39-5.75,2.74-8.53c2.75-22.13-8.01-45.08-26.8-57.11l0.48-0.75c19.07,12.21,30,35.51,27.2,57.97
								c-0.36,2.89-0.98,6.21-2.89,8.93C347.18,248.2,344.51,250.11,341.57,250.11z"/>
						</g>
						<path class="st40" d="M291.23,347.31c2.35,3.52,6.65,4.91,10.55,4.36c3.9-0.56,7.45-2.78,10.65-5.33
							c16.31-13,25.58-36.25,23.32-58.5"/>
						<path class="st39" d="M170.98,192.78c0,0-31.96,8.8-43.67,37.65c-10.54,25.98-14.31,59.86,7.53,70.78
							c0,0,13.18,37.27,22.59,39.53c9.41,2.26,15.06,26.36,53.84,22.59c38.78-3.77,63.44,4.33,81.51-12.61
							c0,0,16.94,2.26,32.94-26.54c11.05-19.88,13.18-39.91,14.31-52.33c1.13-12.42,0.75-24.85,0.75-24.85s10.54-7.91,8.28-23.72
							c-2.26-15.81-11.67-33.51-23.34-42.17c0,0,4.14-7.91-15.44-21.84c-19.58-13.93-38.4-7.53-38.4-7.53
							S237.25,118.23,170.98,192.78z"/>
						<g>
							<path class="st41" d="M248.78,392.52h-1.22c-12.01,0-21.75-3.8-21.75-15.81v-36.24c0-12.01,9.74-21.75,21.75-21.75h1.22
								c12.01,0,21.75,9.74,21.75,21.75v36.24C270.52,388.71,260.79,392.52,248.78,392.52z"/>
						</g>
						<g>
							<path class="st42" d="M270.52,364.66v-24.19c0-12.01-9.74-21.75-21.75-21.75h-1.22c-12.01,0-21.75,9.74-21.75,21.75v27.82
								C235.38,369.72,251.13,370.36,270.52,364.66z"/>
						</g>
						<g>
							<path class="st36" d="M180.32,317.63c0.67,15.27-11.07,28.19-26.24,28.86c-15.16,0.67-28-11.16-28.68-26.43
								c-0.67-15.27,11.07-28.19,26.24-28.86C166.81,290.53,179.65,302.36,180.32,317.63z"/>
							<path class="st42" d="M176.58,326.65c0.44,9.97-8.8,18.47-20.64,19c-11.84,0.52-21.8-7.13-22.24-17.1
								c-0.44-9.97,8.8-18.47,20.64-19C166.18,309.02,176.14,316.68,176.58,326.65z"/>
							<path class="st42" d="M176.58,326.65c0.44,9.97-8.8,18.47-20.64,19c-11.84,0.52-21.8-7.13-22.24-17.1
								c-0.44-9.97,8.8-18.47,20.64-19C166.18,309.02,176.14,316.68,176.58,326.65z"/>
							<path class="st43" d="M130.17,323.98c1.3-1.8,2.73-3.38,4.34-4.84c1.56-1.49,3.29-2.8,5.1-4.01
								c3.61-2.41,7.71-4.11,11.99-5.02c2.12-0.55,4.33-0.62,6.51-0.73l3.27,0.21c1.1,0.01,2.14,0.38,3.22,0.55
								c2.17,0.32,4.17,1.18,6.2,1.91c1.04,0.31,1.94,0.94,2.91,1.4l2.85,1.5c0.44,0.23,0.6,0.77,0.37,1.2
								c-0.22,0.42-0.74,0.59-1.16,0.39l-0.1-0.05l-2.8-1.3c-0.95-0.4-1.82-0.96-2.82-1.2c-1.96-0.58-3.86-1.35-5.88-1.59
								c-3.97-0.82-8.09-0.67-12.01,0.19c-3.94,0.85-7.68,2.54-11.13,4.68c-3.4,2.19-6.65,4.82-9.41,7.77l-0.04,0.05
								c-0.34,0.36-0.9,0.38-1.26,0.04C129.95,324.85,129.91,324.34,130.17,323.98z"/>
							<path class="st43" d="M149.95,328.6c1.85-2.89,4.34-5.22,7.16-7.12c2.83-1.88,6.06-3.2,9.41-3.9
								c1.67-0.42,3.4-0.48,5.11-0.54c1.71,0.12,3.42,0.19,5.07,0.65c1.69,0.26,3.25,0.96,4.82,1.56c1.55,0.65,2.97,1.56,4.43,2.36
								c0.33,0.18,0.46,0.6,0.28,0.94c-0.17,0.31-0.54,0.44-0.86,0.31l-0.11-0.04c-1.49-0.59-2.9-1.36-4.4-1.85
								c-1.53-0.42-3-0.99-4.56-1.16c-3.07-0.6-6.23-0.43-9.24,0.23c-3.03,0.66-5.89,1.97-8.54,3.63c-2.64,1.66-5.16,3.64-7.47,5.78
								l-0.04,0.04c-0.28,0.26-0.72,0.25-0.98-0.03C149.8,329.21,149.78,328.86,149.95,328.6z"/>
						</g>
						<g>
							
								<ellipse transform="matrix(0.8966 -0.4428 0.4428 0.8966 -86.5904 177.3661)" class="st36" cx="336.57" cy="274.14" rx="27.48" ry="27.67"/>
							<path class="st42" d="M319.57,292.41c4.42,8.95,16.62,11.94,27.24,6.69c10.63-5.25,15.65-16.76,11.23-25.71
								c-4.42-8.95-16.62-11.94-27.24-6.69C320.17,271.95,315.14,283.46,319.57,292.41z"/>
							<path class="st43" d="M358.93,267.69c-2.01-0.95-4.02-1.65-6.13-2.15c-2.09-0.56-4.24-0.87-6.4-1.05
								c-4.32-0.37-8.74,0.12-12.92,1.38c-2.12,0.54-4.09,1.55-6.05,2.5l-2.77,1.76c-0.96,0.54-1.7,1.37-2.55,2.03
								c-1.75,1.32-3.09,3.04-4.51,4.67c-0.76,0.78-1.24,1.76-1.87,2.63l-1.77,2.69c-0.27,0.41-0.16,0.96,0.26,1.23
								c0.4,0.26,0.93,0.16,1.21-0.22l0.07-0.09l1.82-2.49c0.64-0.8,1.13-1.72,1.89-2.41c1.44-1.45,2.73-3.05,4.39-4.23
								c3.08-2.64,6.76-4.49,10.61-5.62c3.86-1.16,7.95-1.48,12.01-1.27c4.04,0.28,8.15,1.01,11.99,2.27l0.06,0.02
								c0.47,0.15,0.97-0.1,1.13-0.57C359.54,268.35,359.33,267.88,358.93,267.69z"/>
							<path class="st43" d="M343.83,281.27c-3.02-1.64-6.32-2.48-9.71-2.78c-3.39-0.28-6.85,0.12-10.12,1.12
								c-1.66,0.44-3.21,1.21-4.73,1.99c-1.44,0.93-2.91,1.82-4.13,3.01c-1.35,1.05-2.38,2.4-3.47,3.69
								c-1.04,1.32-1.85,2.8-2.74,4.2c-0.2,0.32-0.11,0.75,0.21,0.95c0.3,0.19,0.68,0.12,0.9-0.14l0.08-0.09
								c1.02-1.24,1.88-2.59,2.97-3.74c1.13-1.1,2.15-2.32,3.44-3.22c2.4-2.01,5.24-3.38,8.2-4.25c2.97-0.88,6.11-1.11,9.23-0.93
								c3.11,0.18,6.28,0.7,9.33,1.46l0.06,0.01c0.37,0.09,0.75-0.13,0.84-0.5C344.25,281.74,344.11,281.42,343.83,281.27z"/>
						</g>
						<path class="st41" d="M330.15,256.3c5.15,49.64-16.56,96.3-77.46,102.33c-57.04,5.65-93.78-34.4-98.92-84.04
							c-5.15-49.64,30.16-93.97,78.87-99.03C281.34,170.51,325,206.66,330.15,256.3z"/>
						<g>
							<path class="st39" d="M262.67,252.48c-2.75,0-5.6-0.62-8.27-1.86c-4.68-2.17-8.92-6.21-12.26-11.67
								c-1.2-1.96-2.24-4.02-3.18-6.11c0.11,0.83,0.18,1.67,0.19,2.51c0.04,4.79-2.15,9.13-5.57,11.05
								c-3.43,1.92-7.64,2.04-11.86,0.35c-18.66-7.51-31.77-18.67-37.91-32.27l0.81-0.37c6.04,13.39,18.99,24.39,37.43,31.81
								c3.96,1.59,7.9,1.49,11.09-0.3c3.15-1.76,5.16-5.79,5.12-10.26c-0.03-2.97-0.81-5.85-1.79-8.64
								c-0.41-1.09-0.82-2.19-1.22-3.27l0.84-0.31c0.39,1.03,0.8,2.1,1.19,3.2c1.57,4.16,3.3,8.34,5.64,12.15
								c3.25,5.31,7.35,9.22,11.88,11.32c5.33,2.47,11.39,2.35,15.82-0.33c4.86-2.94,7.29-9.09,5.54-14l0.83-0.33
								c2.93,6.53,8.41,11.83,15.03,14.55c2.76,1.14,8.07,2.68,12.55,0.24c2.04-1.11,3.61-3.27,4.11-5.63c0.4-1.89,0.05-3.66-0.98-5
								l0.71-0.55c1.19,1.55,1.6,3.58,1.15,5.73c-0.55,2.61-2.3,5-4.56,6.23c-4.8,2.61-10.4,1-13.31-0.19
								c-5.87-2.41-10.86-6.78-14.07-12.24c0.21,4.56-2.3,9.4-6.52,11.95C268.62,251.74,265.7,252.48,262.67,252.48z"/>
						</g>
						
							<radialGradient id="SVGID_12_" cx="218.0586" cy="375.3685" r="26.9897" gradientTransform="matrix(0.9995 -0.0115 -0.0115 0.7394 2.4357 51.0111)" gradientUnits="userSpaceOnUse">
							<stop  offset="0.1454" style="stop-color:#993028"/>
							<stop  offset="1" style="stop-color:#FCBCB1"/>
						</radialGradient>
						<path class="st44" d="M245.24,324.76c0.44,10.02-12.26,18.72-28.37,19.43c-16.11,0.71-29.53-6.84-29.97-16.86
							c-0.44-10.02,12.26-18.72,28.37-19.43C231.38,307.19,244.8,314.74,245.24,324.76z"/>
						
							<radialGradient id="SVGID_13_" cx="254.6411" cy="450.7972" r="26.9902" gradientTransform="matrix(0.9508 -0.3084 0.209 0.7093 -40.0654 64.1239)" gradientUnits="userSpaceOnUse">
							<stop  offset="0.1454" style="stop-color:#993028"/>
							<stop  offset="1" style="stop-color:#FCBCB1"/>
						</radialGradient>
						<path class="st45" d="M323.73,295.43c3.4,9.44-6.13,21.52-21.3,27c-15.17,5.47-30.23,2.26-33.63-7.18
							c-3.4-9.44,6.13-21.52,21.3-27C305.27,282.78,320.33,286,323.73,295.43z"/>
						<g>
							<path class="st46" d="M228.78,294.62c0,11.02-8.85,19.95-19.77,19.95c-10.92,0-19.77-8.93-19.77-19.95
								c0-11.02,8.85-19.95,19.77-19.95C219.93,274.67,228.78,283.6,228.78,294.62z"/>
							<ellipse class="st5" cx="209.57" cy="296.2" rx="19.65" ry="19.83"/>
							<ellipse cx="208.63" cy="289.25" rx="12.76" ry="12.88"/>
							<path class="st5" d="M201.72,288.78c0,1.72-2.06,3.11-4.61,3.11c-2.55,0-4.61-1.39-4.61-3.11c0-1.72,2.07-3.11,4.61-3.11
								C199.66,285.67,201.72,287.06,201.72,288.78z"/>
						</g>
						<g>
							<path class="st46" d="M269.15,281.09c4.12,10.22,15.67,15.19,25.8,11.11c10.12-4.08,14.99-15.68,10.87-25.9
								c-4.12-10.22-15.67-15.19-25.8-11.11C269.89,259.28,265.02,270.87,269.15,281.09z"/>
							
								<ellipse transform="matrix(0.9275 -0.3738 0.3738 0.9275 -82.088 127.4415)" class="st5" cx="287.55" cy="275.37" rx="19.65" ry="19.83"/>
							<path d="M275.39,272.88c2.66,6.6,10.12,9.81,16.65,7.17c6.54-2.64,9.68-10.12,7.01-16.72c-2.66-6.6-10.12-9.81-16.65-7.17
								C275.87,258.8,272.73,266.29,275.39,272.88z"/>
							<path class="st5" d="M271.13,270.5c0.64,1.59,3.08,2.11,5.44,1.15c2.36-0.95,3.76-3.01,3.12-4.61
								c-0.64-1.59-3.08-2.11-5.44-1.16C271.88,266.85,270.49,268.91,271.13,270.5z"/>
						</g>
						<g>
							<path class="st47" d="M240.64,311.23c1.3,1.48,2.81,2.83,4.39,3.98c1.6,1.14,3.33,2.08,5.18,2.71
								c1.84,0.62,3.78,0.99,5.75,0.96c0.99,0.07,1.96-0.13,2.96-0.2c0.99-0.11,1.95-0.41,2.95-0.57l0.07-0.01
								c0.24-0.04,0.47,0.12,0.51,0.37c0.04,0.22-0.09,0.42-0.29,0.49c-0.99,0.34-1.97,0.73-3,0.97c-1.04,0.21-2.08,0.45-3.15,0.46
								c-2.13,0.19-4.31-0.13-6.35-0.79c-2.05-0.66-3.98-1.69-5.63-3.05c-1.65-1.36-3.07-2.95-4.13-4.83
								c-0.12-0.22-0.04-0.49,0.17-0.61c0.19-0.11,0.42-0.06,0.56,0.09L240.64,311.23z"/>
						</g>
						<g>
							<path class="st47" d="M244.34,319.42c0.76,0.69,1.57,1.31,2.42,1.85c0.87,0.52,1.77,0.98,2.74,1.3
								c1.92,0.64,4,0.85,6.02,0.51c0.15-0.03,0.29,0.08,0.32,0.23c0.02,0.14-0.07,0.28-0.2,0.31c-2.09,0.53-4.34,0.44-6.4-0.23
								c-1.03-0.34-2.04-0.77-2.94-1.39c-0.91-0.59-1.72-1.34-2.36-2.21c-0.09-0.12-0.06-0.3,0.06-0.39
								C244.1,319.32,244.25,319.33,244.34,319.42z"/>
						</g>
						<path class="st39" d="M179.8,253.14c3.06-15.33,3.82-22.43,5.67-37.95c5.11,11.17,26.23,27.41,34.56,28.14
							c4.81,0.42,10.06,0.96,13.67-2.23c3.62-3.19,4.53-9.43,1.17-12.89c3.34,5.14,6.72,10.34,11.18,14.55
							c4.46,4.21,10.18,7.39,16.31,7.62c6.41,0.24,12.85-2.98,16.5-8.25c3.65-5.27,4.41-12.43,1.93-18.35
							c4.44,6.84,8.93,13.75,14.85,19.34c5.92,5.6,13.5,9.85,21.65,10.21c8.14,0.36,16.74-3.82,20.1-11.25
							c3.49-7.69,0.91-16.66-2-24.59c-6.86-18.72-16.02-37.68-32.21-49.31c-11.03-7.92-24.65-11.81-38.22-12.4
							c-13.57-0.59-27.13,1.98-40.08,6.05c-27.1,8.52-52.79,24.46-67.95,48.48c-9.26,14.67-13.92,32.45-12.61,49.78
							c0.65,8.62,2.79,17.3,6.73,25.02c5.18,10.15,12.49,1.53,17.3-4.86C174.32,272.33,177.88,262.77,179.8,253.14z"/>
						<g class="st48">
							<path class="st49" d="M205.81,201.78c2.12,3.79,4.76,7.28,7.78,10.38c3.01,3.1,6.43,5.83,10.13,8.01
								c1.83,1.05,3.84,1.88,5.86,1.92c1,0.01,1.97-0.22,2.82-0.7c0.83-0.49,1.52-1.22,2-2.09c0.97-1.76,1.16-3.89,0.73-5.92
								c-0.41-2.05-1.28-4.02-2.18-6c-0.15-0.33-0.01-0.72,0.32-0.87c0.31-0.14,0.66-0.03,0.84,0.25c2.62,4.22,6.03,7.95,10,10.96
								c1.99,1.48,4.1,2.86,6.33,3.88c2.24,1,4.64,1.73,7.07,1.81c1.21,0.04,2.42-0.07,3.57-0.39c1.15-0.33,2.21-0.91,3.1-1.69
								c1.84-1.52,2.79-3.92,3.04-6.32c0.27-2.43-0.24-4.9-1.12-7.22c-0.88-2.33-2.12-4.52-3.36-6.72
								c-0.08-0.15-0.03-0.34,0.12-0.42c0.15-0.08,0.33-0.03,0.42,0.11c1.29,2.17,2.59,4.37,3.55,6.75
								c0.96,2.37,1.57,4.97,1.33,7.59c-0.2,2.58-1.22,5.26-3.29,7.02c-1,0.89-2.2,1.56-3.48,1.94c-1.28,0.38-2.61,0.52-3.92,0.48
								c-2.63-0.06-5.17-0.8-7.54-1.83c-2.37-1.08-4.52-2.47-6.58-4c-4.1-3.08-7.63-6.91-10.36-11.26l1.16-0.62
								c0.91,1.98,1.85,4.03,2.29,6.29c0.46,2.23,0.26,4.73-0.91,6.81c-0.57,1.04-1.43,1.96-2.49,2.57
								c-1.06,0.6-2.29,0.87-3.47,0.85c-2.38-0.07-4.53-1.01-6.46-2.13c-7.57-4.64-13.78-11.33-17.84-19.15
								c-0.08-0.15-0.02-0.34,0.13-0.42C205.55,201.58,205.73,201.64,205.81,201.78z"/>
						</g>
						<g class="st48">
							<path class="st49" d="M305.18,211.81c1.19,3.09,2.31,6.26,4.34,8.74c1.92,2.47,5.07,4.11,8.08,3.75
								c1.5-0.18,2.86-1.01,3.83-2.19c0.97-1.19,1.62-2.67,1.91-4.22c0.57-3.14-0.22-6.43-0.97-9.65c-0.04-0.17,0.06-0.33,0.23-0.37
								c0.16-0.04,0.32,0.06,0.37,0.21c0.98,3.15,1.99,6.5,1.47,10c-0.27,1.72-0.91,3.43-2.05,4.82c-1.11,1.4-2.78,2.45-4.61,2.69
								c-1.81,0.26-3.65-0.13-5.22-0.92c-1.59-0.78-2.97-1.97-4.02-3.35c-2.11-2.8-3.09-6.11-3.96-9.31
								c-0.04-0.17,0.05-0.34,0.22-0.38C304.97,211.58,305.13,211.67,305.18,211.81z"/>
						</g>
						<g class="st48">
							<path class="st49" d="M141.28,266.43c-0.4,2.2,0.42,4.48,1.86,6.14c1.44,1.66,3.53,2.8,5.68,2.73
								c2.15-0.04,4.17-1.26,5.49-2.96c1.34-1.69,2.01-3.94,1.54-6l1.25,0.04c-0.55,1.81,1.18,3.92,3.09,4.16
								c2,0.31,4.11-0.82,5.46-2.45c1.39-1.66,2.2-3.8,2.93-5.97c0.75-2.17,1.41-4.37,2.02-6.58c1.23-4.42,2.19-8.92,2.86-13.47
								c0.69-4.54,1.1-9.13,1.23-13.74c0-0.17,0.15-0.31,0.32-0.3c0.17,0,0.3,0.14,0.3,0.31c0,4.63-0.26,9.27-0.85,13.87
								c-0.6,4.6-1.49,9.16-2.67,13.65c-0.6,2.24-1.26,4.47-2.01,6.67c-0.74,2.18-1.55,4.48-3.13,6.39
								c-0.79,0.95-1.78,1.76-2.91,2.31c-1.13,0.55-2.45,0.83-3.75,0.63c-1.34-0.2-2.52-0.97-3.31-2.02
								c-0.79-1.03-1.23-2.48-0.81-3.84l0-0.01c0.1-0.34,0.47-0.53,0.81-0.43c0.23,0.07,0.39,0.26,0.44,0.48
								c0.55,2.52-0.29,5.13-1.83,7.05c-1.53,1.93-3.91,3.29-6.45,3.28c-2.54,0-4.89-1.35-6.39-3.26c-1.51-1.89-2.31-4.44-1.77-6.84
								c0.04-0.17,0.2-0.27,0.37-0.24C141.21,266.11,141.31,266.27,141.28,266.43z"/>
						</g>
						<g class="st48">
							<path class="st49" d="M268.04,179.13c1.65,1.64,3.28,3.31,5.16,4.59c1.85,1.31,4,2.15,6.2,2.17c2.16,0.05,4.4-0.8,5.45-2.62
								c1.09-1.76,1.11-4.29-0.35-5.64l0.97-0.9c1.64,2.05,4.37,3.38,6.97,3.13c1.29-0.13,2.49-0.73,3.36-1.68
								c0.42-0.48,0.77-1.03,1.04-1.63c0.25-0.61,0.42-1.25,0.52-1.92c0.17-1.33,0.03-2.71-0.38-4c-0.42-1.28-1.16-2.47-2.01-3.56
								c-1.74-2.19-4.05-3.9-6.36-5.58c-0.14-0.1-0.17-0.3-0.07-0.43c0.1-0.14,0.29-0.17,0.43-0.07c2.37,1.6,4.8,3.24,6.74,5.48
								c0.96,1.12,1.77,2.4,2.28,3.83c0.49,1.43,0.68,2.96,0.52,4.48c-0.17,1.51-0.72,3.04-1.78,4.23
								c-1.06,1.19-2.58,1.95-4.14,2.11c-1.57,0.17-3.13-0.15-4.52-0.78c-1.4-0.63-2.64-1.58-3.63-2.78
								c-0.23-0.28-0.19-0.7,0.09-0.93c0.26-0.22,0.64-0.2,0.88,0.03c0.49,0.47,0.89,1.04,1.16,1.66c0.26,0.62,0.37,1.29,0.4,1.94
								c0.03,1.31-0.34,2.59-1.01,3.69c-0.33,0.55-0.77,1.05-1.26,1.48c-0.51,0.43-1.06,0.74-1.64,1.01
								c-1.17,0.51-2.44,0.72-3.68,0.67c-2.49-0.09-4.84-1.13-6.75-2.57c-1.92-1.45-3.51-3.21-5.03-4.97
								c-0.11-0.13-0.1-0.33,0.03-0.44C267.74,179.01,267.93,179.02,268.04,179.13z"/>
						</g>
						<g class="st48">
							<path class="st49" d="M141.59,229.41c0.44,1.29,1.66,2.14,2.97,2.41c0.66,0.15,1.34,0.18,2,0.08
								c0.65-0.09,1.27-0.35,1.87-0.68c1.2-0.65,2.21-1.65,3.08-2.77c0.87-1.12,1.68-2.35,2.44-3.59
								c3.04-4.98,5.25-10.46,6.62-16.17c0.04-0.17,0.21-0.27,0.37-0.23c0.16,0.04,0.26,0.19,0.24,0.35
								c-0.46,2.94-1.22,5.84-2.25,8.64c-1.01,2.81-2.34,5.51-3.87,8.08c-0.77,1.28-1.56,2.55-2.53,3.74
								c-0.96,1.18-2.11,2.29-3.53,3.04c-0.7,0.37-1.49,0.64-2.31,0.71c-0.81,0.08-1.62,0-2.4-0.22c-1.53-0.41-2.98-1.62-3.31-3.24
								c-0.03-0.17,0.07-0.33,0.24-0.37C141.38,229.17,141.54,229.26,141.59,229.41z"/>
						</g>
						<g class="st48">
							<path class="st49" d="M218.42,177.53c2.6,1.1,5.25,2.03,7.96,2.69c1.35,0.34,2.72,0.62,4.1,0.83
								c1.38,0.19,2.78,0.41,4.11,0.37c1.33-0.03,2.63-0.35,3.52-1.18c0.89-0.81,1.34-2.1,1.36-3.4c0.03-1.31-0.4-2.6-1.04-3.81
								c-0.63-1.22-1.49-2.33-2.33-3.48c-0.1-0.14-0.07-0.33,0.07-0.43c0.13-0.1,0.31-0.07,0.42,0.04c0.95,1.06,1.88,2.15,2.65,3.41
								c0.77,1.24,1.32,2.71,1.35,4.26c0.04,1.51-0.4,3.18-1.62,4.31c-1.2,1.14-2.85,1.52-4.33,1.57c-1.51,0.05-2.94-0.14-4.36-0.37
								c-1.42-0.24-2.83-0.55-4.22-0.93c-2.77-0.79-5.44-1.89-7.92-3.33c-0.15-0.09-0.2-0.28-0.11-0.43
								C218.11,177.52,218.28,177.47,218.42,177.53z"/>
						</g>
						<g class="st48">
							<path class="st49" d="M177.52,340.1c0.81,2.41,1.99,4.66,3.51,6.64c1.5,2.01,3.37,3.71,5.45,5.07
								c4.21,2.68,9.4,3.77,14.43,3.07c0.17-0.02,0.33,0.09,0.35,0.26c0.02,0.16-0.08,0.31-0.24,0.35
								c-5.11,1.21-10.73,0.25-15.24-2.58c-2.27-1.39-4.21-3.29-5.75-5.44c-1.52-2.17-2.62-4.64-3.12-7.22
								c-0.03-0.17,0.08-0.33,0.25-0.36C177.33,339.86,177.48,339.95,177.52,340.1z"/>
						</g>
						<path class="st39" d="M170.46,203.84c-5.71-4.6-10.49-10.36-13.96-16.82c-0.61-1.13-1.19-2.35-1.18-3.63
							c0.01-1.29,0.81-2.66,2.07-2.9c1.77-0.34,3.13,1.49,3.99,3.07c3.08,5.64,6.15,11.27,9.23,16.91
							c-2.43-7.99-3.53-16.39-3.24-24.74c0.04-1.26,0.13-2.55,0.65-3.69c0.53-1.14,1.6-2.12,2.86-2.18
							c1.28-0.06,2.46,0.85,3.08,1.97c0.62,1.12,0.8,2.43,0.93,3.71c0.95,8.93,0.57,18.01-1.12,26.83"/>
						<path class="st39" d="M174.94,275.42c0,0,12.05-33.13,24.1-29.74c12.05,3.39-6.4,26.36-9.41,29.37
							C186.61,278.06,173.05,288.22,174.94,275.42z"/>
						<path class="st39" d="M304.16,239.25c0,0-27.6-21.93-36.1-12.74c-8.49,9.19,19.24,19.11,23.39,20.1
							C295.59,247.6,312.46,249.18,304.16,239.25z"/>
						<g>
							<g>
								
									<ellipse transform="matrix(0.3739 -0.9275 0.9275 0.3739 -66.4803 444.552)" class="st50" cx="296.03" cy="271.52" rx="38.26" ry="38.26"/>
								<g>
									<path class="st51" d="M297.11,315.77c-23.81,0-43.17-19.37-43.17-43.17c0-23.81,19.37-43.17,43.17-43.17
										c23.81,0,43.17,19.37,43.17,43.17C340.29,296.41,320.92,315.77,297.11,315.77z M297.11,236.58
										c-19.86,0-36.02,16.16-36.02,36.02c0,19.86,16.16,36.02,36.02,36.02c19.86,0,36.02-16.16,36.02-36.02
										C333.13,252.74,316.97,236.58,297.11,236.58z"/>
								</g>
							</g>
							<g class="st4">
								<path class="st5" d="M279.12,250.25c-1.25,3.23-2.49,6.3-3.52,9.3c-1.04,3-1.88,5.95-2.46,8.91
									c-0.58,2.96-0.86,5.93-0.85,9.01c0,3.09,0.37,6.25,0.77,9.78l0,0.03c0.06,0.52-0.31,0.99-0.83,1.05
									c-0.29,0.03-0.57-0.07-0.76-0.26c-2.66-2.58-4.52-5.97-5.53-9.65c-0.5-1.84-0.76-3.76-0.84-5.68
									c-0.06-1.92,0.12-3.84,0.46-5.73c0.7-3.77,2.21-7.31,4.27-10.4c2.1-3.08,4.66-5.77,8-7.6c0.45-0.25,1.02-0.08,1.27,0.37
									c0.14,0.25,0.15,0.54,0.05,0.78L279.12,250.25z"/>
							</g>
						</g>
						<path class="st41" d="M249.3,291.99c5.65-0.56,12.14-11.01,16.38-1.41c4.24,9.6-9.32,16.66-9.32,16.66"/>
						<g>
							<path class="st47" d="M240.62,262.58c0.47,2.97,0.96,5.94,1.54,8.89c0.55,2.95,1.16,5.9,1.9,8.79
								c0.77,2.88,1.55,5.8,2.82,8.38c0.31,0.65,0.69,1.23,1.09,1.74c0.42,0.5,0.89,0.77,1.2,0.74c1.2-0.1,2.53-0.8,3.76-1.55
								c1.25-0.77,2.49-1.63,3.84-2.41c1.35-0.74,2.87-1.57,4.75-1.45c0.93,0.07,1.84,0.48,2.51,1.06c0.68,0.58,1.17,1.27,1.6,1.96
								c0.8,1.39,1.43,2.92,1.56,4.57c0.16,1.64-0.14,3.3-0.77,4.77c-0.63,1.48-1.53,2.8-2.56,3.96c-2.11,2.3-4.61,4.13-7.35,5.52
								c-0.18,0.09-0.4,0.02-0.49-0.16c-0.09-0.17-0.03-0.37,0.13-0.47l0.02-0.01c2.51-1.54,4.89-3.43,6.73-5.69
								c1.85-2.22,3.14-5,2.75-7.75c-0.16-1.36-0.72-2.67-1.43-3.89c-0.71-1.19-1.68-2.13-2.84-2.18c-1.17-0.09-2.49,0.54-3.73,1.26
								c-1.25,0.73-2.47,1.63-3.8,2.42c-1.34,0.77-2.74,1.6-4.57,1.76c-0.59,0.02-1.15-0.16-1.57-0.44
								c-0.19-0.14-0.41-0.28-0.58-0.44l-0.46-0.49c-0.53-0.67-0.96-1.37-1.3-2.09c-1.36-2.86-2.13-5.81-2.8-8.78
								c-1.31-5.94-2.15-11.93-2.67-17.96c-0.02-0.2,0.13-0.38,0.33-0.39C240.42,262.25,240.59,262.39,240.62,262.58L240.62,262.58z
								"/>
						</g>
						<g>
							<g>
								
									<ellipse transform="matrix(0.9287 -0.3708 0.3708 0.9287 -95.3734 94.3734)" class="st50" cx="197.76" cy="295.24" rx="38.26" ry="38.26"/>
								<g>
									<path class="st51" d="M198.84,339.49c-23.81,0-43.17-19.37-43.17-43.17c0-23.81,19.37-43.17,43.17-43.17
										c23.81,0,43.17,19.37,43.17,43.17C242.02,320.13,222.65,339.49,198.84,339.49z M198.84,260.3
										c-19.86,0-36.02,16.16-36.02,36.02c0,19.86,16.16,36.02,36.02,36.02c19.86,0,36.02-16.16,36.02-36.02
										C234.87,276.46,218.71,260.3,198.84,260.3z"/>
								</g>
							</g>
							<g class="st4">
								<path class="st5" d="M180.85,273.97c-1.25,3.23-2.49,6.3-3.52,9.3c-1.04,3-1.88,5.95-2.46,8.91
									c-0.58,2.96-0.86,5.93-0.85,9.01c0,3.09,0.37,6.25,0.77,9.78l0,0.03c0.06,0.52-0.31,0.99-0.83,1.05
									c-0.29,0.03-0.57-0.07-0.76-0.26c-2.66-2.58-4.52-5.97-5.53-9.65c-0.5-1.84-0.76-3.76-0.84-5.68
									c-0.06-1.92,0.12-3.84,0.46-5.73c0.7-3.77,2.21-7.31,4.27-10.4c2.1-3.08,4.66-5.77,8-7.6c0.45-0.25,1.02-0.08,1.27,0.37
									c0.14,0.25,0.15,0.54,0.05,0.78L180.85,273.97z"/>
							</g>
						</g>
						<g>
							<path class="st51" d="M238.2,289.53l-3.73-5.62c0.47-0.44,11.73-10.79,24.71-7.46l-1.27,6.99
								C247.67,280.82,238.29,289.44,238.2,289.53z"/>
						</g>
						<g>
							<path class="st39" d="M174.11,190.07l-0.83-0.33c5.99-14.87,16.74-27.81,30.27-36.42c13.53-8.61,29.81-12.88,45.81-12.01
								c8.13,0.44,13.69,2.37,17.5,6.07c2.6,2.53,4.14,6.38,4.01,10.05c-0.1,2.91-1.25,5.43-3.23,7.11l-0.58-0.68
								c1.79-1.51,2.82-3.81,2.91-6.46c0.12-3.43-1.32-7.02-3.74-9.38c-3.64-3.54-9.02-5.39-16.92-5.82
								c-15.82-0.85-31.91,3.36-45.28,11.87C190.66,162.58,180.03,175.37,174.11,190.07z"/>
						</g>
					</g>
				</g>
			</g>
			<g>
				<g>
					<path class="st52" d="M247.39,468.16L132.72,440.9l4.95-133.81c0,0,68.5,12.06,111.61,32.45
						C249.15,339.77,247.39,468.16,247.39,468.16z"/>
					<path class="st53" d="M247.26,470.2L124.7,442.31l5.29-133.79c0,0,73.21,12.44,119.29,33.07
						C249.14,341.83,247.26,470.2,247.26,470.2z"/>
					<path class="st5" d="M247.09,472.14l-122.56-27.89l-1.37-134c0,0,84.99,15.34,125.94,33.29
						C248.97,343.77,247.09,472.14,247.09,472.14z"/>
					<path class="st52" d="M251.49,468.18l115.52-25.75l-4.99-133.88c0,0-69.01,11.16-112.44,30.99
						C249.71,339.78,251.49,468.18,251.49,468.18z"/>
					<path class="st53" d="M251.62,470.23l123.47-26.29l-5.33-133.85c0,0-73.76,11.48-120.18,31.51
						C249.72,341.83,251.62,470.23,251.62,470.23z"/>
					<path class="st5" d="M251.79,472.17l123.47-26.29l1.38-133.98c0,0-85.62,14.23-126.88,31.64
						C249.89,343.77,251.79,472.17,251.79,472.17z"/>
					<g>
						<path class="st54" d="M235.77,482.92l-118.78-21.1c-3.82-0.68-6.92-4.53-6.92-8.6V324.5c0-4.07,3.1-6.82,6.92-6.14
							l118.78,21.11c3.82,0.68,6.92,4.53,6.92,8.6v128.72C242.68,480.85,239.59,483.6,235.77,482.92z"/>
						<path class="st17" d="M235.83,482.92L118.09,462c-3.79-0.67-6.85-4.49-6.85-8.53V325.89c0-4.04,3.07-6.76,6.85-6.09
							l117.74,20.92c3.79,0.67,6.85,4.49,6.85,8.53v127.59C242.68,480.87,239.61,483.6,235.83,482.92z"/>
					</g>
					<g>
						<path class="st54" d="M263.09,482.92l118.78-21.1c3.82-0.68,6.92-4.53,6.92-8.6V324.5c0-4.07-3.1-6.82-6.92-6.14
							l-118.78,21.11c-3.82,0.68-6.92,4.53-6.92,8.6v128.72C256.18,480.85,259.27,483.6,263.09,482.92z"/>
						<path class="st17" d="M263.03,482.92L380.77,462c3.79-0.67,6.85-4.49,6.85-8.53V325.89c0-4.04-3.07-6.76-6.85-6.09
							l-117.74,20.92c-3.79,0.67-6.85,4.49-6.85,8.53v127.59C256.18,480.87,259.25,483.6,263.03,482.92z"/>
					</g>
					<path class="st54" d="M258.89,484.22h-18c-2.01,0-3.65-1.63-3.65-3.65V344.31c0-2.01,1.63-3.65,3.65-3.65h18
						c2.01,0,3.65,1.63,3.65,3.65v136.27C262.54,482.58,260.9,484.22,258.89,484.22z"/>
				</g>
				<polygon class="st54" points="276.67,398.84 276.99,428.47 378.19,412.48 378.19,379.91 				"/>
				<polygon class="st54" points="290.71,434.18 290.94,444.03 363.58,432.75 363.58,421.89 				"/>
				<polygon class="st54" points="290.71,451.49 290.94,461.35 363.58,450.06 363.58,439.2 				"/>
				<path class="st41" d="M102.24,388.01c0,0-3.93,20.77,0.98,28.97c4.92,8.21,23.49,5.36,24.91,1.17
					c1.42-4.19-15.82-4.92-15.82-4.92s17.42,0.96,17.66-3.81c0.25-4.77-18.52-5.08-18.52-5.08s17.36-0.09,17.1-5.77
					c-0.25-5.68-18.72-3.65-18.72-3.65s20.66-1.3,18.92-5.31c-1.74-4-17.89-2.07-17.89-2.07s5.15-8.48,1.28-9.22
					C108.29,377.57,102.24,388.01,102.24,388.01z"/>
				<path class="st41" d="M398.07,388.01c0,0,3.93,20.77-0.98,28.97c-4.92,8.21-23.49,5.36-24.91,1.17
					c-1.42-4.19,15.82-4.92,15.82-4.92s-17.42,0.96-17.66-3.81c-0.25-4.77,18.52-5.08,18.52-5.08s-17.36-0.09-17.1-5.77
					c0.25-5.68,18.72-3.65,18.72-3.65s-20.66-1.3-18.92-5.31c1.74-4,17.89-2.07,17.89-2.07s-5.15-8.48-1.28-9.22
					C392.02,377.57,398.07,388.01,398.07,388.01z"/>
				<polygon class="st54" points="131.45,441.3 131.66,451.99 198.17,466.11 198.17,454.42 				"/>
				<g>
					<g>
						<g>
							<path class="st22" d="M304.76,385.98l-6.24,0.64c-1.6,0.17-3.07-0.88-3.44-2.44l-0.17-0.7c-0.34-1.41-1.58-2.42-3.03-2.46
								l-0.81-0.02c-1.5-0.04-2.83,0.97-3.19,2.43l-0.13,0.51c-0.39,1.57-1.89,2.6-3.5,2.41l-6.36-0.79c-2-0.25-3.27-2.26-2.65-4.17
								l9.15-28.01c0.42-1.29,1.61-2.17,2.96-2.21l9.46-0.24c1.48-0.04,2.8,0.95,3.18,2.39l7.52,28.66
								C308.02,383.89,306.71,385.78,304.76,385.98z M293.61,373.23l-1.27-6.6c-0.11-0.55-0.88-0.56-1.01-0.02l-1.56,6.53
								L293.61,373.23z"/>
						</g>
						<g>
							<path class="st23" d="M303.15,384.75l-6.24,0.64c-1.6,0.17-3.07-0.88-3.44-2.44l-0.17-0.7c-0.34-1.41-1.58-2.42-3.03-2.46
								l-0.81-0.02c-1.5-0.04-2.83,0.97-3.19,2.43l-0.13,0.51c-0.39,1.57-1.89,2.6-3.5,2.41l-6.36-0.79c-2-0.25-3.27-2.26-2.65-4.17
								l9.15-28.01c0.42-1.29,1.61-2.17,2.96-2.21l9.46-0.24c1.48-0.04,2.8,0.95,3.18,2.39l7.52,28.66
								C306.42,382.65,305.1,384.55,303.15,384.75z M292.01,372l-1.27-6.6c-0.1-0.55-0.88-0.56-1.01-0.02l-1.56,6.53L292.01,372z"/>
							<g class="st4">
								<path class="st5" d="M296.29,353.5c0.54,1.01,0.95,2.06,1.31,3.12c0.36,1.06,0.67,2.13,0.92,3.21
									c0.26,1.08,0.46,2.18,0.61,3.28c0.15,1.11,0.26,2.22,0.22,3.37c-0.55-1.01-0.95-2.06-1.31-3.12
									c-0.36-1.06-0.67-2.13-0.92-3.21c-0.26-1.08-0.46-2.18-0.61-3.28C296.36,355.76,296.26,354.64,296.29,353.5z"/>
							</g>
						</g>
					</g>
					<g>
						<g>
							<path class="st9" d="M343.5,366.5c0.28,1.3,0.29,2.46,0.02,3.5c-0.27,1.04-0.74,1.98-1.39,2.8c-0.65,0.83-1.45,1.56-2.4,2.2
								c-0.95,0.64-1.96,1.2-3.03,1.68c-1.07,0.48-2.17,0.88-3.28,1.21c-1.12,0.32-2.16,0.59-3.15,0.81
								c-0.97,0.21-1.98,0.39-3.03,0.55c-1.05,0.16-2.11,0.26-3.18,0.31c-1.07,0.05-2.13,0.04-3.19-0.03
								c-0.83-0.06-1.63-0.16-2.4-0.32c-0.41-0.08-0.72-0.41-0.81-0.82l-6.31-28.77c-0.09-0.43,0.08-0.88,0.45-1.12
								c0.62-0.4,1.28-0.79,1.97-1.17c0.92-0.5,1.87-0.96,2.85-1.38c0.98-0.42,1.97-0.79,2.96-1.11c0.99-0.32,1.96-0.59,2.92-0.79
								c1.11-0.24,2.24-0.42,3.41-0.52c1.16-0.11,2.3-0.11,3.42-0.01c1.12,0.1,2.19,0.31,3.2,0.64c1.02,0.33,1.95,0.8,2.8,1.41
								c0.85,0.62,1.57,1.39,2.17,2.32c0.6,0.93,1.05,2.06,1.34,3.39c0.19,0.88,0.24,1.72,0.16,2.54c-0.08,0.82-0.29,1.58-0.63,2.29
								c-0.34,0.71-0.79,1.35-1.37,1.93c-0.01,0.01-0.01,0.01-0.02,0.02c-0.59,0.58-0.39,1.58,0.41,1.81
								c0.19,0.05,0.39,0.12,0.58,0.18c0.95,0.33,1.79,0.8,2.54,1.41c0.75,0.61,1.38,1.34,1.9,2.19
								C342.9,364.51,343.27,365.45,343.5,366.5z M328.7,355.74c-0.1-0.45-0.28-0.82-0.53-1.1c-0.26-0.28-0.54-0.49-0.86-0.63
								c-0.32-0.14-0.65-0.23-0.99-0.25c-0.34-0.02-0.64-0.01-0.88,0.05c-0.31,0.07-0.61,0.18-0.88,0.34
								c-0.06,0.03-0.11,0.07-0.17,0.1c-0.38,0.23-0.57,0.68-0.49,1.12l0.64,3.38c0.12,0.64,0.77,1.03,1.39,0.82
								c0.05-0.02,0.1-0.03,0.14-0.05c0.52-0.18,1-0.43,1.44-0.74c0.45-0.32,0.8-0.72,1.05-1.21
								C328.81,357.07,328.85,356.46,328.7,355.74z M327.04,364.1c-0.11,0.02-0.21,0.05-0.32,0.08c-0.55,0.15-0.9,0.69-0.78,1.25
								l0.89,4.46c0.24,0,0.48-0.01,0.72-0.02c0.23-0.01,0.46-0.04,0.68-0.09c0.33-0.07,0.68-0.18,1.05-0.34
								c0.37-0.16,0.71-0.38,1.01-0.66c0.3-0.29,0.52-0.63,0.67-1.04c0.15-0.41,0.16-0.91,0.03-1.5c-0.13-0.59-0.35-1.05-0.66-1.38
								c-0.31-0.33-0.65-0.56-1.02-0.7c-0.37-0.14-0.76-0.2-1.17-0.19C327.73,363.99,327.36,364.03,327.04,364.1z"/>
						</g>
						<g>
							<path class="st7" d="M341.97,364.78c0.28,1.3,0.29,2.46,0.02,3.5c-0.27,1.04-0.74,1.98-1.39,2.8
								c-0.65,0.83-1.45,1.56-2.4,2.2c-0.95,0.64-1.96,1.2-3.03,1.68c-1.07,0.48-2.17,0.88-3.28,1.21
								c-1.12,0.32-2.16,0.59-3.15,0.81c-0.97,0.21-1.98,0.39-3.03,0.55c-1.05,0.16-2.11,0.26-3.18,0.31
								c-1.07,0.05-2.13,0.04-3.19-0.03c-0.83-0.06-1.63-0.16-2.4-0.32c-0.41-0.08-0.72-0.41-0.81-0.82l-6.31-28.77
								c-0.09-0.43,0.08-0.88,0.45-1.12c0.62-0.4,1.28-0.79,1.97-1.17c0.92-0.5,1.87-0.96,2.85-1.38c0.98-0.42,1.97-0.79,2.96-1.11
								c0.99-0.32,1.96-0.59,2.92-0.79c1.11-0.24,2.24-0.42,3.41-0.52c1.16-0.11,2.3-0.11,3.42-0.01c1.12,0.1,2.19,0.31,3.21,0.64
								c1.02,0.33,1.95,0.8,2.8,1.41c0.85,0.62,1.57,1.39,2.17,2.32c0.6,0.93,1.05,2.06,1.34,3.39c0.19,0.88,0.24,1.72,0.16,2.54
								c-0.08,0.82-0.29,1.58-0.63,2.29c-0.34,0.71-0.79,1.35-1.37,1.93c-0.01,0.01-0.01,0.01-0.02,0.02
								c-0.59,0.58-0.39,1.58,0.41,1.81c0.19,0.05,0.39,0.12,0.58,0.18c0.95,0.33,1.79,0.8,2.54,1.41c0.75,0.61,1.38,1.34,1.9,2.19
								C341.37,362.79,341.74,363.74,341.97,364.78z M327.17,354.03c-0.1-0.45-0.28-0.82-0.53-1.1c-0.26-0.28-0.54-0.49-0.86-0.63
								c-0.32-0.14-0.65-0.23-0.99-0.25c-0.34-0.02-0.64-0.01-0.88,0.05c-0.31,0.07-0.61,0.18-0.88,0.34
								c-0.06,0.03-0.11,0.07-0.17,0.1c-0.38,0.23-0.57,0.68-0.49,1.12l0.64,3.38c0.12,0.64,0.77,1.03,1.39,0.82
								c0.05-0.02,0.1-0.03,0.15-0.05c0.52-0.18,1-0.43,1.44-0.74c0.45-0.32,0.8-0.72,1.05-1.21
								C327.27,355.35,327.32,354.75,327.17,354.03z M325.5,362.39c-0.11,0.02-0.21,0.05-0.32,0.08c-0.55,0.15-0.9,0.69-0.78,1.25
								l0.89,4.46c0.24,0,0.48-0.01,0.72-0.02c0.23-0.01,0.46-0.04,0.68-0.09c0.33-0.07,0.68-0.18,1.05-0.34
								c0.37-0.16,0.71-0.38,1.01-0.66c0.3-0.29,0.52-0.63,0.67-1.04c0.15-0.41,0.16-0.91,0.03-1.5c-0.13-0.59-0.35-1.05-0.66-1.38
								c-0.31-0.33-0.65-0.56-1.02-0.7c-0.37-0.14-0.76-0.2-1.17-0.19C326.2,362.27,325.83,362.31,325.5,362.39z"/>
							<g class="st4">
								<path class="st5" d="M328.29,343.79c0.99-0.03,1.95,0.2,2.87,0.56c0.92,0.36,1.78,0.92,2.51,1.64
									c0.73,0.72,1.27,1.65,1.54,2.63c0.31,0.98,0.24,2.01,0.04,2.95c-0.02,0.08-0.1,0.13-0.18,0.11
									c-0.06-0.01-0.1-0.06-0.11-0.11l0-0.02c-0.2-0.93-0.34-1.81-0.73-2.59c-0.36-0.78-0.82-1.5-1.44-2.08
									c-1.21-1.21-2.82-2.06-4.53-2.8l-0.01,0c-0.08-0.03-0.11-0.12-0.08-0.2C328.18,343.82,328.24,343.79,328.29,343.79z"/>
							</g>
						</g>
					</g>
					<g>
						<g>
							<path class="st15" d="M373.49,342.95l-1.58,8.33c-0.11,0.56-0.65,0.94-1.21,0.83c-0.13-0.03-0.26-0.05-0.39-0.07
								c-0.47-0.08-0.94-0.12-1.41-0.15c-1.2-0.07-2.36,0.03-3.46,0.28c-1.11,0.26-2.1,0.69-2.97,1.29
								c-0.87,0.6-1.58,1.38-2.13,2.33c-0.55,0.95-0.86,2.08-0.93,3.39c-0.05,0.85,0.05,1.58,0.28,2.22
								c0.23,0.63,0.58,1.16,1.05,1.6c0.46,0.43,1.02,0.77,1.68,1c0.65,0.23,1.38,0.37,2.18,0.42c0.6,0.03,1.23,0,1.89-0.09
								c0.66-0.09,1.31-0.23,1.95-0.4c0.64-0.18,1.28-0.38,1.89-0.63c0.01,0,0.01,0,0.02-0.01c0.75-0.29,1.54,0.31,1.42,1.11
								l-1.27,8.95c-0.05,0.36-0.29,0.68-0.63,0.82c-0.49,0.19-1.01,0.37-1.56,0.52c-0.75,0.21-1.52,0.39-2.31,0.53
								c-0.79,0.14-1.58,0.24-2.36,0.3c-0.78,0.05-1.53,0.06-2.25,0.02c-2.06-0.12-3.97-0.6-5.71-1.47c-1.74-0.86-3.24-2-4.48-3.4
								c-1.24-1.4-2.19-3.03-2.84-4.89c-0.65-1.85-0.92-3.83-0.81-5.92c0.15-2.78,0.7-5.38,1.63-7.79c0.93-2.42,2.22-4.51,3.87-6.27
								c1.65-1.77,3.64-3.12,5.98-4.07c2.34-0.94,5-1.33,7.97-1.17c1.12,0.06,2.27,0.22,3.43,0.46c0.88,0.18,1.7,0.45,2.47,0.8
								C373.33,342,373.58,342.47,373.49,342.95z"/>
						</g>
						<g>
							<path class="st14" d="M372.43,341.33l-1.58,8.33c-0.11,0.56-0.65,0.94-1.21,0.83c-0.13-0.03-0.26-0.05-0.39-0.07
								c-0.47-0.08-0.94-0.12-1.41-0.15c-1.2-0.07-2.36,0.03-3.46,0.28c-1.11,0.26-2.1,0.69-2.97,1.29
								c-0.87,0.6-1.58,1.38-2.13,2.33c-0.55,0.95-0.86,2.08-0.93,3.39c-0.05,0.85,0.05,1.58,0.28,2.22
								c0.23,0.63,0.58,1.16,1.05,1.6c0.46,0.43,1.02,0.77,1.68,1c0.65,0.23,1.38,0.37,2.18,0.42c0.6,0.03,1.23,0,1.89-0.09
								c0.66-0.09,1.31-0.23,1.95-0.4c0.64-0.18,1.28-0.38,1.89-0.63c0.01,0,0.01,0,0.02-0.01c0.75-0.29,1.54,0.31,1.42,1.11
								l-1.27,8.95c-0.05,0.36-0.29,0.68-0.63,0.82c-0.49,0.19-1.01,0.37-1.56,0.52c-0.75,0.21-1.52,0.39-2.31,0.53
								c-0.79,0.14-1.58,0.24-2.36,0.3c-0.78,0.05-1.53,0.06-2.25,0.02c-2.06-0.11-3.97-0.6-5.71-1.47c-1.74-0.86-3.24-2-4.48-3.4
								c-1.24-1.4-2.19-3.03-2.84-4.89c-0.65-1.85-0.92-3.83-0.81-5.92c0.15-2.78,0.7-5.38,1.63-7.79c0.93-2.42,2.22-4.51,3.87-6.27
								c1.65-1.77,3.64-3.12,5.98-4.07c2.34-0.94,5-1.33,7.97-1.17c1.12,0.06,2.27,0.22,3.43,0.46c0.88,0.18,1.7,0.45,2.47,0.8
								C372.26,340.39,372.52,340.86,372.43,341.33z"/>
						</g>
						<g class="st4">
							<path class="st5" d="M349.91,351.38c0.46-2.71,1.96-5.22,4.07-7.05c1.06-0.91,2.26-1.67,3.58-2.13
								c1.29-0.53,2.68-0.7,4.03-0.74c0.08,0,0.14,0.06,0.15,0.14c0,0.07-0.04,0.12-0.1,0.14l-0.01,0c-1.28,0.4-2.53,0.78-3.67,1.39
								c-1.16,0.56-2.22,1.28-3.18,2.12c-0.97,0.83-1.83,1.79-2.6,2.83c-0.75,1.05-1.44,2.18-2,3.37l-0.01,0.01
								c-0.03,0.07-0.12,0.1-0.19,0.07C349.93,351.51,349.9,351.44,349.91,351.38z"/>
						</g>
					</g>
				</g>
			</g>
		</g>
	</g>
</g>
</svg>
