<?xml version="1.0" encoding="utf-8"?>
<!-- Generator: Adobe Illustrator 25.2.0, SVG Export Plug-In . SVG Version: 6.00 Build 0)  -->
<svg version="1.1" xmlns="http://www.w3.org/2000/svg" xmlns:xlink="http://www.w3.org/1999/xlink" x="0px" y="0px"
	 viewBox="0 0 500 500" style="enable-background:new 0 0 500 500;" xml:space="preserve">
<style type="text/css">
	.st0{fill:#7BBDC6;}
	.st1{fill:#FFFFFF;}
	.st2{fill:#4BA8AF;}
	.st3{fill:#62D1D3;}
	.st4{fill:#C8E895;}
	.st5{fill:#AECE6F;}
	.st6{fill:#95AF56;}
	.st7{opacity:0.1;fill:#2B2B5E;}
	.st8{opacity:0.46;fill:#65CCCE;}
	.st9{fill:#353B7C;}
	.st10{fill:#964B41;}
	.st11{fill:#F4BA8E;}
	.st12{opacity:0.54;fill:#F29E8F;}
	.st13{opacity:0.5;}
	.st14{fill:#282A33;}
	.st15{opacity:0.31;fill:#8AC6D1;}
	.st16{fill:#A85951;}
	.st17{fill:#2B3860;}
	.st18{opacity:0.26;fill:#F29E8F;}
	.st19{fill:#8E3636;}
	.st20{fill:#2F3E77;}
	.st21{fill:#A34646;}
	.st22{fill:#FFD685;}
	.st23{fill:#772929;}
	
		.st24{fill:none;stroke:#353B7C;stroke-width:2;stroke-linecap:round;stroke-linejoin:round;stroke-miterlimit:10;stroke-dasharray:0,5;}
	
		.st25{fill:none;stroke:#FFFFFF;stroke-width:2;stroke-linecap:round;stroke-linejoin:round;stroke-miterlimit:10;stroke-dasharray:0,5;}
	.st26{fill:#FFF188;}
	.st27{fill:#4B549B;}
	.st28{opacity:0.26;fill:#353B7C;}
	.st29{fill:#EF5E81;}
	.st30{fill:#F4ABAB;}
	.st31{fill:#C8E4E8;}
	.st32{fill:#EAB268;}
	.st33{fill:#F2CF81;}
	.st34{fill:#BA2F5D;}
</style>
<g id="BACKGROUND">
	<circle class="st0" cx="250.41" cy="250.13" r="226.41"/>
</g>
<g id="OBJECTS">
	<path class="st1" d="M313.48,323.45l122.72-1.91c0,0-22.31-0.96-28.05-9.24s-15.3-9.88-22.79-1.59c0,0-4.62-15.94-18.01-16.26
		c-13.39-0.32-18.17,16.89-18.17,16.89s-0.32-13.07-4.46-13.39c-4.14-0.32-5.42,9.24-5.42,9.24s1.27-31.87-16.89-30.6
		C304.23,277.87,313.48,323.45,313.48,323.45z"/>
	<g>
		<g>
			<path class="st2" d="M370.15,344.15c0,2.74-0.1,5.47-0.3,8.16c-1.55,21.7-9.25,41.68-21.38,58.23
				c-17.15,23.43-43.14,39.98-73.07,44.71c-5.78,0.93-11.72,1.41-17.76,1.41c-7.66,0-15.15-0.77-22.38-2.23
				c-7.85-1.58-15.41-3.98-22.58-7.12c-37.51-16.35-64.36-52.57-67.28-95.38c-0.18-2.57-0.27-5.17-0.27-7.78
				c0-9.99,1.3-19.67,3.74-28.89c0.01,0,0.01,0,0.01,0c10.3-38.95,40.99-69.61,79.95-79.89c9.2-2.44,18.85-3.73,28.81-3.73
				c5.28,0,10.47,0.36,15.55,1.06c3.03,0.42,6.03,0.96,8.97,1.62c11.7,2.59,22.71,7.02,32.72,12.95
				c20.85,12.34,37.37,31.23,46.74,53.84C367.12,314.36,370.15,328.9,370.15,344.15z"/>
			<g>
				<path class="st3" d="M321.03,361.25c-4.04,2.44-8.66,2.83-12.86,0.45c-0.04-0.02-0.06,0.03-0.03,0.05
					c3.94,2.62,9.24,2.78,13.09-0.17C321.42,361.44,321.26,361.12,321.03,361.25z"/>
				<path class="st3" d="M322.87,363.07c-0.88,0.42-1.68,0.99-2.56,1.43c-0.98,0.49-2.01,0.81-3.01,1.24
					c-0.07,0.03-0.07,0.14,0.02,0.14c1.97-0.06,4.47-0.96,5.9-2.35C323.47,363.28,323.16,362.94,322.87,363.07z"/>
				<path class="st3" d="M309.98,315.77c-3.71,0.73-6.81,0.57-10.29-1c-0.29-0.13-0.66,0.24-0.37,0.48
					c2.96,2.52,7.55,3.2,11.01,1.35C310.8,316.35,310.46,315.68,309.98,315.77z"/>
				<path class="st3" d="M311.55,318.82c-0.57,0.25-1.05,0.58-1.66,0.77c-0.15,0.05-0.09,0.28,0.07,0.24
					c0.6-0.14,1.3-0.36,1.76-0.79C311.85,318.92,311.69,318.75,311.55,318.82z"/>
				<path class="st3" d="M263.49,327.16c-0.44-1.1-1.08-2.05-1.37-3.23c-0.31-1.28-0.25-2.51-0.19-3.8c0.01-0.2-0.29-0.28-0.38-0.1
					c-1.16,2.19-0.82,5.93,1.19,7.57C263.05,327.84,263.68,327.62,263.49,327.16z"/>
				<path class="st3" d="M245.05,298.05c-2.09-1.65-4.68-2.67-6.89-4.16c-2.54-1.71-4.3-4.16-6.27-6.46
					c-0.16-0.19-0.48,0.06-0.34,0.26c3.11,4.85,7.18,9.58,13.06,11.13C245.01,298.93,245.43,298.35,245.05,298.05z"/>
				<path class="st3" d="M247.38,298.6c-0.79,0-0.8,1.23,0,1.23C248.18,299.83,248.18,298.6,247.38,298.6z"/>
				<path class="st3" d="M205.94,359c-2.49,1.44-4.66,3.16-7.38,4.21c-2.4,0.93-4.92,1.33-7.41,1.93c-0.05,0.01-0.03,0.07,0.01,0.08
					c5.08,0.66,11.85-1.72,15.24-5.62C206.68,359.28,206.33,358.77,205.94,359z"/>
				<path class="st3" d="M207.79,355.64c-0.73,0-0.74,1.14,0,1.14C208.53,356.78,208.53,355.64,207.79,355.64z"/>
				<path class="st3" d="M177.14,357.45c-1.87-2.22-5.02-4.12-7.87-4.63c-0.39-0.07-0.66,0.45-0.28,0.67c1.3,0.75,2.69,1.3,4,2.03
					c1.31,0.73,2.52,1.61,3.83,2.34C177.09,358.02,177.33,357.68,177.14,357.45z"/>
				<path class="st3" d="M275.71,439.59c-3.51,1.14-5.01,7.23-5.24,10.4c-0.04,0.5,0.74,0.71,0.96,0.26
					c0.83-1.72,1.09-3.67,1.68-5.49c0.62-1.92,1.62-3.32,2.78-4.94C275.97,439.71,275.84,439.55,275.71,439.59z"/>
				<path class="st3" d="M278.19,437.18c-0.86,0-0.87,1.34,0,1.34C279.06,438.53,279.06,437.18,278.19,437.18z"/>
				<path class="st3" d="M328.06,397.96c-3.96-1.42-10.14-1.16-13.6,1.43c-0.15,0.11-0.07,0.4,0.14,0.33
					c2.16-0.79,4.2-1.36,6.52-1.42c2.3-0.06,4.57,0.58,6.84,0.39C328.39,398.66,328.47,398.11,328.06,397.96z"/>
				<path class="st3" d="M331.03,397.48c-0.64,0-0.64,1,0,1C331.67,398.48,331.67,397.48,331.03,397.48z"/>
			</g>
		</g>
		<g>
			<g>
				<path class="st4" d="M329.18,289.68c-0.02,7.58-3.49,15.08-9.25,20.02c-3.15,2.69-7.15,4.68-11.3,4.46
					c-2.8-0.15-5.48-1.31-7.79-2.92c-0.67-0.47-1.45-1.02-2.25-0.78c-0.54,0.17-0.9,0.65-1.25,1.1c-4.05,5.26-10.6,8.51-17.25,8.54
					c-0.14,3.2-1.92,6.37-4.76,7.82c-2.85,1.45-6.7,0.91-8.76-1.54c-2.35-2.78-1.85-6.47-1.4-10.26c0-0.01,0.01-0.02,0.01-0.03
					c0.33-2.61,0.63-5.26-0.03-7.69c-1.06-3.87-4.49-6.66-8.09-8.42c-3.61-1.77-7.56-2.78-11.1-4.69c-4.17-2.23-7.63-5.6-10.62-9.27
					c-6.54-8.02-11.15-17.84-11.87-28.16c-0.56-7.76,1.23-15.78,5.36-22.4c1.1-0.29,2.2-0.57,3.31-0.82
					c8.2-1.91,16.73-2.91,25.5-2.91c20.9,0,40.47,5.69,57.24,15.63c-1.52,5.1-4.14,10.23-2.02,14.95c1.42,3.13,4.59,5.03,7.19,7.28
					C325.78,274.56,329.21,282.08,329.18,289.68z"/>
				<path class="st5" d="M265.18,316.09c0.33-2.61,0.63-5.26-0.03-7.69c-1.06-3.87-4.49-6.66-8.09-8.42
					c-3.61-1.77-7.56-2.78-11.1-4.69c-4.17-2.23-7.63-5.6-10.62-9.27c-6.54-8.02-11.15-17.84-11.87-28.16
					c-0.56-7.76,1.23-15.78,5.36-22.4c1.1-0.29,2.2-0.57,3.31-0.82c-3.9,7.12-9.31,21.22-2.92,36.87
					c8.99,22.03,28.77,21.98,33.96,27.8C268.14,304.85,265.44,315.14,265.18,316.09z"/>
			</g>
			<g>
				<path class="st4" d="M370.15,344.15c0,2.1-0.06,4.2-0.18,6.28c-0.03,0.63-0.07,1.25-0.12,1.88c-1.61,0.12-3.24,0.04-4.85-0.25
					c-3.57-0.66-6.9-2.29-10.38-3.28c-3.49-1.01-7.44-1.35-10.6,0.44c-4.52,2.55-6.49,8.88-11.52,10.12
					c-3.39,0.84-6.88-1-10.36-0.84c-3.63,0.18-7.05,2.54-10.63,1.94c-0.23-0.04-0.48-0.1-0.65-0.27c-0.38-0.34-0.26-0.97-0.03-1.43
					l0.01-0.01c1.04-2.23,3.62-3.64,6.06-3.28c1.22-5.64,4.8-10.73,9.7-13.77c3.01-1.87,6.57-3.05,8.82-5.79
					c2.35-2.85,2.76-6.77,3.08-10.46c0.25-2.77,0.5-5.55,0.74-8.32c0.5-5.64,1.35-11.94,5.82-15.39c2.82-2.15,6.61-2.72,10.13-2.27
					c2.2,0.27,4.34,0.9,6.43,1.66C367.12,314.36,370.15,328.9,370.15,344.15z"/>
				<path class="st5" d="M369.97,350.43c-0.03,0.63-0.07,1.25-0.12,1.88c-1.61,0.12-3.24,0.04-4.85-0.25
					c-3.57-0.66-6.9-2.29-10.38-3.28c-3.49-1.01-7.44-1.35-10.6,0.44c-4.52,2.55-6.49,8.88-11.52,10.12
					c-3.39,0.84-6.88-1-10.36-0.84c-3.63,0.18-7.05,2.54-10.63,1.94c-0.23-0.04-0.48-0.1-0.65-0.27c-0.38-0.34-0.26-0.97-0.03-1.43
					l0.01-0.01c0.93,0.58,2.7,0.98,5.87-0.27c5.62-2.22,10.79,0.82,14.78,0.04c3.99-0.78,7.68-11.72,17.88-12.16
					C356.68,346.02,364.15,349.21,369.97,350.43z"/>
			</g>
			<g>
				<path class="st4" d="M348.47,410.54c-16.46,22.49-41.06,38.64-69.48,44.07c-1.19,0.24-2.39,0.45-3.59,0.64
					c-0.05-0.32-0.09-0.63-0.12-0.95c-0.67-6.88,2.33-14.02,7.72-18.35c3.33-2.68,7.61-4.48,9.7-8.21
					c2.94-5.23-0.06-12.28-5.14-15.49c-3.01-1.91-7.04-3.31-7.81-6.78c-0.46-2.07,0.48-3.93,2.05-5.36
					c1.53-1.38,3.65-2.34,5.68-2.66c5.35-0.85,11.03,0.71,15.19,4.18c2.04,1.69,4.08,3.96,6.72,3.81c1.72-0.1,3.18-1.23,4.67-2.09
					c6.18-3.6,13.93-2.92,20.9-1.31C340.98,403.42,345.45,406.5,348.47,410.54z"/>
				<path class="st5" d="M295.84,428.55c-2.44,7.44-12.3,10.26-15.1,17.57c-1.03,2.71-0.95,5.72-1.75,8.49
					c-1.19,0.24-2.39,0.45-3.59,0.64c-0.05-0.32-0.09-0.63-0.12-0.95c-0.67-6.88,2.33-14.02,7.72-18.35
					c3.33-2.68,7.61-4.48,9.7-8.21c2.94-5.23-0.06-12.28-5.14-15.49c-3.01-1.91-7.04-3.31-7.81-6.78c-0.46-2.07,0.48-3.93,2.05-5.36
					c-0.15,0.59-0.18,1.21-0.1,1.81c0.36,2.56,2.28,4.63,4.36,6.18c2.07,1.56,4.4,2.8,6.2,4.66c2.59,2.69,3.84,6.46,4.12,10.18
					C296.52,424.83,296.43,426.76,295.84,428.55z"/>
			</g>
			<g>
				<path class="st4" d="M189.95,361.25c-5.09-0.63-9.02-4.47-13.05-7.28c-4.39-3.1-8.94-4.39-14.28-3.81
					c-5.72,0.62-11.42,2.73-17.22,1.77c-0.04-0.59-0.08-1.17-0.11-1.76c-0.11-2-0.16-4.01-0.16-6.02c0-9.99,1.3-19.67,3.74-28.89
					c0.01,0,0.01,0,0.01,0c2.94-1.54,6.04-2.75,9.72-3.35c1.64-0.26,3.31-0.41,4.94-0.18c4.91,0.72,8.57,4.75,11.69,8.6
					c0.88-0.92,2.13-1.46,3.4-1.6c3.9-0.42,7.33,2.64,9.38,5.98c2.05,3.34,3.33,7.19,5.95,10.1c0.87,0.97,1.82,1.84,2.78,2.67
					c2.68,2.34,5.5,4.41,7.24,7.82C209.09,355.36,199.69,362.46,189.95,361.25z"/>
				<path class="st5" d="M189.95,361.25c-5.09-0.63-9.02-4.47-13.05-7.28c-4.39-3.1-8.94-4.39-14.28-3.81
					c-5.72,0.62-11.42,2.73-17.22,1.77c-0.04-0.59-0.08-1.17-0.11-1.76c1.36-0.07,2.74-0.07,4.07-0.27c2.9-0.43,5.72-1.22,8.59-1.79
					c3.15-0.63,6.4-1.04,9.58-0.4c3.64,0.73,6.86,2.74,10.09,4.55c2.3,1.29,4.64,2.49,7.03,3.6c2.65,1.24,5.4,2.38,8.32,2.61
					c2.91,0.24,6.03-0.56,8.02-2.7c2.41-2.6,2.65-6.66,1.47-9.99c-1.14-3.19-3.38-5.85-5.72-8.3c2.68,2.34,5.5,4.41,7.24,7.82
					C209.09,355.36,199.69,362.46,189.95,361.25z"/>
			</g>
			<g>
				<path class="st6" d="M241.11,267.63c-0.19-0.88-0.31-1.77-0.4-2.67c-0.04-0.46-0.76-0.46-0.72,0c0.13,1.52,0.19,3.63,1.07,4.92
					c0.13,0.19,0.43,0.12,0.44-0.12C241.53,269.04,241.26,268.34,241.11,267.63z"/>
				<path class="st6" d="M242.96,266.27c-0.02-0.32-0.48-0.32-0.5,0c-0.05,0.7-0.28,1.6-0.07,2.28c0.1,0.32,0.55,0.32,0.65,0
					C243.24,267.87,243.01,266.97,242.96,266.27z"/>
				<path class="st6" d="M244,267.64c-0.18,0.64-0.57,1.42-0.42,2.08c0.08,0.37,0.57,0.38,0.76,0.1c0.36-0.55,0.26-1.46,0.31-2.09
					C244.68,267.35,244.1,267.29,244,267.64z"/>
				<path class="st6" d="M299.83,284.44c-0.14-0.41-0.25-0.83-0.31-1.26c-0.04-0.34-0.52-0.36-0.55,0
					c-0.05,0.77-0.06,2.06,0.57,2.61c0.23,0.2,0.67,0.08,0.65-0.27C300.19,285.12,299.96,284.81,299.83,284.44z"/>
				<path class="st6" d="M302.3,283.61c-0.03-0.35-0.52-0.35-0.55,0c-0.07,0.78-0.45,1.93-0.01,2.64c0.13,0.21,0.44,0.21,0.57,0
					C302.75,285.55,302.37,284.39,302.3,283.61z"/>
				<path class="st6" d="M305.21,283.39c-0.1-0.33-0.62-0.28-0.61,0.08c0.02,0.56-0.02,1.09-0.15,1.64
					c-0.11,0.47-0.33,0.94-0.32,1.43c0.01,0.36,0.43,0.52,0.69,0.29C305.68,286.04,305.51,284.39,305.21,283.39z"/>
				<path class="st6" d="M282.63,261.17c0-0.36-0.56-0.36-0.56,0c0,0.63-0.09,1.34,0.05,1.96c0.05,0.23,0.41,0.23,0.47,0
					C282.73,262.51,282.64,261.8,282.63,261.17z"/>
				<path class="st6" d="M284.62,261.26l-0.35,1.4c-0.11,0.42-0.26,0.85-0.26,1.28c0,0.24,0.37,0.37,0.48,0.13
					c0.37-0.79,0.41-1.84,0.57-2.69C285.11,261.1,284.69,260.97,284.62,261.26z"/>
				<path class="st6" d="M279.34,297.75c-0.05-0.42-0.66-0.44-0.67,0c-0.02,1.13-0.21,2.43,0.27,3.49c0.11,0.23,0.43,0.14,0.5-0.07
					C279.81,300.1,279.47,298.84,279.34,297.75z"/>
				<path class="st6" d="M281.32,298.25c-0.33,1.08-0.89,2.29-0.75,3.44c0.04,0.32,0.43,0.47,0.63,0.17
					c0.63-0.98,0.65-2.3,0.82-3.42C282.08,297.99,281.46,297.79,281.32,298.25z"/>
				<path class="st6" d="M282.87,299.88c-0.43,0.92-1.08,1.94-1.13,2.98c-0.01,0.28,0.37,0.44,0.56,0.23
					c0.7-0.77,0.95-1.95,1.29-2.9C283.75,299.76,283.07,299.47,282.87,299.88z"/>
				<path class="st6" d="M160.37,332.54c-0.07-0.26-0.44-0.15-0.39,0.11c0.18,1.04,0.25,2.13,0.74,3.07
					c0.09,0.16,0.33,0.08,0.33-0.09C161.08,334.56,160.67,333.55,160.37,332.54z"/>
				<path class="st6" d="M162.82,334.15c-0.06-0.46-0.17-0.9-0.28-1.35c-0.07-0.29-0.57-0.24-0.54,0.07
					c0.04,0.44,0.04,0.89,0.02,1.33c-0.01,0.19-0.03,0.38-0.04,0.57c-0.01,0.26,0.05,0.41,0.1,0.66c0.08,0.35,0.54,0.29,0.65,0
					c0.1-0.28,0.16-0.37,0.16-0.66C162.88,334.57,162.85,334.35,162.82,334.15z"/>
				<path class="st6" d="M164.46,333.89c-0.04-0.38-0.56-0.38-0.59,0c-0.02,0.19-0.06,0.4-0.06,0.6c0,0.18,0.07,0.32,0.1,0.5
					c0.05,0.25,0.46,0.25,0.51,0c0.03-0.18,0.09-0.32,0.1-0.5C164.52,334.29,164.48,334.08,164.46,333.89z"/>
				<path class="st6" d="M166.07,318.84c-0.03-0.47-0.07-0.94-0.1-1.41c-0.02-0.27-0.4-0.27-0.42,0c-0.03,0.47-0.07,0.94-0.1,1.41
					c-0.03,0.45-0.09,0.85,0.07,1.28c0.09,0.24,0.39,0.24,0.48,0C166.17,319.68,166.11,319.29,166.07,318.84z"/>
				<path class="st6" d="M166.94,319.3c-0.2,0.46-0.52,0.96-0.51,1.47c0.01,0.37,0.44,0.43,0.64,0.17c0.29-0.38,0.33-0.95,0.44-1.4
					C167.59,319.21,167.08,318.96,166.94,319.3z"/>
				<path class="st6" d="M180.92,337.31c-0.07-0.34-0.63-0.27-0.61,0.08c0.02,0.47,0,0.94-0.08,1.41c-0.07,0.4-0.2,0.81-0.16,1.22
					c0.02,0.25,0.34,0.44,0.53,0.22C181.26,339.48,181.12,338.22,180.92,337.31z"/>
				<path class="st6" d="M181.93,339.06c-0.16,0.49-0.39,1.03-0.35,1.55c0.02,0.26,0.36,0.38,0.51,0.14
					c0.27-0.46,0.3-1.03,0.38-1.54C182.53,338.85,182.04,338.7,181.93,339.06z"/>
				<path class="st6" d="M302.36,412.46c-0.14-0.63-0.21-1.27-0.23-1.91c-0.01-0.34-0.51-0.34-0.53,0
					c-0.07,1.08-0.19,2.72,0.51,3.63c0.17,0.22,0.52,0.16,0.54-0.15C302.68,413.49,302.48,412.98,302.36,412.46z"/>
				<path class="st6" d="M303.78,411.63c-0.29,0.75-0.77,1.83-0.44,2.63c0.09,0.21,0.38,0.29,0.51,0.07
					c0.21-0.35,0.24-0.72,0.28-1.13c0.05-0.48,0.14-0.94,0.25-1.4C304.48,411.4,303.92,411.27,303.78,411.63z"/>
				<path class="st6" d="M305.39,412.47c-0.19,0.48-0.42,0.93-0.66,1.39c-0.21,0.4-0.44,0.72-0.3,1.19
					c0.05,0.16,0.21,0.25,0.37,0.21c0.51-0.13,0.68-0.57,0.86-1.03c0.21-0.5,0.35-1.03,0.48-1.55
					C306.27,412.18,305.57,412.01,305.39,412.47z"/>
				<path class="st6" d="M305.77,433.45c-0.17-0.57-0.37-1.14-0.57-1.7c-0.11-0.32-0.56-0.19-0.5,0.14c0.1,0.59,0.21,1.18,0.34,1.76
					c0.12,0.53,0.18,1.09,0.44,1.56c0.17,0.31,0.67,0.17,0.67-0.18C306.16,434.49,305.93,433.96,305.77,433.45z"/>
				<path class="st6" d="M308.47,433.93c-0.05-0.46-0.09-0.91-0.08-1.38c0.01-0.41-0.67-0.53-0.74-0.1
					c-0.12,0.74-0.43,2.21,0.31,2.71c0.15,0.1,0.33,0.02,0.43-0.11C308.62,434.72,308.51,434.31,308.47,433.93z"/>
				<path class="st6" d="M310.29,432.75c-0.16,0.9-0.67,1.85-0.46,2.77c0.03,0.12,0.19,0.2,0.3,0.12c0.83-0.63,0.83-1.83,0.88-2.79
					C311.03,432.44,310.37,432.34,310.29,432.75z"/>
				<path class="st6" d="M335.8,342.71c-0.11-0.33-0.69-0.3-0.64,0.09c0.1,0.84,0.05,1.87,0.59,2.56c0.16,0.21,0.52,0.08,0.57-0.15
					C336.52,344.38,336.05,343.48,335.8,342.71z"/>
				<path class="st6" d="M338.13,342.87c-0.12,0.49-0.24,0.98-0.35,1.47c-0.1,0.47-0.1,0.78,0,1.25c0.03,0.16,0.28,0.19,0.36,0.05
					c0.22-0.43,0.31-0.72,0.33-1.2c0.03-0.5,0.04-1.01,0.05-1.51C338.54,342.7,338.19,342.65,338.13,342.87z"/>
				<path class="st6" d="M340.92,342.41c-0.08-0.38-0.63-0.21-0.57,0.16c0.09,0.56-0.22,0.96-0.31,1.48
					c-0.02,0.13,0.09,0.32,0.25,0.25C341,344.01,341.06,343.08,340.92,342.41z"/>
				<path class="st6" d="M352.21,323.54c-0.05-0.38-0.63-0.4-0.61,0c0.03,0.82,0.01,1.62,0.26,2.41c0.09,0.29,0.46,0.2,0.49-0.07
					C352.45,325.09,352.31,324.33,352.21,323.54z"/>
				<path class="st6" d="M354.47,324.62c-0.14,0.52-0.49,1.23-0.3,1.76c0.07,0.2,0.32,0.29,0.48,0.13c0.41-0.39,0.41-1.16,0.51-1.69
					C355.25,324.37,354.59,324.17,354.47,324.62z"/>
			</g>
		</g>
		<path class="st7" d="M370.46,344.15c0,2.74-0.1,5.47-0.3,8.16c-1.55,21.7-9.25,41.68-21.38,58.23
			c-17.15,23.43-43.14,39.98-73.07,44.71c-5.78,0.93-11.72,1.41-17.76,1.41c-7.66,0-15.15-0.77-22.38-2.23
			c55.61-10.46,97.68-59.28,97.68-117.93c0-44.32-24.02-83.02-59.75-103.8c15.05,2.08,29.15,7.14,41.69,14.57
			c20.85,12.34,37.37,31.23,46.74,53.84C367.43,314.36,370.46,328.9,370.46,344.15z"/>
		<path class="st8" d="M155.59,348.22c0,42.32,22.95,79.27,57.09,99.09c-37.51-16.35-64.36-52.57-67.28-95.38
			c-0.18-2.57-0.27-5.17-0.27-7.78c0-9.99,1.3-19.67,3.74-28.89c0.01,0,0.01,0,0.01,0c10.3-38.95,40.99-69.61,79.95-79.89
			c9.2-2.44,18.85-3.73,28.81-3.73c5.28,0,10.47,0.36,15.55,1.06c3.03,0.42,6.03,0.96,8.97,1.62c-3.96-0.41-7.98-0.62-12.05-0.62
			C206.86,233.7,155.59,284.97,155.59,348.22z"/>
		<g>
			<g>
				<g>
					<circle class="st9" cx="237.45" cy="338.37" r="5.77"/>
					<circle class="st9" cx="279.47" cy="338.37" r="5.77"/>
				</g>
				<path class="st9" d="M251.15,338.93c0.81,1.52,1.84,2.87,3.05,3.93c0.63,0.5,1.29,0.94,2.01,1.23c0.73,0.25,1.48,0.46,2.26,0.43
					c0.39,0.05,0.76-0.05,1.15-0.06c0.36-0.11,0.75-0.15,1.08-0.32c0.71-0.26,1.32-0.73,1.84-1.32c1.02-1.19,1.7-2.78,2.09-4.45
					c0.11,1.71-0.22,3.55-1.28,5.08c-1.02,1.58-3.05,2.47-4.89,2.38c-0.94,0-1.86-0.25-2.73-0.6c-0.84-0.42-1.6-0.96-2.22-1.63
					C252.26,342.27,251.48,340.62,251.15,338.93z"/>
			</g>
			<path class="st7" d="M239.94,349.4c0,1.91-1.55,3.46-3.46,3.46s-3.46-1.55-3.46-3.46s1.55-3.46,3.46-3.46
				S239.94,347.49,239.94,349.4z"/>
			<path class="st7" d="M282.05,349.4c0,1.91-1.55,3.46-3.46,3.46c-1.91,0-3.46-1.55-3.46-3.46s1.55-3.46,3.46-3.46
				C280.5,345.94,282.05,347.49,282.05,349.4z"/>
		</g>
	</g>
	<g>
		<g>
			<g>
				<path class="st10" d="M284.63,101.27c-1.21,3.04-3.81,6.63-8.5,10.81c-0.8,0.72-1.69,1.46-2.62,2.23
					c-0.04,0.04-0.09,0.08-0.14,0.12l-0.01,0.01c-24.99,20.11-82.87,16.81-82.87,16.81s-1.76,0.97-4.33,1.76
					c-4.54,1.38-11.64,2.15-16.02-4.23c-6.86-9.97,4.04-17.78,4.04-17.78s-4.98-7.78,4.21-14.49c-1.04,0.75-6.16-2.48-6.94-3.07
					c-4.41-3.31-3.33-9.14,0.66-12.35c2.12-1.7,4.87-2.42,7.55-2.62c3.96-0.3,7.92,0.53,11.88,0.24c1.86-0.14,5.58-0.09,7.34-0.58
					c-2.95-2.75-4.73-5.78-5.16-9.4c-0.42-3.49,0.63-7.35,3.44-9.48c0.46,3.03,0.7,6.07,1.07,9.1c0.21,1.74,0.22,3.5,0.55,5.23
					c0.13,0.66,0.55,3.89,1.05,4.39c1.24-3.42,5.52-14.16,7.6-19.53c0.79,3.02,1.21,6.15,0.84,9.25c-0.37,3.08-2.19,6.36-4.37,8.57
					c0.09-0.09,3.7,0.12,5.47-0.04c2.17-0.2,3.82-0.67,5.22-1.28c3.21-1.41,5.32-3.77,7.85-6.19c4.27-4.08,8.03-8.93,13.26-11.87
					c4.35-2.44,9.17-4.1,14.08-4.91c9.64-1.59,20.53,0.5,25.51,9.77c3.21,6.01,3.45,13.18,2.65,19.95c-0.22,1.82-0.51,3.6-0.84,5.32
					C277.08,87,288.74,91.01,284.63,101.27z"/>
				<path class="st10" d="M203.89,79.5c0,0,10.02,0.05,20.19-13.67c10.18-13.72,34.72-24.15,44.34-7.96c0,0-4.51-18-25.46-10.18
					c-20.94,7.82-22.51,27.69-39.69,28.7L203.89,79.5z"/>
				<path class="st10" d="M174.95,110.73c-0.77,0.27-15.71,5.99-4.42,18.6c0,0-9.19-7.19-4.8-13.67
					C169.86,109.56,174.95,110.73,174.95,110.73z"/>
			</g>
			<g>
				<g>
					<path class="st11" d="M197.13,160.7c-24.29,5.41-31.69-10.12-29.41-18.66c0.43-1.7,1.28-3.13,2.44-4.06
						c5.47-4.36,13.67-1.08,17,0.58c0.94,0.46,1.49,0.79,1.49,0.79L197.13,160.7z"/>
					<path class="st12" d="M193.58,157.22h-2.46c0,0-6.56-18.18-22.81-15.28c-0.2,0.04-0.4,0.07-0.58,0.09
						c0.43-1.7,1.28-3.13,2.44-4.06c5.47-4.36,13.67-1.08,17,0.58L193.58,157.22z"/>
					<g>
						<path class="st10" d="M173.33,141.97c1.94-0.14,3.92,0.23,5.75,0.93c1.85,0.69,3.58,1.7,5.11,2.96
							c1.48,1.3,2.86,2.75,3.88,4.43c0.58,0.79,0.95,1.71,1.41,2.57c0.37,0.9,0.71,1.82,1,2.73c-0.57-0.8-1.01-1.64-1.56-2.42
							c-0.58-0.76-1.05-1.58-1.68-2.28c-0.3-0.36-0.6-0.72-0.89-1.09c-0.31-0.35-0.64-0.68-0.96-1.02
							c-0.61-0.71-1.34-1.29-2.03-1.91c-1.42-1.2-3-2.19-4.67-3.03C177,143.03,175.22,142.35,173.33,141.97z"/>
						<path class="st10" d="M174.95,150.69l12.53-1.29C187.48,149.39,181.86,145.6,174.95,150.69z"/>
					</g>
				</g>
				<path class="st11" d="M274.91,171.06c-2.3,2.66-4.14,3.89-4.14,3.89s-25.21,22.6-59.02,2c-16.95-10.33-23.39-28.44-25.61-43.94
					c-2.2-15.45-0.21-28.31-0.21-28.31C197,82.57,226.28,81.05,244.59,82.5c9.17,0.72,15.58,2.2,15.58,2.2
					c6.41,9.11,11.27,17.44,14.86,25c0.4,0.8,0.75,1.59,1.11,2.38c3.86,8.56,6.07,16.12,7.14,22.76
					C286.36,154.15,279.64,165.62,274.91,171.06z"/>
				<path class="st11" d="M283.27,134.84c-0.76,0.5-1.57,0.91-2.37,1.21c-0.71,0.26-1.34,0.38-1.92,0.4
					c-6.95,0.12-6.14-16.2-5.62-22.01c0.01-0.14,0.03-0.28,0.04-0.4c0.09-1.03,0.17-1.63,0.17-1.63c0-0.13,0.53-1.24,1.46-2.71
					c1.86-2.96,5.37-7.42,9.6-8.43c1.91-0.47,3.96-0.24,6.09,1.15C299.2,107.97,292.84,128.63,283.27,134.84z"/>
				<g>
					<path class="st10" d="M280.9,127.17c-0.86-1.97-1.43-4.08-1.7-6.23c-0.28-2.15-0.27-4.37,0.19-6.55
						c0.46-2.16,1.45-4.29,3.04-5.89c1.57-1.62,3.69-2.55,5.79-2.91c-1.97,0.86-3.74,2.03-5.03,3.6c-1.29,1.57-2.11,3.47-2.52,5.47
						c-0.45,2-0.52,4.09-0.46,6.19C280.31,122.94,280.52,125.06,280.9,127.17z"/>
					<path class="st10" d="M279.79,121.24c0,0,10.59-6.84,10.64-6.91C290.47,114.26,281.99,111.4,279.79,121.24z"/>
				</g>
				<path class="st12" d="M290.72,102.42c-2.12-1.38-4.18-1.62-6.09-1.15c-0.9,0.22-1.76,0.59-2.59,1.07
					c1.55-5.33-2.55-10.15-7.43-12.04c-0.04-0.02-0.07,0.06-0.03,0.08c5.1,2.24,8.11,7.01,6.59,12.53c-2.66,1.84-4.82,4.69-6.14,6.8
					c-3.58-7.56-8.44-15.88-14.86-25c0,0-6.41-1.48-15.58-2.2l-15.63,6.8l-6.72,12.61c0,0,8.96,3.46,14.54-0.84
					c0,0,16.99,12.71,28.65-0.67c0,0,4.23,5.32,7.97,13.66c0.04,0.09,0.08,0.17,0.12,0.26c2.71,6.1,5.15,13.78,5.47,22.14
					c0.4,10.21-2.34,21.43-11.55,32.05c-10.97,12.66-4.33,10.1,7.48,2.57c4.73-5.44,11.45-16.91,8.36-36.22
					C292.84,128.63,299.2,107.97,290.72,102.42z"/>
			</g>
			<g>
				<path class="st10" d="M258.8,107.03c-0.58,0.75-1.41,1.3-2.32,1.54c-0.62,0.16-1.28,0.18-1.92,0.14
					c-1.28-0.07-2.54-0.34-3.73-0.83c-0.18-0.07-0.36-0.13-0.54-0.22c-0.41-0.18-0.8-0.38-1.17-0.62c-0.14-0.08-0.29-0.17-0.43-0.26
					c-0.61-0.4-1.17-0.84-1.69-1.34c-0.49-0.47-0.97-1.07-0.96-1.75c0.03-1.03,1.12-1.67,2.09-2c1.4-0.46,2.88-0.66,4.37-0.62
					c0.37,0,0.75,0.01,1.12,0.05c0.7,0.07,1.41,0.17,2.08,0.33c0.32,0.07,0.61,0.14,0.91,0.24c0.18,0.05,0.36,0.12,0.53,0.2
					C259.21,102.76,260.37,104.98,258.8,107.03z"/>
				<g class="st13">
					<path class="st10" d="M253.63,101.11c-2.21,1.55-3.77,3.37-4.5,5.93c-0.14-0.08-0.29-0.17-0.43-0.26
						c0.43-2.29,1.83-4.5,3.82-5.72C252.87,101.06,253.26,101.07,253.63,101.11z"/>
					<path class="st10" d="M257.14,101.88c-1.04,0.58-2.04,1.19-2.96,2.05c-1.13,1.08-2.54,2.49-3.35,3.95
						c-0.18-0.07-0.36-0.13-0.54-0.22c0.28-1.46,2-3.11,2.87-4c0.71-0.76,1.58-1.58,2.54-2.21c0.32,0.07,0.61,0.14,0.91,0.24
						C256.8,101.73,256.97,101.8,257.14,101.88z"/>
				</g>
			</g>
			<g>
				<circle class="st12" cx="212.6" cy="156.17" r="6.81"/>
				<circle class="st12" cx="260.89" cy="147" r="6.81"/>
				<g>
					<path class="st10" d="M224.32,143.31c0.29,1.36,0.6,2.7,1.13,3.88c0.52,1.18,1.35,2.12,2.43,2.17
						c0.53,0.08,1.08-0.07,1.61-0.35c0.54-0.26,1.05-0.65,1.54-1.09c0.97-0.88,1.85-1.93,2.72-3.02c-0.39,1.35-1.05,2.62-1.98,3.73
						c-0.45,0.57-1.02,1.06-1.68,1.47c-0.66,0.4-1.49,0.66-2.33,0.57c-0.83-0.08-1.65-0.49-2.2-1.1c-0.54-0.61-0.86-1.32-1.07-2.02
						C224.08,146.13,224.06,144.69,224.32,143.31z"/>
					<path class="st12" d="M224.48,150.13c0,0,1.29,3.06,5.1,1.31"/>
				</g>
				<g>
					<g>
						<path class="st1" d="M263.6,135.42c-0.34,0.49-0.71,0.94-1.12,1.34c-0.04,0.07-0.11,0.12-0.16,0.17
							c-0.01,0.01-0.01,0.01-0.03,0.03c-1.57,1.51-3.57,2.49-6.05,2.54c-0.7,0.04-1.45-0.03-2.23-0.16
							c-0.71-0.13-1.4-0.34-2.05-0.62c-0.01,0-0.01-0.01-0.01-0.01c-4.44-1.92-7.61-7.17-9.35-11.46c-0.09-0.24-0.18-0.45-0.26-0.67
							c-0.03-0.05-0.04-0.11-0.05-0.16c-0.16-0.4-0.28-0.79-0.38-1.2c-0.28-0.97-0.43-1.98-0.49-2.96v-0.09
							c-0.01-0.3-0.01-0.61,0-0.91c0.12-5.26,3.27-10.12,9.18-10.88c3.64-0.46,7.3,0.45,10.04,2.96c2.25,2.05,3.87,4.87,4.79,7.85
							c0,0.03,0,0.04,0,0.04c0.33,1.08,0.57,2.17,0.71,3.27C266.6,128.09,265.77,132.35,263.6,135.42z"/>
						<path class="st14" d="M244.03,113.89c0,0,16.82-10.88,22.23,12.36c0,0-0.15-12.56-9.63-15.29
							C247.81,108.43,244.03,113.89,244.03,113.89z"/>
						<path class="st15" d="M265.43,121.2c0,0.03,0,0.04,0,0.04c-10.66-9.43-23.47-0.36-24.01,0.03c0.12-5.26,3.27-10.12,9.18-10.88
							c3.64-0.46,7.3,0.45,10.04,2.96C262.89,115.4,264.51,118.22,265.43,121.2z"/>
						<path class="st14" d="M252.68,121.36c-5.01-0.62-8.36,2.66-10.44,4.95c0.3,1.21,0.46,2.39,0.84,3.59
							c0.48,1.49,1.04,2.96,1.83,4.32c2.56,4.43,7.78,6.75,12.81,5.64c1.41-0.31,2.77-0.93,3.85-1.9c0.21-0.19,2.06-2.46,1.87-2.54
							C262.6,128.86,258.53,122.09,252.68,121.36z"/>
					</g>
					<g>
						<path class="st1" d="M217.06,146.67c-5.55,3.03-10.13,2.12-12.32,1.34c-0.78-0.28-1.25-0.54-1.37-0.61
							c-0.01-0.01-0.03-0.01-0.03-0.01s-0.16-0.07-0.42-0.21c-1.13-0.61-4.32-2.59-6.68-6.66l-0.01-0.01c0-0.01-0.01-0.03-0.01-0.04
							c-0.78-1.34-1.48-2.91-1.96-4.73c-0.17-0.59-0.32-1.22-0.43-1.88c-1.8-10.13,6.61-18.27,17.39-17.48
							c3.36,0.25,5.94,2.49,7.67,6.01c0.01,0,0.01,0.01,0.03,0.03c0.16,0.32,0.32,0.66,0.46,1c0.34,0.83,0.66,1.73,0.92,2.67
							c0.28,0.97,0.5,1.98,0.67,2.99c0.04,0.18,0.07,0.38,0.09,0.57C222.21,136.83,221.01,144.51,217.06,146.67z"/>
						<path class="st14" d="M217.06,146.67c-5.55,3.03-10.13,2.12-12.32,1.34c-1.65-5.62-1.94-13.15,4.15-16.95
							c4.97-3.11,9.22-2.61,12.16-1.42C222.21,136.83,221.01,144.51,217.06,146.67z"/>
						<path class="st15" d="M219.42,123.41c-18.45-5.26-24.71,11.21-25.1,12.33c-0.17-0.59-0.32-1.22-0.43-1.88
							c-1.8-10.13,6.61-18.27,17.39-17.48C214.94,116.65,217.68,119.3,219.42,123.41z"/>
						<path class="st14" d="M218.88,122.38c-0.7-1.13-5.51-8.06-15.74-3.64c-11,4.77-8.73,17.64-6.91,21.72
							c-0.78-1.34-1.48-2.91-1.96-4.73c-0.17-0.59-0.32-1.22-0.43-1.88c-1.8-10.13,6.61-18.27,17.39-17.48
							C214.57,116.63,217.15,118.87,218.88,122.38z"/>
					</g>
				</g>
				<g>
					<path class="st12" d="M230.64,135.12l0.14-11.98c0,0-6.52,16.69,1.36,16.21c0,0,5.06-5.11,4.61-6.42
						C236.3,131.62,232.09,133.61,230.64,135.12z"/>
					<path class="st10" d="M230.78,123.14c0.45,3.85,0.6,7.71,0.64,11.56l-1.05-0.49c1.02-0.84,2.06-1.57,3.28-2.15
						c0.61-0.27,1.26-0.54,2.08-0.54c0.43,0.06,0.85,0.07,1.31,0.56c0.39,0.58,0.22,1.09,0.13,1.43c-0.55,1.36-1.4,2.28-2.25,3.24
						c-0.88,0.92-1.79,1.8-2.78,2.6c0.76-1.01,1.53-2.01,2.23-3.04c0.68-1.01,1.44-2.09,1.74-3.11c0.08-0.25,0.02-0.44,0.02-0.38
						c0.03,0.02-0.23-0.08-0.41-0.07c-0.45,0.03-1,0.23-1.52,0.48c-1.04,0.53-2.07,1.24-3.01,1.98l-1.07,0.83l0.02-1.32
						C230.18,130.85,230.33,126.99,230.78,123.14z"/>
					<path class="st1" d="M233.04,136.45c0,0,2.84-1.95,2-2.59C234.2,133.22,233.04,136.45,233.04,136.45z"/>
				</g>
			</g>
			<g>
				<path class="st10" d="M197.2,104.15c0,0-5.77,16.76-14.91,18.18c-9.14,1.42-1.65-25.6-1.65-25.6L197.2,104.15z"/>
				<g>
					<g>
						<g>
							<path class="st10" d="M180.58,99.19c0,0,14.12,13.64,28.62,13.17c14.51-0.47,13.04-10.47,13.04-10.47s12.46,2.94,10.69-9.41
								c0,0,24.53,16.66,32.55-9.61C265.48,82.88,217.43,57.86,180.58,99.19z"/>
							<path class="st10" d="M232.49,92c0,0,6.91,8.26,18.12,7.18c11.2-1.07,12.3-11.58,12.3-11.58l3.39,2.67
								C266.29,90.28,252.85,118.75,232.49,92z"/>
						</g>
						<g>
							<path class="st12" d="M210.84,108.98c-4.3,1.2-8.55-0.54-12.4-2.41c-0.35-0.17-0.67,0.35-0.31,0.53
								c3.61,1.81,8.97,4.54,12.89,2.29C211.24,109.27,211.09,108.91,210.84,108.98z"/>
							<path class="st12" d="M210.15,106.59c-2.08,0.24-3.88,0.33-5.97-0.01c-0.05-0.01-0.09,0.06-0.04,0.09
								c1.77,1,4.18,1.28,6.09,0.48C210.49,107.04,210.51,106.55,210.15,106.59z"/>
							<path class="st12" d="M267.81,63.92c-8.31-9.79-25.62-8.28-34.12,0.89c-0.1,0.11,0.05,0.26,0.16,0.16
								c4.98-4.41,10.94-6.08,17.5-6.51c6.61-0.44,10.93,1.9,15.75,6.18C267.59,65.07,268.23,64.42,267.81,63.92z"/>
							<path class="st12" d="M262.37,65.36c-1.8-1.32-4.12-2.81-6.38-3.07c-0.17-0.02-0.21,0.26-0.04,0.3
								c1.94,0.5,4.08,2.08,5.65,3.29c1.62,1.25,2.87,2.74,3.8,4.57c0.18,0.34,0.73,0.11,0.62-0.26
								C265.41,68.15,264.06,66.6,262.37,65.36z"/>
							<path class="st12" d="M179.17,83.22c-2-0.05-3.92,0.23-5.39,1.71c-1.3,1.31-1.86,3.62-1.2,5.37
								c0.22,0.58,1.01,0.48,1.07-0.15c0.16-1.73-0.1-3.28,1.29-4.63c1.12-1.09,2.79-1.6,4.28-1.9
								C179.45,83.58,179.39,83.23,179.17,83.22z"/>
							<path class="st12" d="M178.23,85.8c-0.81,0.2-1.5,0.67-2,1.34c-0.44,0.6-0.89,1.58-0.63,2.33c0.08,0.24,0.47,0.28,0.54,0
								c0.15-0.66,0.12-1.26,0.5-1.87c0.4-0.64,1-1.09,1.73-1.29C178.69,86.2,178.55,85.72,178.23,85.8z"/>
							<path class="st12" d="M276.1,94.57c-0.22-0.19-0.53,0.12-0.32,0.32c1.97,1.9,2.32,4.17,2.34,6.78c0,0.26,0.36,0.3,0.44,0.06
								C279.46,99.16,278.05,96.25,276.1,94.57z"/>
						</g>
					</g>
					<g>
						<path class="st16" d="M181.17,98.73c-1.33-0.92-3.42,0.63-4.22,1.66c-0.96,1.23-1.81,3.49-0.91,4.94
							c0.38,0.62,1.33,0.5,1.54-0.2c0.18-0.59,0.08-1.17,0.18-1.77c0.12-0.72,0.44-1.38,0.9-1.95c0.42-0.52,0.94-0.95,1.52-1.3
							c0.46-0.28,0.83-0.42,1.13-0.87C181.42,99.06,181.32,98.84,181.17,98.73z"/>
						<g>
							<path class="st16" d="M251.53,65.62c-0.47,0.02-0.75,0.29-0.92,0.7c-0.06,0.14-0.18,0.33-0.07,0.48
								c0.36,0.54,0.54,0.54,1.09,0.77c1.33,0.56,2.62,1.03,3.91,1.71c2.52,1.33,4.19,2.66,5.88,4.94c0.49,0.66,1.42,0.26,1.3-0.55
								C262.08,69.42,255.56,65.41,251.53,65.62z"/>
							<path class="st16" d="M264.88,76.61c-0.74,0-0.74,1.15,0,1.15C265.62,77.77,265.62,76.61,264.88,76.61z"/>
						</g>
					</g>
				</g>
			</g>
		</g>
		<g>
			<g>
				<path class="st11" d="M218.1,255.33c-8.68,5.61-19.32,20.85-27.49,34.09c-1.95,3.16-3.75,6.2-5.37,8.98
					c-0.4,0.68-0.79,1.37-1.16,2.02c-3.82,6.72-6.24,11.38-6.24,11.38l-9.4,3.65c-22.3-8.72-36.1-29.15-39.24-34.18
					c-0.46-0.72-0.68-1.13-0.68-1.13c7.49-4.53,19.03-2.71,23.09-1.88l0.01,0.01c0,0,0.03,0,0.07,0.01c0.88,0.18,1.4,0.32,1.4,0.32
					c1.67-2.78,3.36-5.4,5.04-7.86c9.6-14.05,19.01-22.84,24.26-27.17c2.7-2.23,4.31-3.28,4.31-3.28L218.1,255.33z"/>
				<path class="st17" d="M218.1,255.33c-8.68,5.61-19.32,20.85-27.49,34.09c-4.69-4.4-9.81-7.93-14.7-10.72
					c-7.15-4.12-13.8-6.65-17.79-7.97c9.6-14.05,19.01-22.84,24.26-27.17c2.7-2.23,4.31-3.28,4.31-3.28L218.1,255.33z"/>
				<path class="st18" d="M218.1,255.33c-8.68,5.61-19.32,20.85-27.49,34.09c-1.95,3.16-3.75,6.2-5.37,8.98
					c-0.4,0.68-0.79,1.37-1.16,2.02l-15.17-12.1l7.01-9.62l12.2-16.75l-5.73-18.39c2.7-2.23,4.31-3.28,4.31-3.28L218.1,255.33z"/>
				<g>
					<path class="st19" d="M185.24,298.4c-2.67,4.65-4.81,8.54-6.07,10.89c-0.86,1.59-1.33,2.5-1.33,2.5l-9.4,3.65
						c-11.54-4.52-20.8-12.16-27.49-19.19c-6.23-6.55-10.23-12.57-11.75-14.99c-0.46-0.72-0.68-1.13-0.68-1.13
						c1.51-0.91,3.19-1.57,4.93-2.03c4.93-1.29,10.39-1,14.32-0.49c1.58,0.2,2.91,0.45,3.85,0.63l0.01,0.01c0,0,0.03,0,0.07,0.01
						C152.84,278.57,170.32,282.99,185.24,298.4z"/>
					<path class="st1" d="M142.99,294.05c-0.65,0.88-1.32,1.62-2.04,2.21c-6.23-6.55-10.23-12.57-11.75-14.99
						c-0.46-0.72-0.68-1.13-0.68-1.13c5.77-3.49,13.94-3.21,19.24-2.52C148.72,281.35,148.26,286.81,142.99,294.05z"/>
					<path class="st1" d="M179.17,309.3c-0.86,1.59-1.33,2.5-1.33,2.5l-9.4,3.65c-11.54-4.52-20.8-12.16-27.49-19.19
						c-6.23-6.55-10.23-12.57-11.75-14.99c-0.46-0.72-0.68-1.13-0.68-1.13c1.51-0.91,3.19-1.57,4.93-2.03
						C141.17,281.35,166.71,292.93,179.17,309.3z"/>
					<path class="st14" d="M177.84,311.8l-9.4,3.65c-22.3-8.72-36.1-29.15-39.24-34.18C137.65,284.76,160.36,295.1,177.84,311.8z"/>
					<g>
						<path class="st1" d="M158.64,281.01c-0.69-1.36-2.17-1.92-3.63-1.88c-0.03,0-0.04,0.04-0.02,0.06
							c0.54,0.29,1.14,0.47,1.67,0.78c1.14,0.66,1.46,1.47,1.8,2.67c0.42,1.51,0.67,3.13,1.3,4.56c0.11,0.25,0.53,0.12,0.52-0.14
							C160.16,285.18,159.49,282.69,158.64,281.01z"/>
						<path class="st1" d="M165.52,283.92c-0.6-1.1-1.69-1.96-3-1.82c-0.07,0.01-0.1,0.09-0.04,0.13c0.42,0.29,0.89,0.38,1.33,0.65
							c0.67,0.42,1.01,1.08,1.28,1.8c0.39,1.06,0.48,2.11,0.59,3.22c0.05,0.44,0.67,0.58,0.81,0.11
							C166.87,286.66,166.17,285.1,165.52,283.92z"/>
					</g>
				</g>
				<path class="st20" d="M180.7,250.81c-6.1,3.21-11.39,8.57-15.23,14.24c-0.16,0.24,0.19,0.49,0.39,0.3
					c4.94-4.86,10.21-9.26,15.3-13.95C181.49,251.11,181.07,250.62,180.7,250.81z"/>
			</g>
			<g>
				<path class="st11" d="M352.54,284.73c-3.31,10.68-27.96,25.42-27.96,25.42l-15.21-4.31l-7.28-2.05
					c-0.59-3.23-1.3-6.35-2.12-9.35c-1.3-4.79-2.86-9.31-4.61-13.57c-10.66-25.93-28.09-41.63-33.31-45.92
					c-0.97-0.79-1.51-1.2-1.51-1.2s1.34-0.76,3.66-1.82c5.61-2.56,16.96-6.86,28.71-6.23c3.96,0.21,7.98,0.97,11.84,2.57
					c0.26,0.12,0.51,0.22,0.78,0.34c6.85,3.04,12.28,8.47,16.45,14.29c5.4,7.52,8.72,15.73,10.33,20.34c0.79,2.29,1.17,3.7,1.17,3.7
					c10.85-1.34,16.66,1.32,18.94,5.89C354.06,276.09,353.91,280.29,352.54,284.73z"/>
				<path class="st17" d="M332.3,263.25c-17.2-2.62-30.18,9.3-36.95,17.62c-12.64-30.77-34.83-47.11-34.83-47.11
					s24.91-14.09,44.99-5.14C321.21,235.61,329.44,255.07,332.3,263.25z"/>
				<g>
					<path class="st19" d="M352.54,284.73c-0.36,1.13-0.94,2.3-1.73,3.5c-6.52,10.13-26.24,21.92-26.24,21.92l-22.5-6.36
						c-0.21-1.17-0.45-2.32-0.7-3.46c-0.42-2-0.9-3.98-1.42-5.89c9.59-13.62,22.89-21.94,29.48-25.49c2.5-1.34,4.03-2,4.03-2
						c10.85-1.34,16.66,1.32,18.94,5.89c0.22,0.46,0.42,0.94,0.58,1.42C353.99,277.28,353.71,280.91,352.54,284.73z"/>
					<path class="st1" d="M352.54,284.73c-0.36,1.13-0.94,2.3-1.73,3.5c-4.49,0.83-9.79-0.2-14.99-5.9
						c-5.11-5.61-6.55-10.05-6.39-13.38c2.5-1.34,4.03-2,4.03-2c10.85-1.34,16.66,1.32,18.94,5.89c0.22,0.46,0.42,0.94,0.58,1.42
						C353.99,277.28,353.71,280.91,352.54,284.73z"/>
					<path class="st1" d="M352.54,284.73c-3.31,10.68-27.96,25.42-27.96,25.42l-22.5-6.36c-0.21-1.17-0.45-2.32-0.7-3.46
						c6.64-7.59,34.77-37.87,51.61-26.07C353.99,277.28,353.71,280.91,352.54,284.73z"/>
					<path class="st14" d="M352.54,284.74c-3.31,10.68-27.96,25.42-27.96,25.42l-22.5-6.36c0,0,29.99-33.64,50.33-30.95
						C354.06,276.1,353.91,280.3,352.54,284.74z"/>
					<g>
						<path class="st1" d="M323.51,272.19c-2.53,0.02-1.42,4.39-1.06,5.69c0.06,0.22,0.37,0.16,0.38-0.05
							c0.06-0.92,0.02-1.8,0.03-2.72c0-0.43,0-0.91,0.14-1.32c0.16-0.46,0.51-0.78,0.74-1.2
							C323.84,272.42,323.72,272.19,323.51,272.19z"/>
						<path class="st1" d="M318.8,275.65c-1.44,0.05-3.03,1.32-3.58,2.63c-0.35,0.84-0.59,3.1,0.61,3.39
							c0.13,0.03,0.27-0.04,0.3-0.17c0.25-0.99-0.2-2.08,0.18-3.06c0.46-1.18,1.71-1.7,2.6-2.5
							C319.02,275.84,318.94,275.64,318.8,275.65z"/>
					</g>
				</g>
				<path class="st18" d="M291.95,245.18c0,0,17.16,31.2,17.41,60.67l-7.28-2.05c-0.59-3.23-1.3-6.35-2.12-9.35
					c-1.3-4.79-2.86-9.31-4.61-13.57c-10.66-25.93-28.09-41.63-33.31-45.92l2.15-3.02c5.61-2.56,16.96-6.86,28.71-6.23l11.84,2.57
					c0.26,0.12,0.51,0.22,0.78,0.34c6.85,3.04,12.28,8.47,16.45,14.29L291.95,245.18z"/>
				<path class="st20" d="M327.97,257.06c-1.86-4.42-5.79-7.5-8.07-11.63c-0.26-0.48-1.05-0.15-0.88,0.37
					c0.67,2.12,2.31,3.83,3.57,5.63c1.44,2.07,2.67,4.34,4.37,6.22C327.34,258.08,328.21,257.62,327.97,257.06z"/>
			</g>
		</g>
		<g>
			<g>
				<path class="st20" d="M173.55,212.65c0,0-23.25,28.74,13.04,35C222.88,253.91,173.55,212.65,173.55,212.65z"/>
				<path class="st20" d="M337.75,184.19c0,0,41.08,26.6-5.45,42.45S337.75,184.19,337.75,184.19z"/>
			</g>
			<g>
				<g>
					<path class="st1" d="M344.88,142.56l-88.25,27.41l0,2.84c1.58,4.01-3.77,3.81-3.77,3.81l-9.83-3.12l-1.58,0.41
						c-39.96-18.36-81.17,0.37-81.89,0.71c-0.28,0.13,0.01-0.84,0.49-2.11c0.13-0.37,0.28-0.76,0.45-1.17
						c0.21-0.55,0.43-1.12,0.65-1.63c0.53-1.26,0.96-2.27,0.96-2.27c8.8-3.95,23.3-8.35,23.3-8.35l-18.24,2.2
						c58.89-16.25,79.46,8.15,79.46,8.15c1.4,1.47,2.81,2.93,4.22,4.39c-0.72-0.77-0.95-1.9-0.84-2.94
						c0.11-1.05,0.53-2.03,0.97-2.99c5.06-10.99,13.76-20.16,24.05-26.42c8.24-5.01,17.58-7.96,27.12-9.17
						c7.83-1,15.8-0.88,23.63,0.12c4.35,0.55,8.71,1.34,12.94,2.55c0.19,0.05,0.52,0.23,0.73,0.22c-5.72,0.47-10.55,3.36-10.55,3.36
						l10.98-1.22l2.74,2.87L344.88,142.56z"/>
					<path class="st15" d="M344.88,142.56l-87.63,29.18l-6.39,2.11c0.29-0.61,11.87-22.83,30-31.91c0,0-16.66,13.82-21.28,20.98
						c0.78-0.99,13.59-17.03,36.54-23.55c-1.45,0.57-24.64,9.85-35.15,24.96c1.58-1.67,30.64-31.66,81.66-24.14L344.88,142.56z"/>
					<path class="st15" d="M251.36,173.87l-8.33-0.37l-1.58,0.41c-39.96-18.36-81.17,0.37-81.89,0.71
						c-0.28,0.13,0.01-0.84,0.49-2.11c7.72-3.45,19.59-7.13,20.47-7.4c-8.48,1.29-16.6,4.66-20.02,6.23
						c0.21-0.55,0.43-1.12,0.65-1.63c30.72-15.36,71.4-4.23,72.93-3.81c-16.2-7.27-36.1-7.8-36.1-7.8
						C224.71,155.98,251.36,173.87,251.36,173.87z"/>
				</g>
				<g>
					<g>
						<path class="st21" d="M267.43,236.79c0,0-4.65,7.69-14.65,2.54l-0.38-2.28l-0.54-3.11l-8.55-50.26l-0.4-2.32l-0.86-5.03
							l-0.24-1.4l-0.37-2.2c0,0,11.41,3.23,15.17-2.77l0.42,2.57l0.21,1.32l0.76,4.7l0.4,2.49l8.18,50.56l0.45,2.86L267.43,236.79z"
							/>
						<path class="st22" d="M267.05,234.47c-1.83,1.58-6.63,5.08-14.65,2.58l-0.54-3.11c2.45,0.51,8.92,1.69,14.74-2.33
							L267.05,234.47z"/>
						<path class="st23" d="M257.05,172.54c-5.28,3.91-12.38,2.98-15.23,2.4l-0.37-2.2c0,0,11.41,3.23,15.17-2.77L257.05,172.54z"/>
						<path class="st22" d="M258.42,181.05c-1.42,1.29-5.18,4.33-15.11,2.63l-0.4-2.32c2.87,0.79,9.44,1.84,15.11-2.81
							L258.42,181.05z"/>
					</g>
					<g>
						<path class="st19" d="M252.78,239.33l-56.97,26.29l-40.58-88.77c41.02-22.34,81.04-6.34,85.76-4.31
							c0.3,0.12,0.46,0.2,0.46,0.2l0.37,2.16v0.04l10.79,63.39L252.78,239.33z"/>
						<g>
							<path class="st21" d="M199.32,258.66l-0.28-0.59L162.87,180l0.62-0.27c39.11-16.76,73.72-1.93,74.06-1.78l0.32,0.14
								l10.7,58.3L199.32,258.66z M164.63,180.68l35.33,76.24l47.12-21.3l-10.38-56.59C233.17,177.6,200.96,165.41,164.63,180.68z"
								/>
						</g>
						<path class="st23" d="M252.78,239.33l-56.97,26.29l-40.58-88.77c43.66-23.79,86.22-4.11,86.22-4.11l0.37,2.16v0.04
							c0,0-38.49-20.63-83.7,2.41l38.35,86.73l56.14-25.75L252.78,239.33z"/>
						<path class="st18" d="M252.78,239.33l-97.55-62.48c41.02-22.34,81.04-6.34,85.76-4.31l11.62,65.79L252.78,239.33z"/>
					</g>
					<g>
						<path class="st19" d="M347.54,143.22l-0.01,0.12l-13.32,97.34c0,0-42.11-3.17-66.78-3.89l-0.14-0.87l-10.47-64.79l-0.18-1.16
							C256.63,169.97,297.71,129.9,347.54,143.22z"/>
						<g>
							<path class="st21" d="M330.11,234.45l-56.48-2.2l-10.19-62.56l0.31-0.24c0.39-0.3,39.06-29.85,77.05-22.06l0.6,0.12
								L330.11,234.45z M274.76,230.98l54.2,2.11l10.97-84.52c-35.42-6.88-71.36,18.94-75.07,21.7L274.76,230.98z"/>
						</g>
						<path class="st23" d="M347.54,143.22l-13.33,97.45c0,0-42.11-3.17-66.78-3.89l-0.14-0.87l66,3.16l12.84-94.95
							c-49.08-9.54-83.77,21.63-89.31,27l-0.18-1.16C256.63,169.97,297.71,129.9,347.54,143.22z"/>
						<path class="st18" d="M347.54,143.22l-0.01,0.12l-80.24,92.58l-10.47-64.79l-0.18-1.16
							C256.63,169.97,297.71,129.9,347.54,143.22z"/>
					</g>
				</g>
			</g>
			<g>
				<path class="st11" d="M346.86,199.1c0,0-13.01-8.48-14.56-6.92c-1.56,1.56,7.5,7.57,7.5,7.57s-10.37-2.72-11.01-0.26
					c-0.65,2.47,10.61,3.2,10.61,3.2s-10.09,1.99-9.83,3.54c0.26,1.56,9.35,0,9.35,0s-8.96,4.41-7.53,5.97
					c1.43,1.56,6.92-1.49,6.92-1.49S354,216.23,346.86,199.1z"/>
				<path class="st11" d="M172.34,228.84c0.73-1.5,2.22-2.62,3.35-3.79c1.72-1.78,3.46-3.53,5.27-5.21
					c1.66-1.53,3.96-4.15,6.25-4.71c0.32-0.08,0.65-0.21,0.98-0.07c2.61,1.13-9.63,12.92-9.63,12.92s11.67-8,13.94-6.09
					c2.27,1.9-12.81,8.88-12.81,8.88s12.58-3.46,13.6-2.44c1.02,1.02-11.53,5.89-11.53,5.89s10.06-0.91,10.74,0.68
					c0.68,1.58-10.68,3.28-10.74,3.29c-4.79,0.71-11.29-2.8-9.71-8.56C172.12,229.35,172.22,229.09,172.34,228.84z"/>
			</g>
		</g>
	</g>
	<g>
		<path class="st24" d="M393.39,248.36c-10.38,9.42-29.61,22.29-41.4,29.88"/>
		<path class="st24" d="M144.81,313.48c-7.48-0.18-15,0.23-21.67,3.44c-7.08,3.4-12.6,9.92-14.78,17.47
			c-2.57,8.86-0.54,18.64,4.08,26.63c4.62,7.99,11.65,14.35,19.25,19.57c14.97,10.27,32.66,16.42,50.74,17.99"/>
	</g>
	<path class="st25" d="M78.48,62.35c0,0,43.25-51.66,81.5-28.87c46.4,27.65-101.63,148.09-2.34,230.63"/>
	<g>
		<path class="st26" d="M42.86,148.67l-1.53-12.21l8.65,8.43l12.98-5.76l-6.23,9.54c0,0,9.03,11.28,8.65,11.18
			c-0.38-0.11-12.85-4.47-12.85-4.47l-7.51,15.81l-0.51-14.76l-13.23,0.25L42.86,148.67z"/>
		<polygon class="st26" points="395.44,142.49 404.28,132.91 404.28,144.36 415.32,145.33 406.96,150.59 409.64,165.67 
			399.23,153.06 382.19,161.89 392.6,149.45 384.09,140.97 		"/>
		<path class="st26" d="M400.95,371.48l-1.11-13.64l7.65,11.16l8.92-5.58l-4.14,9.4c0,0,9.24,12.99,8.29,11.76
			c-0.96-1.24-12.11-6.34-12.11-6.34s-10.52,12.75-10.2,11.79c0.32-0.96,2.23-12.11,2.23-12.11l-12.75-2.55L400.95,371.48z"/>
		<polygon class="st26" points="69.89,195.67 73.31,190.07 70.64,184.08 77.03,185.6 81.9,181.21 82.42,187.75 88.11,191.03 
			82.05,193.55 80.69,199.97 76.42,194.98 		"/>
		<polygon class="st26" points="444.36,354 438.27,354.7 435.39,360.11 432.85,354.54 426.82,353.47 431.33,349.33 430.48,343.26 
			435.81,346.28 441.32,343.59 440.1,349.6 		"/>
	</g>
	<g>
		<g>
			<path class="st9" d="M132.23,419.87c0,5.8-4.7,10.5-10.49,10.5c-0.45,0-0.91-0.03-1.34-0.09c-5.17-0.66-9.16-5.07-9.16-10.41
				c0-5.35,3.99-9.76,9.16-10.41c0.44-0.06,0.89-0.09,1.34-0.09C127.53,409.37,132.23,414.07,132.23,419.87z"/>
			<g>
				<path class="st27" d="M115.59,417.4c-0.41,0.96-1.26,1.53-1.91,1.25c-0.65-0.27-0.84-1.28-0.44-2.24s1.26-1.53,1.91-1.25
					C115.81,415.43,116,416.44,115.59,417.4z"/>
				<path class="st27" d="M117.28,415.27c-0.19,0.3-0.52,0.44-0.72,0.31c-0.2-0.13-0.21-0.48-0.01-0.78
					c0.19-0.3,0.52-0.44,0.72-0.31C117.47,414.62,117.48,414.97,117.28,415.27z"/>
				<path class="st27" d="M116.73,412.93c-0.17,0.26-0.45,0.38-0.62,0.27c-0.18-0.11-0.18-0.42-0.01-0.68
					c0.17-0.26,0.45-0.38,0.62-0.27C116.89,412.37,116.89,412.67,116.73,412.93z"/>
			</g>
			<g>
				<path class="st28" d="M121.73,409.3c-0.45,0-0.91,0.03-1.34,0.09c2.71,0.35,5.09,1.73,6.74,3.73c-0.01,0-0.02,0-0.04,0
					c-0.33,0.1-0.47,0.57-0.33,1.06c0.15,0.49,0.53,0.8,0.85,0.7c0.21-0.06,0.34-0.29,0.37-0.58c0.32,0.52,0.59,1.07,0.82,1.65
					c-0.03,0-0.06,0-0.08,0.01c-0.45,0.14-0.66,0.8-0.46,1.47c0.2,0.67,0.72,1.1,1.17,0.98c0.06,0.45,0.1,0.92,0.1,1.39
					c0,0.79-0.1,1.57-0.27,2.31c-0.13-0.44-0.39-0.77-0.76-0.87c-0.68-0.18-1.45,0.5-1.71,1.51c-0.27,1.01,0.07,1.98,0.75,2.16
					c0.23,0.06,0.47,0.02,0.7-0.1c-1.57,2.89-4.46,4.97-7.87,5.41c0.44,0.06,0.89,0.09,1.34,0.09c5.8,0,10.49-4.71,10.49-10.5
					C132.23,413.99,127.53,409.3,121.73,409.3z"/>
				<path class="st28" d="M126.84,416.3c0.16-0.05,0.23-0.27,0.16-0.5c-0.07-0.23-0.25-0.38-0.41-0.34
					c-0.16,0.05-0.23,0.27-0.16,0.5C126.5,416.2,126.68,416.35,126.84,416.3z"/>
				<path class="st28" d="M125.52,425.21c0.23-0.44,0.17-0.91-0.12-1.07c-0.29-0.15-0.72,0.08-0.94,0.51
					c-0.23,0.44-0.17,0.91,0.12,1.07C124.87,425.88,125.29,425.65,125.52,425.21z"/>
			</g>
		</g>
		<g>
			<path class="st29" d="M324.56,45.17c-0.2,0.5-0.43,1.01-0.7,1.5c-0.28,0.53-0.6,1.07-0.95,1.59c-0.85,1.22-1.84,2.3-2.94,3.2
				c-0.45,0.38-0.92,0.74-1.41,1.04c-4.2,2.74-9.53,3.35-14.27,1.52c-1.12-0.44-2.21-1.01-3.25-1.73
				c-5.49-3.79-7.83-10.4-6.39-16.51c0.12-0.57,0.29-1.14,0.49-1.7c0.44-1.27,1.07-2.5,1.87-3.66c0.3-0.45,0.64-0.89,0.99-1.29
				c0.36-0.43,0.74-0.83,1.14-1.19c4.94-4.69,12.48-5.72,18.52-2.3c0.41,0.23,0.81,0.48,1.2,0.75
				C325.04,30.65,327.23,38.5,324.56,45.17z"/>
			<g>
				<path class="st12" d="M316.97,44.46c0.28-0.02,0.49-0.31,0.47-0.66c-0.02-0.34-0.27-0.6-0.55-0.58
					c-0.28,0.02-0.49,0.31-0.47,0.66C316.44,44.22,316.69,44.48,316.97,44.46z"/>
				<path class="st30" d="M299.36,30.77c0.36,0.18,0.83-0.03,1.05-0.47c0.22-0.44,0.1-0.94-0.26-1.12
					c-0.36-0.18-0.83,0.03-1.05,0.47C298.88,30.09,299,30.59,299.36,30.77z"/>
				<path class="st30" d="M300.36,28.7c0.14,0.07,0.31-0.01,0.39-0.18c0.08-0.16,0.04-0.35-0.1-0.42c-0.14-0.07-0.31,0.01-0.39,0.18
					C300.19,28.44,300.23,28.63,300.36,28.7z"/>
				<path class="st30" d="M299.63,33.07c0.25,0.11,0.67-0.23,0.94-0.74c0.27-0.51,0.29-1.02,0.04-1.12
					c-0.25-0.11-0.67,0.23-0.94,0.74C299.41,32.46,299.39,32.96,299.63,33.07z"/>
				<path class="st12" d="M319.08,40.59c0.28-0.02,0.49-0.31,0.47-0.66c-0.02-0.34-0.27-0.6-0.55-0.58
					c-0.28,0.02-0.49,0.31-0.47,0.66C318.55,40.35,318.8,40.61,319.08,40.59z"/>
				<path class="st12" d="M317.39,47.33c0.3-0.49,0.23-1.08-0.17-1.34c-0.4-0.25-0.97-0.06-1.28,0.43c-0.3,0.49-0.23,1.08,0.17,1.34
					C316.52,48.01,317.09,47.82,317.39,47.33z"/>
				<path class="st12" d="M318.86,26.39c-0.39-0.27-0.79-0.52-1.2-0.75c2.42,2.88,3.89,6.56,4.01,10.57
					c-0.23-0.18-0.51-0.29-0.81-0.27c-0.72,0.05-1.25,0.8-1.19,1.68c0.06,0.88,0.7,1.54,1.42,1.49c0.16-0.01,0.3-0.06,0.44-0.13
					c-0.04,0.31-0.09,0.63-0.14,0.94c-0.07-0.03-0.13-0.08-0.2-0.09c-0.61-0.11-1.22,0.41-1.35,1.16c-0.13,0.73,0.25,1.4,0.85,1.53
					c-0.17,0.48-0.36,0.96-0.58,1.42c-0.06-0.08-0.12-0.15-0.2-0.21c-0.4-0.25-0.97-0.06-1.28,0.43c-0.3,0.49-0.23,1.08,0.17,1.34
					c0.13,0.08,0.28,0.1,0.43,0.09c-3.02,5.05-8.52,8.44-14.83,8.44h-0.11c4.74,1.83,10.07,1.22,14.27-1.52
					c0.49-0.3,0.96-0.66,1.41-1.04c1.1-0.9,2.09-1.98,2.94-3.2c0.35-0.52,0.67-1.06,0.95-1.59c0.27-0.49,0.5-1,0.7-1.5
					C327.23,38.5,325.04,30.65,318.86,26.39z"/>
			</g>
			<path class="st26" d="M325.48,46.13c-0.29-0.32-0.6-0.64-0.92-0.96c-0.2,0.51-0.43,1.01-0.7,1.5c0.17,0.17,0.34,0.34,0.49,0.51
				c3.29,3.58,3.65,5.31,3.32,5.79c-0.32,0.46-2.07,0.77-6.59-1.04c-0.37-0.14-0.74-0.31-1.12-0.46c-3.78-1.64-8.25-4.2-12.73-7.27
				c-4.89-3.37-9.17-6.95-12.1-10.11c-0.03-0.02-0.05-0.05-0.06-0.06c-3.29-3.58-3.63-5.33-3.31-5.79c0.12-0.2,0.51-0.35,1.21-0.35
				c0.96,0,2.56,0.29,5.02,1.26c0.35-0.43,0.74-0.83,1.13-1.19c-0.08-0.03-0.14-0.06-0.21-0.09c-4.56-1.82-7.4-1.98-8.42-0.49
				c-1.03,1.5,0.14,4.09,3.45,7.69c0.23,0.25,0.46,0.49,0.7,0.74c2.96,3.08,7.08,6.48,11.72,9.66c4.24,2.93,8.48,5.39,12.19,7.06
				c0.67,0.31,1.33,0.6,1.96,0.84c2.5,1,4.47,1.49,5.93,1.49c1.18,0,2.02-0.34,2.48-1.01C329.95,52.34,328.8,49.75,325.48,46.13z"/>
		</g>
	</g>
	<g>
		<g>
			<g>
				<path class="st31" d="M442.52,186.39l-19.68,11.15l15.64,23.88l4.73-2.56l2.26-3.54C445.47,215.31,446.55,202.32,442.52,186.39z
					"/>
				<path class="st1" d="M442.52,186.39c0,0,9.03,29.27,1.4,37.48c-7.64,8.23-10.21-0.23-10.21-0.23l-0.2-1.04l-4.14-22.21
					l-22.24-12.77l17.45-14.91l1.14-0.99c0,0,17.94,27.09,17.48,47.14C443.21,218.85,447.34,210.11,442.52,186.39z"/>
				<path class="st15" d="M438.61,220.41c-0.92,2.61-2.76,3.08-5.1,2.19l-4.14-22.21l-22.24-12.77l17.45-14.91l0.03-0.02
					C424.57,172.72,443.02,207.89,438.61,220.41z"/>
				<path class="st31" d="M437.85,222.56c0.15-0.17,5.46-6.76,1.54-20.94c0,0,4.99,15.61,0.4,23.6
					C435.2,233.21,437.85,222.56,437.85,222.56z"/>
			</g>
			<g>
				<g>
					<path class="st32" d="M445.15,222.11c-0.16,0.97-1.51,2.51-3.56,4.38c-0.57,0.52-1.2,1.05-1.86,1.62
						c-7,5.87-18.9,13.82-24.48,17.47c-0.56,0.37-1.06,0.7-1.49,0.97c-1.01,0.65-1.58,1.02-1.58,1.02c-5.8,1.37-6.2-5.02-6.2-5.02
						l2.56-1.95l1.7-1.3l23.83-18.21l1.45-1.11l3.36-2.56c0,0,1.62,5.7,3.64,6.36C443.69,224.18,445.01,222.31,445.15,222.11z"/>
					<path class="st19" d="M441.6,226.49c-0.57,0.52-1.2,1.05-1.86,1.62c-3.27-1.44-4.93-4.84-5.67-7.02l1.45-1.11
						C437.39,224.07,439.84,225.78,441.6,226.49z"/>
					<path class="st19" d="M415.25,245.59c-0.56,0.37-1.06,0.7-1.49,0.97c-3.47-1.34-4.81-4.26-5.23-5.95l1.7-1.3
						C410.39,242.71,413.42,244.7,415.25,245.59z"/>
				</g>
				<g>
					<path class="st33" d="M438.86,217.42c0,0-9.33-35.89-37.15-40.05c-1.09-0.16-31.72,40-31.72,40s24.67,9.41,35.99,25.19
						L438.86,217.42z"/>
					<path class="st32" d="M406.32,240.45l30.19-23.82c0,0-7.21-27.69-34.21-37.43l-28.65,36.75
						C373.66,215.95,395.68,222.95,406.32,240.45z"/>
				</g>
			</g>
		</g>
		<g>
			<g>
				<path class="st31" d="M410.01,56.83l-1.85-1.32c0,0-5.63,3.18-7.84,5.91l-5.48-5.15c0,0-9.13,11.69-3.38,30.58l-1.03,0.97
					c0,0-10.1-12.23-21.93-9.04l39.62,25.36l17.26-33.31L410.01,56.83z"/>
				<path class="st1" d="M418.99,59.03c-0.44,0-7.32-3.51-7.32-3.51s-17.13,12.3-18.89,30.89c0,0-1.61-19.18,15.37-30.89
					c0,0-16.4,6.59-16.54,30.89c0,0-4.98-14.86,3.22-30.12c0,0-8.78,12.11-4.1,31c0,0-9.08-11.71-22.25-8.49
					c0,0,15.08-0.46,21.52,9.58c0,0-13.83-9.41-23.02-3.78l23.46,9.67l9.08-4.78L418.99,59.03z"/>
			</g>
			<g>
				<g>
					<path class="st29" d="M393.99,88.37c0,0,4.42-23.24,23.66-32.09l36.49,19.77c0,0-22.58,24.63-25.11,33.17L393.99,88.37z"/>
					<path class="st12" d="M396.93,85.45c0,0,8.27-21.67,20.95-27.08l32.87,18.47c0,0-16.87,14.65-22.65,28.32L396.93,85.45z"/>
				</g>
				<g>
					<polygon class="st29" points="388.97,89.56 362.93,83.67 410.3,109.94 425.37,112.53 					"/>
					<polygon class="st12" points="388.97,90.63 370.61,86.86 409.9,108.64 420.11,110.43 					"/>
				</g>
				<g>
					<path class="st34" d="M425.37,112.53l-5.16-3.25l-1.16-0.73c0,0,0,0-0.01,0l-23.96-15.13l-0.58-0.37l-4.98-3.14
						c1.87,0.65,4.82-3.04,4.82-3.04l3.23,1.98l0.8,0.49l24.6,15.07l0.81,0.5l5.57,3.41C430.29,113.64,425.37,112.53,425.37,112.53z
						"/>
					<path class="st33" d="M423.77,104.91c-0.19,1.11-0.9,3.56-3.56,4.37l-1.16-0.73c0.94-0.41,3.3-1.66,3.91-4.13L423.77,104.91z"
						/>
					<path class="st33" d="M398.36,89.34c-0.2,1.44-0.96,3.19-3.28,4.08l-0.58-0.37c1.2-0.47,2.74-1.58,3.07-4.2L398.36,89.34z"/>
				</g>
			</g>
		</g>
	</g>
	<g>
		<path class="st1" d="M461.51,104.93c-0.03-0.03-0.06-0.06-0.1-0.09c-1.25-1.22-3.66-0.38-3.57,1.48c0.08,1.79,2.23,2.79,3.57,1.48
			c0.03-0.03,0.06-0.06,0.1-0.09C462.26,106.97,462.26,105.67,461.51,104.93z"/>
		<path class="st1" d="M456.36,115.78c0.08-1.22-0.57-2.35-1.51-3.08c-1.52-1.17-3.62-1.01-5,0.31c-0.53,0.5-0.94,1.19-1.13,1.9
			c-0.45,1.69,0.46,3.55,2.06,4.19c0.08,0.05,0.15,0.11,0.23,0.15c1.12,0.57,2.63,0.52,3.53-0.46c0.19-0.2,0.33-0.42,0.45-0.65
			C455.81,117.68,456.3,116.82,456.36,115.78z"/>
		<path class="st1" d="M467.19,119.16c-3.14,0-3.14,4.88,0,4.88C470.32,124.04,470.33,119.16,467.19,119.16z"/>
		<path class="st1" d="M466.8,138.69c-2.09,0-2.09,3.25,0,3.25C468.9,141.94,468.9,138.69,466.8,138.69z"/>
		<path class="st1" d="M50.58,261.91c-1.26,0.81-0.01,2.76,1.25,1.96C53.09,263.06,51.84,261.1,50.58,261.91z"/>
		<path class="st1" d="M44.48,279.31c-2.56,1.64-3.57,5.46-1.76,8.02c1.82,2.57,5.28,3.51,8.02,1.76c2.56-1.64,3.57-5.46,1.76-8.02
			C50.69,278.5,47.22,277.56,44.48,279.31z"/>
		<path class="st1" d="M76.86,300.3c-0.07-0.04-0.14-0.08-0.21-0.13c-1.76-1.07-4.35,0.59-4.12,2.64c0.01,0.08,0.02,0.16,0.03,0.24
			c0.11,0.97,0.6,2.14,1.61,2.51l0.23,0.09c2.08,0.77,3.88-0.38,4.05-2.6l0.02-0.25C78.56,301.74,77.7,300.8,76.86,300.3z"/>
	</g>
	<g>
		<path class="st1" d="M79.07,464.28c-1.24,0-2.43,1.09-2.38,2.38c0.06,1.29,1.04,2.38,2.38,2.38c1.24,0,2.43-1.09,2.38-2.38
			C81.39,465.37,80.4,464.28,79.07,464.28z"/>
		<path class="st1" d="M87.95,441.47c-2.64,0-5.16,2.32-5.04,5.04c0.12,2.73,2.22,5.04,5.04,5.04c2.64,0,5.16-2.32,5.04-5.04
			C92.87,443.78,90.78,441.47,87.95,441.47z"/>
		<path class="st1" d="M67.81,448.34c-3.74,0-3.75,5.82,0,5.82C71.55,454.16,71.56,448.34,67.81,448.34z"/>
	</g>
</g>
</svg>
