<?xml version="1.0" encoding="utf-8"?>
<!-- Generator: Adobe Illustrator 25.2.0, SVG Export Plug-In . SVG Version: 6.00 Build 0)  -->
<svg version="1.1" xmlns="http://www.w3.org/2000/svg" xmlns:xlink="http://www.w3.org/1999/xlink" x="0px" y="0px"
	 viewBox="0 0 500 500" style="enable-background:new 0 0 500 500;" xml:space="preserve">
<style type="text/css">
	.st0{fill:#9AC7ED;}
	.st1{opacity:0.28;fill:#1E83D6;}
	.st2{fill:#FFFFFF;}
	.st3{opacity:0.13;fill:#1E83D6;}
	.st4{fill:#FD5852;}
	.st5{opacity:0.11;fill:#101A46;}
	.st6{fill:#101A46;}
	.st7{opacity:0.58;fill:#1E83D6;}
	.st8{opacity:0.42;}
	.st9{fill:#FDB126;}
	.st10{fill:#1E83D6;}
	.st11{opacity:0.39;fill:#101A46;}
	.st12{fill:#EFEFEF;}
	.st13{opacity:0.08;fill:#101A46;}
	.st14{opacity:0.26;fill:#101A46;}
	.st15{opacity:0.19;}
	.st16{fill:#13AD7D;}
	.st17{opacity:0.14;}
	.st18{opacity:0.46;fill:#101A46;}
	.st19{opacity:0.24;clip-path:url(#SVGID_2_);fill:#FFFFFF;}
	.st20{opacity:0.24;}
	.st21{fill:#F4B985;}
	.st22{opacity:0.11;}
	.st23{opacity:0.25;fill:#101A46;}
	.st24{fill:#AA664F;}
	.st25{opacity:0.24;fill:#FFFFFF;}
	.st26{opacity:0.36;fill:#FD5852;}
	.st27{opacity:0.21;fill:#FFFFFF;}
	.st28{opacity:0.14;fill:#101A46;}
</style>
<g id="BACKGROUND">
	<rect class="st0" width="500" height="500"/>
</g>
<g id="OBJECTS">
	<path class="st1" d="M458.77,254.36c0,21.52-22.53,39.23-28.84,58.65c-6.54,20.13,1.06,47.65-11.13,64.41
		c-12.32,16.92-40.92,18.14-57.84,30.46c-16.76,12.19-26.69,39.09-46.82,45.63c-19.42,6.31-43.18-9.41-64.7-9.41
		c-21.52,0-45.28,15.72-64.7,9.41c-20.13-6.54-30.06-33.43-46.82-45.63c-16.92-12.32-45.53-13.53-57.84-30.46
		c-12.19-16.76-4.59-44.28-11.13-64.41c-6.31-19.42-28.84-37.12-28.84-58.65c0-21.52,22.53-39.23,28.84-58.65
		c6.54-20.13-1.06-47.65,11.13-64.41c12.32-16.92,40.92-18.14,57.84-30.46c16.76-12.19,26.69-39.09,46.82-45.63
		c19.42-6.31,43.18,9.41,64.7,9.41c21.52,0,45.28-15.72,64.7-9.41c20.13,6.54,30.06,33.43,46.82,45.63
		c16.92,12.32,45.53,13.53,57.84,30.46c12.19,16.76,4.59,44.28,11.13,64.41C436.24,215.14,458.77,232.84,458.77,254.36z"/>
	<g>
		<g>
			<path class="st2" d="M242.83,125.51l-12.41-48.98c0,0,24.82-10.45,33.31-9.8c0,0,11.1,37.88,14.37,49.64
				C278.1,116.37,256.55,126.82,242.83,125.51z"/>
			<polygon class="st2" points="216.05,131.39 213.44,120.29 223.24,115.71 228.46,128.12 233.03,126.16 230.42,113.76 
				258.51,105.92 280.71,99.39 285.28,113.1 291.81,111.14 289.86,96.77 309.45,91.55 323.82,138.57 224.54,164.05 			"/>
			<path class="st3" d="M277.65,141.4c-12.6,1.9-25.38,2.62-37.84-0.6c-8.77-2.27-16.69-6.39-24.19-11.23l0.43,1.83l8.49,32.66
				l99.27-25.47l-2.93-9.6C307.08,135.19,292.12,139.21,277.65,141.4z"/>
		</g>
		<path class="st4" d="M228.66,79.28c0,0,5.5-35.14,10.06-34.36c4.55,0.77,28.77,23.63,28.77,23.63S252.15,80.55,228.66,79.28z"/>
		<path class="st5" d="M232.54,59.41c-2.23,9.39-3.88,19.86-3.88,19.86c7.8,0.42,14.69-0.62,20.43-2.2
			C241.6,75.23,235.68,67.82,232.54,59.41z"/>
		<path class="st6" d="M259.59,96.99l-2.15-9.58c-0.63-2.79-3.43-4.56-6.22-3.94c-2.79,0.63-4.56,3.43-3.94,6.22l2.05,9.11
			C252.8,99.63,256.63,98.94,259.59,96.99z"/>
		
			<rect x="237.61" y="117.67" transform="matrix(0.9779 -0.2089 0.2089 0.9779 -19.5014 53.2709)" class="st7" width="9.8" height="2.61"/>
		
			<rect x="246.42" y="122.25" transform="matrix(0.9779 -0.2089 0.2089 0.9779 -20.2619 55.2137)" class="st7" width="9.8" height="2.61"/>
		
			<rect x="260.19" y="102.34" transform="matrix(0.9779 -0.2089 0.2089 0.9779 -15.8009 57.6507)" class="st7" width="9.8" height="2.61"/>
		
			<rect x="269.34" y="106.26" transform="matrix(0.9779 -0.2089 0.2089 0.9779 -16.4177 59.6468)" class="st7" width="9.8" height="2.61"/>
		<g class="st8">
			<path class="st2" d="M237.19,61.77c-0.17,0-0.34-0.01-0.51-0.02c-1.44-0.13-2.68-1.14-2.88-2.34c-0.14-0.84,0.28-1.57,1.14-1.96
				c0.25-0.11,0.54,0,0.65,0.24c0.11,0.25,0,0.54-0.24,0.65c-0.45,0.2-0.64,0.51-0.57,0.91c0.11,0.65,0.91,1.42,2,1.52
				c1.47,0.14,2.83-0.5,3.71-1.37c-0.95-1.52-0.98-3.33-0.05-4.87c0.07-0.11,0.18-0.19,0.31-0.22c0.13-0.03,0.26-0.01,0.38,0.07
				c1.79,1.15,1.73,3.2,0.91,4.62c-0.09,0.15-0.19,0.3-0.3,0.46c0.42,0.48,0.91,0.81,1.44,0.97c0.79,0.24,1.72,0.12,2.55-0.34
				c0.69-0.38,1.19-0.93,1.34-1.48c0.16-0.56,0.09-1.15-0.11-1.75c-0.65-0.69-1.06-1.5-1.13-2.35c-0.02-0.23,0.12-0.44,0.34-0.5
				c0.22-0.07,0.45,0.02,0.57,0.22c0.37,0.63,0.79,1.34,1.07,2.09c1.05,1.01,2.85,1.7,4.58,1.7c0.31-0.41,0.47-0.9,0.43-1.39
				c-0.04-0.6-0.36-1.17-0.89-1.61c-0.21-0.17-0.24-0.48-0.07-0.69c0.17-0.21,0.48-0.24,0.69-0.07c0.74,0.61,1.18,1.42,1.24,2.29
				c0.06,0.82-0.23,1.63-0.81,2.27c-0.09,0.1-0.21,0.16-0.34,0.16c-1.67,0.07-3.28-0.39-4.51-1.17c0.01,0.35-0.02,0.7-0.12,1.06
				c-0.22,0.81-0.88,1.57-1.81,2.08c-1.06,0.58-2.26,0.73-3.31,0.42c-0.68-0.21-1.29-0.6-1.82-1.17
				C240.14,61.08,238.77,61.77,237.19,61.77z M241.03,55.54c-0.41,0.98-0.36,2.07,0.13,3.04c0.01-0.02,0.03-0.04,0.04-0.07
				C241.69,57.65,241.89,56.42,241.03,55.54z"/>
		</g>
		<g class="st8">
			<path class="st2" d="M233.7,77.73c-2.05,0-3.83-0.86-4.24-2.14c-0.15-0.44-0.3-1.58,1.36-2.52c0.24-0.13,0.53-0.05,0.67,0.19
				c0.13,0.24,0.05,0.53-0.19,0.67c-0.43,0.24-1.12,0.74-0.91,1.36c0.28,0.87,2.03,1.66,4.06,1.42c2.67-0.32,4.93-1.64,6.26-3.08
				c-1.93-1.58-2.43-3.87-1.25-6.05c0.11-0.2,0.34-0.3,0.56-0.24c1.7,0.45,2.43,1.37,2.74,2.06c0.44,0.98,0.36,2.17-0.23,3.34
				c-0.11,0.22-0.25,0.45-0.4,0.68c0.88,0.51,1.85,0.79,2.88,0.82c3.02,0.08,6.24-2.01,6.52-3.71c0.13-0.76-0.13-1.48-0.62-2.18
				c-1.24-0.64-2.11-1.5-2.42-2.54c-0.06-0.21,0.02-0.43,0.2-0.55c0.18-0.12,0.42-0.1,0.59,0.04c0.78,0.67,1.65,1.43,2.3,2.29
				c2.12,0.99,5.44,1.32,8.62,0.66c0.5-0.66,0.68-1.33,0.51-1.97c-0.2-0.77-0.9-1.42-1.96-1.82c-0.25-0.1-0.38-0.38-0.28-0.63
				c0.1-0.25,0.38-0.38,0.63-0.28c1.36,0.52,2.27,1.41,2.56,2.49c0.26,0.98-0.03,2.04-0.81,2.97c-0.07,0.08-0.17,0.14-0.27,0.17
				c-2.96,0.65-5.96,0.51-8.24-0.23c0.2,0.55,0.27,1.13,0.17,1.76c-0.36,2.14-3.91,4.64-7.52,4.53c-1.24-0.04-2.4-0.39-3.46-1.02
				c0,0,0,0,0,0c-1.43,1.61-3.88,3.12-6.95,3.49C234.27,77.72,233.98,77.73,233.7,77.73z M240.14,68.4
				c-0.73,1.65-0.3,3.26,1.17,4.46c0.13-0.19,0.24-0.38,0.33-0.56c0.45-0.9,0.53-1.79,0.21-2.5
				C241.58,69.18,240.99,68.7,240.14,68.4z"/>
		</g>
		<path class="st9" d="M238.72,44.92l-3.07-8.23c0,0,9.14,1.96,14.37-2.61C255.24,29.5,252.9,42.04,238.72,44.92z"/>
	</g>
	<g>
		<g>
			<g>
				<path class="st10" d="M275.61,165.45c-0.53-8.9-0.48-19.22,6.38-24.9c4.8-3.97,11.79-4.52,16.47-8.64
					c10.43-9.18,3.56-29.9,15.19-37.51c3.92-2.56,8.94-2.74,13.15-4.8c5.11-2.5,8.48-7.48,11.3-12.41
					c2.82-4.94,5.42-10.18,9.73-13.89c4.31-3.7,10.94-5.45,15.72-2.37c6.05,3.89,5.94,12.92,3.27,19.6
					c-2.68,6.68-7.22,12.8-7.89,19.96c-0.77,8.31,3.74,17.38-0.38,24.64c-3.53,6.22-12.22,8.42-14.99,15.02
					c-1.52,3.61-0.87,7.71-0.8,11.63c0.27,15.67-10.36,30.93-25.14,36.13c-14.79,5.2-32.62-0.07-42.22-12.46L275.61,165.45z"/>
			</g>
			<path class="st11" d="M339.7,112.84c5.65,0,14.83-0.91,19.75-6.27l-0.72-0.66c-5.78,6.3-18.29,6.09-22.41,5.83
				c10.51-16.26,19.89-33.72,25.19-50.42l-0.93-0.3c-5.32,16.76-14.78,34.31-25.37,50.63c-0.03,0-0.06-0.01-0.08-0.01
				c-2.98-2.82-3.64-18.01-3.64-23.69h-0.98c0,0.86,0.05,21.17,4.1,24.54l0.04,0.03c-6.25,9.58-12.87,18.71-19.25,26.98
				c-9.66-8.15-9.38-24.6-9.37-24.77l-0.98-0.02c0,0.18-0.1,4.57,1.16,10.03c1.1,4.78,3.48,11.23,8.6,15.53
				c-7.82,10.1-15.24,18.88-21.12,25.58c-0.3-0.36-0.61-0.71-0.89-1.08c-8.96-11.68-5.75-26.28-5.72-26.43l-0.96-0.22
				c-0.03,0.15-3.35,15.18,5.89,27.24c0.33,0.42,0.67,0.83,1.02,1.24c-7.12,8.07-11.84,12.92-12.01,13.1l0.7,0.69
				c0.17-0.17,4.87-5,11.96-13.04c7.41,8.13,19.5,12.56,36.01,13.18l0.04-0.98c-16.28-0.61-28.17-4.96-35.39-12.94
				c5.91-6.72,13.37-15.55,21.24-25.72c0.05,0.04,0.1,0.09,0.16,0.13c3.62,2.68,8.03,4.03,13.2,4.03c4,0,8.46-0.81,13.34-2.42
				l-0.31-0.93c-10.86,3.59-19.49,3.1-25.64-1.46c-0.05-0.04-0.1-0.08-0.15-0.12c6.48-8.4,13.21-17.69,19.55-27.43
				C336.55,112.75,337.95,112.84,339.7,112.84z"/>
		</g>
		<g>
			<g>
				<path class="st10" d="M160.18,345.58c10.91-3.62,23.79-6.99,33.16-0.33c6.55,4.66,9.55,13.19,16.24,17.65
					c14.91,9.94,38.46-5.5,51.8,6.46c4.5,4.03,6.39,10.24,10.35,14.79c4.81,5.53,12.14,8.09,19.23,9.96
					c7.09,1.87,14.49,3.37,20.54,7.51c6.05,4.14,10.43,11.82,8.18,18.81c-2.84,8.83-14.13,11.71-23.34,10.59
					c-9.21-1.12-18.35-4.75-27.5-3.2c-10.61,1.8-20.42,10.44-30.83,7.71c-8.93-2.33-14.56-12.44-23.7-13.69
					c-5.01-0.69-9.9,1.48-14.76,2.87c-19.44,5.54-42-2.62-53.39-19.32s-10.76-40.68,1.5-56.76L160.18,345.58z"/>
			</g>
			<path class="st11" d="M247.06,407.96c1.88,7.04,6.06,18.19,14.38,22.53l0.59-1.12c-9.77-5.1-13.67-20.77-14.72-25.99
				c23.76,7.69,48.65,13.58,71.22,14.64l0.06-1.26c-22.66-1.06-47.69-7.02-71.54-14.78c-0.01-0.03-0.01-0.08-0.02-0.11
				c2.53-4.65,21.24-10.52,28.32-12.41l-0.33-1.22c-1.08,0.29-26.37,7.1-29.23,13.26l-0.03,0.06c-14.02-4.61-27.6-9.82-40.03-15.02
				c6.95-14.75,27.54-19.87,27.75-19.92l-0.3-1.23c-0.23,0.06-5.73,1.4-12.12,4.78c-5.6,2.96-12.84,8.08-16.5,15.88
				c-15.18-6.38-28.6-12.71-38.9-17.82c0.34-0.49,0.68-0.99,1.05-1.47c11.58-15.05,30.85-15.91,31.04-15.92l-0.04-1.26
				c-0.2,0.01-20.04,0.88-31.99,16.4c-0.42,0.55-0.81,1.12-1.2,1.68c-12.42-6.19-20.04-10.46-20.31-10.61l-0.62,1.1
				c0.27,0.15,7.85,4.4,20.23,10.57c-7.67,11.94-9.18,28.49-4.46,49.26l1.23-0.28c-4.65-20.5-3.18-36.76,4.36-48.42
				c10.34,5.13,23.83,11.5,39.12,17.92c-0.03,0.08-0.07,0.16-0.11,0.24c-2.14,5.4-2.35,11.35-0.63,17.79
				c1.33,4.99,3.82,10.27,7.45,15.82l1.06-0.69c-8.09-12.35-10.34-23.26-6.71-32.45c0.03-0.08,0.07-0.15,0.1-0.22
				c12.63,5.28,26.44,10.58,40.69,15.24C246.13,404.01,246.48,405.78,247.06,407.96z"/>
		</g>
	</g>
	<g>
		<g>
			<path class="st9" d="M55.97,169.73l8.66,222.22c0,0,111.34-45.76,185.03-8.28l-0.1-225.25
				C249.55,158.42,165.64,99.5,55.97,169.73z"/>
			<path class="st12" d="M83.94,151.12l-18.39,17.72l6.71,212.63c0,0,102.91-49.11,176.53-8.44L250.75,151
				C250.75,151,175.97,115.62,83.94,151.12z"/>
			<path class="st2" d="M249.22,349.66L250.75,151c0,0-80.96-46.12-166.82,0.12l8.09,195.65
				C92.02,346.77,180.88,310.15,249.22,349.66z"/>
			<path class="st13" d="M72.26,381.47l19.76-34.7c0,0,102.69-37.42,157.2,2.89l-0.43,23.37
				C248.79,373.03,193.24,331.63,72.26,381.47z"/>
			<path class="st9" d="M442.91,171.59l-9.68,222.18c0,0-111.13-46.27-184.99-9.13l1.13-225.25
				C249.38,159.39,333.56,100.86,442.91,171.59z"/>
			<path class="st12" d="M415.03,152.85l18.31,17.81l-7.68,212.59c0,0-106.24-50.61-180.05-10.28l2.61-221
				C248.21,151.97,323.16,116.94,415.03,152.85z"/>
			<path class="st2" d="M248.84,350.64l-0.62-198.67c0,0,81.17-45.75,166.81,0.88l-8.98,195.61
				C406.05,348.46,317.35,311.44,248.84,350.64z"/>
			<path class="st13" d="M425.65,383.25l-19.61-34.79c0,0-106.42-36.82-161.11,3.25l0.67,21.26
				C245.6,372.97,304.9,332.86,425.65,383.25z"/>
			<path class="st14" d="M77.45,157.37L80,206.54l2.38,49.18l2.38,49.18c0.79,16.39,1.62,32.78,2.31,49.18l-0.71-0.44
				c12.65-5.07,25.75-8.82,39.02-11.73c13.28-2.88,26.79-4.77,40.37-5.37c6.79-0.35,13.59-0.27,20.38,0.1
				c6.79,0.35,13.55,1.15,20.23,2.36c6.7,1.14,13.28,2.91,19.74,4.97l4.81,1.66c1.6,0.57,3.15,1.26,4.73,1.88l2.36,0.96
				c0.78,0.33,1.54,0.72,2.31,1.07l4.6,2.17l-4.63-2.12c-0.77-0.35-1.54-0.72-2.32-1.04l-2.37-0.93c-1.58-0.6-3.14-1.27-4.75-1.82
				l-4.83-1.6c-6.48-1.97-13.06-3.67-19.75-4.72c-6.68-1.1-13.42-1.93-20.18-2.23c-6.76-0.35-13.55-0.39-20.31-0.02
				c-13.53,0.66-26.99,2.59-40.22,5.52c-13.21,2.95-26.29,6.75-38.81,11.84l-0.67,0.27l-0.04-0.72
				c-0.82-16.39-1.51-32.79-2.25-49.18l-2.18-49.19l-2.18-49.19L77.45,157.37z"/>
			<path class="st14" d="M70.99,161.5l3.07,50.24l2.89,50.25l2.89,50.25c0.96,16.75,1.96,33.5,2.83,50.25l-0.67-0.46
				c13.29-4.19,26.8-7.52,40.43-10.29c6.82-1.37,13.67-2.57,20.55-3.57c6.88-0.98,13.8-1.77,20.73-2.33
				c13.86-1.04,27.85-1.21,41.66,0.56c6.91,0.84,13.75,2.26,20.39,4.31c6.64,2.06,13.09,4.78,19.02,8.41
				c-5.97-3.57-12.44-6.21-19.09-8.18c-6.65-1.98-13.49-3.31-20.38-4.07c-13.78-1.63-27.73-1.46-41.55-0.35
				c-6.91,0.59-13.81,1.4-20.67,2.41c-6.86,1.03-13.7,2.26-20.49,3.65c-13.59,2.81-27.08,6.2-40.28,10.42l-0.63,0.2l-0.04-0.66
				c-0.99-16.75-1.85-33.5-2.76-50.26l-2.69-50.26l-2.69-50.26L70.99,161.5z"/>
			<path class="st14" d="M65.55,168.84l2.79,51.03l2.61,51.04l2.61,51.04c0.85,17.01,1.78,34.03,2.56,51.04l-0.68-0.46
				c13.85-4.53,27.93-8.19,42.15-11.28c14.22-3.08,28.59-5.43,43.08-6.85c14.48-1.33,29.09-1.78,43.58-0.26
				c7.24,0.72,14.42,2.07,21.42,4.05c6.99,1.99,13.8,4.7,20.06,8.4c-6.3-3.63-13.14-6.25-20.13-8.16c-7-1.9-14.18-3.16-21.4-3.8
				c-7.22-0.65-14.48-0.96-21.74-0.83c-7.25,0.14-14.5,0.58-21.73,1.29c-14.44,1.47-28.78,3.88-42.96,7
				c-14.17,3.14-28.24,6.85-42,11.41l-0.65,0.21l-0.04-0.68c-0.9-17.01-1.65-34.03-2.47-51.05l-2.42-51.05l-2.42-51.05L65.55,168.84
				z"/>
			<path class="st14" d="M248.84,350.64c6.21-2.67,12.69-4.68,19.22-6.46c6.54-1.73,13.17-3.15,19.84-4.24
				c6.68-1.11,13.42-1.83,20.17-2.29c6.75-0.47,13.53-0.61,20.3-0.43c3.39,0.03,6.77,0.27,10.15,0.44
				c3.37,0.29,6.75,0.51,10.11,0.94c6.74,0.71,13.42,1.84,20.07,3.15c13.27,2.73,26.31,6.56,38.95,11.43l-0.69,0.44
				c0.95-16.28,2.02-32.55,3.05-48.82l3.12-48.81l3.12-48.81l3.3-48.8l-2.75,48.84l-2.92,48.83l-2.92,48.83
				c-0.98,16.28-1.92,32.55-2.99,48.82l-0.05,0.69l-0.65-0.25c-12.57-4.9-25.55-8.77-38.76-11.54c-6.61-1.33-13.27-2.48-19.98-3.22
				c-3.35-0.44-6.72-0.67-10.08-0.97c-3.37-0.18-6.74-0.44-10.11-0.48c-13.5-0.42-27.02,0.51-40.38,2.52
				c-6.68,1.01-13.31,2.34-19.86,4C261.58,346.11,255.08,348.04,248.84,350.64z"/>
			<path class="st14" d="M249.08,357.1c13.55-4.01,27.46-6.72,41.46-8.63c14.01-1.85,28.17-2.71,42.31-2.4
				c7.07,0.12,14.14,0.61,21.16,1.4c7.04,0.75,14.02,1.93,20.94,3.44c6.93,1.45,13.73,3.48,20.43,5.76l4.99,1.83
				c1.66,0.62,3.27,1.36,4.91,2.03l2.45,1.03c0.81,0.35,1.6,0.76,2.4,1.14l4.79,2.3l-0.74,0.43c0.87-16.72,1.87-33.43,2.82-50.15
				l2.88-50.15l2.88-50.15l3.06-50.14l-2.51,50.17l-2.68,50.16l-2.68,50.16c-0.9,16.72-1.76,33.44-2.75,50.15l-0.05,0.77l-0.7-0.34
				l-4.75-2.31c-0.79-0.38-1.58-0.78-2.38-1.14l-2.43-1.03c-1.62-0.68-3.23-1.41-4.87-2.04l-4.95-1.83
				c-6.65-2.3-13.41-4.34-20.3-5.81c-6.88-1.53-13.83-2.74-20.84-3.51c-7-0.82-14.04-1.33-21.09-1.48
				c-14.1-0.39-28.23,0.47-42.23,2.19C276.61,350.69,262.67,353.24,249.08,357.1z"/>
			<path class="st14" d="M250.01,364.55c6.87-2.39,13.92-4.26,21.01-5.87c7.1-1.6,14.27-2.9,21.48-3.89
				c14.43-1.95,29.04-2.65,43.59-2.03c14.55,0.66,29.06,2.66,43.19,6.3l2.65,0.67l2.62,0.77c1.75,0.52,3.5,1,5.24,1.55
				c3.44,1.2,6.94,2.25,10.31,3.64c6.85,2.51,13.43,5.69,19.94,8.98l-0.75,0.42c1.06-17.04,2.27-34.08,3.42-51.11l3.48-51.11
				l3.48-51.11l3.66-51.1l-3.1,51.13l-3.28,51.12l-3.28,51.12c-1.11,17.04-2.15,34.08-3.34,51.12l-0.05,0.77l-0.7-0.35
				c-6.46-3.29-12.99-6.48-19.8-9c-3.35-1.39-6.83-2.45-10.25-3.66c-1.73-0.55-3.48-1.04-5.21-1.56l-2.61-0.77l-2.64-0.67
				c-14.05-3.67-28.5-5.73-43.01-6.44c-14.51-0.7-29.08,0-43.5,1.82c-7.21,0.91-14.38,2.12-21.49,3.64
				C263.97,360.45,256.9,362.23,250.01,364.55z"/>
		</g>
		<g>
			<g class="st15">
				<path class="st4" d="M243.38,332.93c-43.94-29.63-130-4.12-130.86-3.85l-0.66,0.2l0.03-0.69c0.22-5.22-0.93-8.98-3.41-11.17
					c-3.04-2.69-7.08-2.05-7.12-2.04l-0.55,0.09l-0.02-0.56l-4.57-160.02l0.98-0.03l4.56,159.48c1.31-0.1,4.66-0.07,7.38,2.34
					c2.6,2.3,3.86,6.09,3.76,11.26c8.1-2.32,88.75-24.35,131.04,4.17L243.38,332.93z"/>
			</g>
			<g class="st15">
				<path class="st4" d="M387.92,333.36l-0.8-0.4c-0.2-0.1-20.36-10.16-47.41-15.15c-24.93-4.6-60.99-5.71-91.21,15.11l-0.56-0.81
					c30.5-21.01,66.85-19.9,91.97-15.26c24.19,4.46,42.89,12.96,46.87,14.85c-0.28-4.19,0.6-7.23,2.61-9.06
					c2.1-1.9,4.8-1.9,5.97-1.79l5.2-164.36l-12.1-5.09c-70.15-19.3-136.77,7.57-137.43,7.84l-0.37-0.91
					c0.67-0.28,67.59-27.27,138.13-7.86l12.78,5.38l-0.01,0.34l-5.24,165.82l-0.57-0.11c-0.03-0.01-3.37-0.63-5.69,1.48
					c-1.9,1.73-2.64,4.79-2.21,9.09L387.92,333.36z"/>
			</g>
		</g>
	</g>
	<g>
		<g>
			<g>
				<path class="st16" d="M426.27,351.64c20-40.64,30.49-86.99,30.46-134.09c0-1.75,2.36-1.44,2.36,0.29
					c0.03,47.61-10.67,94.36-30.88,135.42C427.47,354.76,425.53,353.13,426.27,351.64L426.27,351.64z"/>
			</g>
			<g>
				<g>
					<path class="st16" d="M457.43,235.97c4.6-7.82,9.08-17.01,7.13-26.32c-0.31-1.5-0.82-3-1.75-4.12
						c-2.37-2.82-6.76-1.93-8.94,0.96c-2.18,2.89-2.61,7.05-2.4,10.92c0.33,6.28,2.1,12.5,5.09,17.85L457.43,235.97z"/>
				</g>
				<g class="st17">
					<path class="st6" d="M458,228.55c2.48-4.23,4.91-9.19,3.85-14.23c-0.17-0.81-0.44-1.62-0.95-2.22
						c-1.28-1.52-3.65-1.04-4.83,0.52c-1.18,1.56-1.41,3.81-1.3,5.9c0.18,3.4,1.14,6.75,2.75,9.65L458,228.55z"/>
				</g>
				<path class="st18" d="M457.52,228.17c0.84-2.62,1.36-5.35,1.69-8.13c0.15-1.39,0.25-2.8,0.21-4.21
					c-0.02-0.71-0.07-1.42-0.2-2.13c-0.14-0.69-0.33-1.43-0.77-1.95c0.29,0.63,0.37,1.31,0.39,2c0.03,0.68,0,1.37-0.04,2.05
					c-0.08,1.37-0.22,2.74-0.37,4.11C458.13,222.65,457.76,225.38,457.52,228.17z"/>
			</g>
			<g>
				<g>
					<path class="st16" d="M456.26,255.06c0.03-9.52-0.7-20.14-6.77-26.81c-0.98-1.07-2.11-2.03-3.42-2.38
						c-3.3-0.89-6.49,2.62-6.89,6.45c-0.41,3.83,1.24,7.62,3.26,10.77c3.29,5.12,7.73,9.27,12.75,11.92L456.26,255.06z"/>
				</g>
				<g class="st17">
					<path class="st6" d="M453.18,248.41c0.01-5.15-0.38-10.89-3.66-14.49c-0.53-0.58-1.14-1.1-1.85-1.29
						c-1.79-0.48-3.51,1.42-3.73,3.49c-0.22,2.07,0.67,4.12,1.76,5.82c1.78,2.77,4.18,5.01,6.89,6.45L453.18,248.41z"/>
				</g>
				<path class="st18" d="M452.6,248.38c-0.57-2.75-1.45-5.4-2.51-7.96c-0.55-1.27-1.14-2.53-1.85-3.7
					c-0.36-0.59-0.74-1.16-1.18-1.68c-0.45-0.49-0.96-1.01-1.57-1.17c0.54,0.35,0.94,0.88,1.28,1.45c0.35,0.56,0.66,1.16,0.96,1.76
					c0.59,1.21,1.14,2.46,1.67,3.72C450.45,243.32,451.45,245.87,452.6,248.38z"/>
			</g>
			<g>
				<g>
					<path class="st16" d="M454.87,265.08c7.45-4.04,15.39-9.32,17.76-18.39c0.38-1.46,0.6-3.03,0.26-4.52
						c-0.85-3.77-5.08-5.53-8.26-4.31c-3.18,1.22-5.37,4.52-6.88,7.94c-2.45,5.56-3.62,11.88-3.34,18.17L454.87,265.08z"/>
				</g>
				<g class="st17">
					<path class="st6" d="M458.61,259.08c4.03-2.18,8.32-5.04,9.6-9.94c0.21-0.79,0.32-1.64,0.14-2.44
						c-0.46-2.04-2.75-2.99-4.47-2.33c-1.72,0.66-2.9,2.44-3.72,4.29c-1.33,3-1.95,6.42-1.81,9.82L458.61,259.08z"/>
				</g>
				<path class="st18" d="M458.36,258.48c1.88-1.76,3.54-3.79,5.04-5.97c0.74-1.1,1.44-2.24,2.02-3.48
					c0.29-0.62,0.56-1.26,0.76-1.93c0.17-0.67,0.34-1.41,0.17-2.11c-0.02,0.7-0.25,1.33-0.53,1.93c-0.27,0.6-0.6,1.17-0.93,1.73
					c-0.67,1.12-1.39,2.22-2.12,3.29C461.31,254.11,459.78,256.23,458.36,258.48z"/>
			</g>
			<g>
				<g>
					<path class="st16" d="M452.16,279.92c0.03-9.52-0.7-20.14-6.77-26.81c-0.98-1.07-2.11-2.03-3.42-2.38
						c-3.3-0.89-6.49,2.62-6.89,6.45c-0.41,3.83,1.24,7.62,3.26,10.77c3.29,5.12,7.73,9.27,12.75,11.92L452.16,279.92z"/>
				</g>
				<g class="st17">
					<path class="st6" d="M449.07,273.27c0.01-5.15-0.38-10.89-3.66-14.49c-0.53-0.58-1.14-1.1-1.85-1.29
						c-1.79-0.48-3.51,1.42-3.73,3.49c-0.22,2.07,0.67,4.12,1.76,5.82c1.78,2.77,4.18,5.01,6.89,6.45L449.07,273.27z"/>
				</g>
				<path class="st18" d="M448.5,273.25c-0.57-2.75-1.45-5.4-2.51-7.96c-0.55-1.27-1.14-2.53-1.85-3.7
					c-0.36-0.59-0.74-1.16-1.18-1.68c-0.45-0.49-0.96-1.01-1.57-1.17c0.54,0.35,0.94,0.88,1.28,1.45c0.35,0.56,0.66,1.16,0.96,1.76
					c0.59,1.21,1.14,2.46,1.67,3.72C446.35,268.18,447.35,270.74,448.5,273.25z"/>
			</g>
			<g>
				<g>
					<path class="st16" d="M446.89,301.05c0.03-9.52-0.7-20.14-6.77-26.81c-0.98-1.07-2.11-2.03-3.42-2.38
						c-3.3-0.89-6.49,2.62-6.89,6.45c-0.41,3.83,1.24,7.62,3.26,10.77c3.29,5.12,7.73,9.27,12.75,11.92L446.89,301.05z"/>
				</g>
				<g class="st17">
					<path class="st6" d="M443.8,294.4c0.01-5.15-0.38-10.89-3.66-14.49c-0.53-0.58-1.14-1.1-1.85-1.29
						c-1.79-0.48-3.51,1.42-3.73,3.49c-0.22,2.07,0.67,4.12,1.76,5.82c1.78,2.77,4.18,5.01,6.89,6.45L443.8,294.4z"/>
				</g>
				<path class="st18" d="M443.22,294.38c-0.57-2.75-1.45-5.4-2.51-7.96c-0.55-1.27-1.14-2.53-1.85-3.7
					c-0.36-0.59-0.74-1.16-1.18-1.68c-0.45-0.49-0.96-1.01-1.57-1.17c0.54,0.35,0.94,0.88,1.28,1.45c0.35,0.56,0.66,1.16,0.96,1.76
					c0.59,1.21,1.14,2.46,1.67,3.72C441.07,289.31,442.08,291.87,443.22,294.38z"/>
			</g>
			<g>
				<g>
					<path class="st16" d="M439.25,325.52c0.03-9.52-0.7-20.14-6.77-26.81c-0.98-1.07-2.11-2.03-3.42-2.38
						c-3.3-0.89-6.49,2.62-6.89,6.45c-0.41,3.83,1.24,7.62,3.26,10.77c3.29,5.12,7.73,9.27,12.75,11.92L439.25,325.52z"/>
				</g>
				<g class="st17">
					<path class="st6" d="M436.16,318.87c0.01-5.15-0.38-10.89-3.66-14.49c-0.53-0.58-1.14-1.1-1.85-1.29
						c-1.79-0.48-3.51,1.42-3.73,3.49c-0.22,2.07,0.67,4.12,1.76,5.82c1.78,2.77,4.18,5.01,6.89,6.45L436.16,318.87z"/>
				</g>
				<path class="st18" d="M435.58,318.85c-0.57-2.75-1.45-5.4-2.51-7.96c-0.55-1.27-1.14-2.53-1.85-3.7
					c-0.36-0.59-0.74-1.16-1.18-1.68c-0.45-0.49-0.96-1.01-1.57-1.17c0.54,0.35,0.94,0.88,1.28,1.45c0.35,0.56,0.66,1.16,0.96,1.76
					c0.59,1.21,1.14,2.46,1.67,3.72C433.43,313.78,434.44,316.34,435.58,318.85z"/>
			</g>
			<g>
				<g>
					<path class="st16" d="M449.48,290.97c7.92-2.71,16.49-6.55,20.01-15.08c0.57-1.37,0.99-2.88,0.85-4.41
						c-0.35-3.86-4.32-6.32-7.64-5.66c-3.31,0.66-5.92,3.54-7.86,6.65c-3.16,5.06-5.13,11.09-5.68,17.33L449.48,290.97z"/>
				</g>
				<g class="st17">
					<path class="st6" d="M453.98,285.7c4.28-1.46,8.91-3.54,10.82-8.15c0.31-0.74,0.53-1.56,0.46-2.38
						c-0.19-2.08-2.34-3.42-4.13-3.06c-1.79,0.35-3.2,1.91-4.25,3.59c-1.71,2.73-2.78,5.99-3.07,9.37L453.98,285.7z"/>
				</g>
				<path class="st18" d="M453.81,285.06c2.1-1.41,4-3.13,5.77-5.02c0.87-0.96,1.72-1.97,2.46-3.08c0.37-0.56,0.72-1.14,1-1.77
					c0.26-0.63,0.52-1.33,0.45-2.05c-0.11,0.69-0.42,1.27-0.78,1.81c-0.35,0.54-0.75,1.05-1.15,1.55c-0.81,0.99-1.66,1.95-2.53,2.88
					C457.3,281.26,455.51,283.09,453.81,285.06z"/>
			</g>
			<g>
				<g>
					<path class="st16" d="M441.8,317.04c8.19-1.42,17.17-3.86,21.7-11.73c0.73-1.27,1.33-2.69,1.37-4.22
						c0.11-3.86-3.53-6.92-6.91-6.8c-3.37,0.12-6.31,2.56-8.61,5.32c-3.75,4.49-6.44,10.14-7.73,16.21L441.8,317.04z"/>
				</g>
				<g class="st17">
					<path class="st6" d="M446.9,312.54c4.43-0.77,9.28-2.08,11.73-6.34c0.39-0.68,0.72-1.45,0.74-2.28
						c0.06-2.09-1.91-3.74-3.73-3.67c-1.82,0.07-3.41,1.38-4.65,2.88c-2.02,2.43-3.48,5.48-4.18,8.76L446.9,312.54z"/>
				</g>
				<path class="st18" d="M446.81,311.89c2.25-1.06,4.35-2.46,6.34-4.05c0.98-0.81,1.95-1.67,2.82-2.66
					c0.44-0.49,0.85-1.01,1.21-1.59c0.33-0.58,0.68-1.23,0.69-1.95c-0.19,0.67-0.57,1.19-0.99,1.66c-0.41,0.48-0.87,0.92-1.33,1.35
					c-0.93,0.85-1.89,1.66-2.87,2.45C450.74,308.69,448.74,310.21,446.81,311.89z"/>
			</g>
		</g>
		<g>
			<g>
				<path class="st16" d="M118.03,371.92c-37.32-40.14-63.85-89.49-76.89-142.72c-0.48-1.97-3.47-0.95-2.99,1.01
					c13.18,53.8,40.1,103.54,77.81,144.09C117.34,375.78,119.41,373.39,118.03,371.92L118.03,371.92z"/>
			</g>
			<g>
				<g>
					<path class="st16" d="M45.35,250.22c-8.15-7.51-16.54-16.6-16.59-27.68c-0.01-1.78,0.23-3.63,1.14-5.16
						c2.31-3.87,8.26-4.13,11.91-1.49c3.65,2.64,5.36,7.21,6.16,11.64c1.31,7.19,0.73,14.73-1.67,21.63L45.35,250.22z"/>
				</g>
				<g class="st17">
					<path class="st6" d="M42.54,242.01c-4.41-4.06-8.94-8.97-8.97-14.96c0-0.96,0.12-1.96,0.62-2.79c1.25-2.09,4.47-2.23,6.44-0.81
						c1.97,1.43,2.89,3.9,3.33,6.29c0.71,3.89,0.4,7.96-0.9,11.69L42.54,242.01z"/>
				</g>
				<path class="st18" d="M43.06,241.43c-1.82-2.72-3.26-5.66-4.46-8.7c-0.58-1.53-1.1-3.09-1.44-4.7c-0.17-0.81-0.3-1.63-0.33-2.46
					c0-0.82,0.02-1.71,0.46-2.43c-0.21,0.79-0.12,1.59,0.05,2.37c0.15,0.78,0.38,1.55,0.62,2.31c0.49,1.52,1.04,3.03,1.63,4.53
					C40.73,235.37,41.98,238.35,43.06,241.43z"/>
			</g>
			<g>
				<g>
					<path class="st16" d="M52.16,271.45c-2.68-10.75-4.68-22.96,1.37-32.24c0.97-1.49,2.18-2.9,3.79-3.68
						c4.05-1.96,9.17,1.09,10.77,5.3c1.59,4.21,0.51,8.97-1.26,13.11c-2.86,6.73-7.49,12.7-13.29,17.15L52.16,271.45z"/>
				</g>
				<g class="st17">
					<path class="st6" d="M54.33,263.05c-1.45-5.81-2.53-12.41,0.74-17.43c0.53-0.81,1.18-1.57,2.05-1.99
						c2.19-1.06,4.96,0.59,5.82,2.87c0.86,2.28,0.27,4.85-0.68,7.09c-1.55,3.64-4.05,6.86-7.18,9.27L54.33,263.05z"/>
				</g>
				<path class="st18" d="M55.08,262.85c-0.03-3.27,0.39-6.52,1.06-9.72c0.36-1.59,0.78-3.18,1.39-4.72
					c0.3-0.77,0.64-1.52,1.07-2.24c0.45-0.69,0.96-1.42,1.72-1.77c-0.61,0.55-0.97,1.26-1.26,2c-0.3,0.74-0.53,1.5-0.76,2.27
					c-0.43,1.54-0.8,3.11-1.14,4.68C56.47,256.51,55.88,259.68,55.08,262.85z"/>
			</g>
			<g>
				<g>
					<path class="st16" d="M56.77,282.37c-10.82-2.41-22.63-6.09-28.22-15.65c-0.9-1.54-1.62-3.25-1.59-5.03
						c0.06-4.5,5.08-7.72,9.56-7.26c4.48,0.46,8.25,3.56,11.16,6.99c4.74,5.57,8.01,12.38,9.39,19.56L56.77,282.37z"/>
				</g>
				<g class="st17">
					<path class="st6" d="M50.23,276.67c-5.85-1.31-12.23-3.29-15.25-8.46c-0.49-0.83-0.87-1.76-0.86-2.72
						c0.03-2.43,2.75-4.17,5.17-3.92c2.42,0.25,4.46,1.92,6.03,3.78c2.56,3.01,4.33,6.69,5.08,10.57L50.23,276.67z"/>
				</g>
				<path class="st18" d="M50.39,275.92c-2.94-1.44-5.66-3.26-8.21-5.3c-1.26-1.03-2.5-2.12-3.6-3.35
					c-0.55-0.61-1.07-1.26-1.52-1.96c-0.41-0.71-0.84-1.5-0.81-2.33c0.22,0.79,0.69,1.44,1.23,2.02c0.52,0.6,1.11,1.15,1.69,1.69
					c1.18,1.07,2.42,2.1,3.68,3.11C45.33,271.83,47.91,273.79,50.39,275.92z"/>
			</g>
			<g>
				<g>
					<path class="st16" d="M64.41,298.36c-2.68-10.75-4.68-22.96,1.37-32.24c0.97-1.49,2.18-2.9,3.79-3.68
						c4.05-1.96,9.17,1.09,10.77,5.3c1.59,4.21,0.51,8.97-1.26,13.11c-2.86,6.73-7.49,12.7-13.29,17.15L64.41,298.36z"/>
				</g>
				<g class="st17">
					<path class="st6" d="M66.58,289.95c-1.45-5.81-2.53-12.41,0.74-17.43c0.53-0.81,1.18-1.57,2.05-1.99
						c2.19-1.06,4.96,0.59,5.82,2.87c0.86,2.28,0.27,4.85-0.68,7.09c-1.55,3.64-4.05,6.86-7.18,9.27L66.58,289.95z"/>
				</g>
				<path class="st18" d="M67.33,289.76c-0.03-3.27,0.39-6.52,1.06-9.72c0.36-1.59,0.78-3.18,1.39-4.72
					c0.3-0.77,0.64-1.52,1.07-2.24c0.45-0.69,0.96-1.42,1.72-1.77c-0.61,0.55-0.97,1.26-1.26,2c-0.3,0.74-0.53,1.5-0.76,2.27
					c-0.43,1.54-0.8,3.11-1.14,4.68C68.72,283.42,68.12,286.59,67.33,289.76z"/>
			</g>
			<g>
				<g>
					<path class="st16" d="M77.14,320.71c-2.68-10.75-4.68-22.96,1.37-32.24c0.97-1.49,2.18-2.9,3.79-3.68
						c4.05-1.96,9.17,1.09,10.77,5.3c1.59,4.21,0.51,8.97-1.26,13.11c-2.86,6.73-7.49,12.7-13.29,17.15L77.14,320.71z"/>
				</g>
				<g class="st17">
					<path class="st6" d="M79.32,312.31c-1.45-5.81-2.53-12.41,0.74-17.43c0.53-0.81,1.18-1.57,2.05-1.99
						c2.19-1.06,4.96,0.59,5.82,2.87c0.86,2.28,0.27,4.85-0.68,7.09c-1.55,3.64-4.05,6.86-7.18,9.27L79.32,312.31z"/>
				</g>
				<path class="st18" d="M80.06,312.11c-0.03-3.27,0.39-6.52,1.06-9.72c0.36-1.59,0.78-3.18,1.39-4.72
					c0.3-0.77,0.64-1.52,1.07-2.24c0.45-0.69,0.96-1.42,1.72-1.77c-0.61,0.55-0.97,1.26-1.26,2c-0.3,0.74-0.53,1.5-0.76,2.27
					c-0.43,1.54-0.8,3.11-1.14,4.68C81.45,305.77,80.86,308.94,80.06,312.11z"/>
			</g>
			<g>
				<g>
					<path class="st16" d="M93.88,346.15c-2.68-10.75-4.68-22.96,1.37-32.24c0.97-1.49,2.18-2.9,3.79-3.68
						c4.05-1.96,9.17,1.09,10.77,5.3c1.59,4.21,0.51,8.97-1.26,13.11c-2.86,6.73-7.49,12.7-13.29,17.15L93.88,346.15z"/>
				</g>
				<g class="st17">
					<path class="st6" d="M96.06,337.75c-1.45-5.81-2.53-12.41,0.74-17.43c0.53-0.81,1.18-1.57,2.05-1.99
						c2.19-1.06,4.96,0.59,5.82,2.87c0.86,2.28,0.27,4.85-0.68,7.09c-1.55,3.64-4.05,6.86-7.18,9.27L96.06,337.75z"/>
				</g>
				<path class="st18" d="M96.8,337.56c-0.03-3.27,0.39-6.52,1.06-9.72c0.36-1.59,0.78-3.18,1.39-4.72c0.3-0.77,0.64-1.52,1.07-2.24
					c0.45-0.69,0.96-1.42,1.72-1.77c-0.61,0.55-0.97,1.26-1.26,2c-0.3,0.74-0.53,1.5-0.76,2.27c-0.43,1.54-0.8,3.11-1.14,4.68
					C98.19,331.21,97.6,334.39,96.8,337.56z"/>
			</g>
			<g>
				<g>
					<path class="st16" d="M70.97,310.07c-11.06-0.77-23.28-2.64-30.24-11.27c-1.12-1.39-2.09-2.97-2.33-4.74
						c-0.61-4.46,3.87-8.39,8.37-8.6c4.5-0.21,8.69,2.29,12.08,5.25c5.52,4.8,9.76,11.05,12.21,17.94L70.97,310.07z"/>
				</g>
				<g class="st17">
					<path class="st6" d="M63.65,305.41c-5.98-0.42-12.58-1.43-16.35-6.09c-0.6-0.75-1.13-1.61-1.26-2.56
						c-0.33-2.41,2.09-4.53,4.52-4.65c2.43-0.12,4.69,1.24,6.53,2.84c2.98,2.6,5.28,5.97,6.6,9.7L63.65,305.41z"/>
				</g>
				<path class="st18" d="M63.69,304.64c-3.12-0.99-6.08-2.38-8.91-4.01c-1.4-0.83-2.79-1.72-4.06-2.78
					c-0.64-0.52-1.25-1.08-1.8-1.71c-0.51-0.64-1.05-1.35-1.15-2.18c0.33,0.75,0.9,1.32,1.52,1.82c0.61,0.51,1.26,0.97,1.92,1.42
					c1.33,0.89,2.71,1.72,4.1,2.53C58.09,301.36,60.92,302.9,63.69,304.64z"/>
			</g>
			<g>
				<g>
					<path class="st16" d="M88.21,337.3c-11.06,0.76-23.42,0.59-31.51-6.99c-1.3-1.22-2.48-2.66-2.96-4.37
						c-1.22-4.33,2.68-8.84,7.1-9.67c4.42-0.83,8.92,1.07,12.69,3.53c6.13,4,11.19,9.59,14.56,16.09L88.21,337.3z"/>
				</g>
				<g class="st17">
					<path class="st6" d="M80.32,333.7c-5.98,0.41-12.66,0.32-17.03-3.78c-0.7-0.66-1.34-1.44-1.6-2.36
						c-0.66-2.34,1.45-4.78,3.84-5.23c2.39-0.45,4.82,0.58,6.86,1.91c3.31,2.16,6.05,5.19,7.87,8.69L80.32,333.7z"/>
				</g>
				<path class="st18" d="M80.26,332.93c-3.23-0.55-6.35-1.52-9.38-2.74c-1.51-0.63-3-1.32-4.4-2.19c-0.7-0.43-1.39-0.9-2.02-1.45
					c-0.6-0.56-1.23-1.2-1.44-2c0.43,0.7,1.07,1.18,1.75,1.59c0.67,0.43,1.39,0.79,2.1,1.14c1.44,0.69,2.92,1.33,4.41,1.94
					C74.25,330.45,77.27,331.59,80.26,332.93z"/>
			</g>
		</g>
	</g>
	<g>
		<g>
			<g>
				<defs>
					<path id="SVGID_1_" d="M60.01,163.17c6.94-18.69,14.93-37.59,31.66-48.43c16.73-10.84,37.02-15.27,56.96-15.37
						c17.47-0.09,35.72,3.34,49.41,14.19c11.09,8.8,18.15,21.57,27.2,32.46c9.05,10.89,21.94,20.54,36.02,19.02
						c-2.1,10.65-13.11,17.71-23.92,18.71c-10.81,1.01-21.46-2.7-31.6-6.58c-18.68-7.14-37.3-15.1-57.08-18s-41.37-0.09-56.96,12.44
						c-5.92,4.75-10.75,10.72-15.1,16.94c-8.34,11.94-15.06,25-19.91,38.73C56.68,227.27,48.05,195.34,60.01,163.17z"/>
				</defs>
				<use xlink:href="#SVGID_1_"  style="overflow:visible;fill:#FD5852;"/>
				<clipPath id="SVGID_2_">
					<use xlink:href="#SVGID_1_"  style="overflow:visible;"/>
				</clipPath>
				
					<ellipse transform="matrix(0.7232 -0.6906 0.6906 0.7232 -21.0099 157.007)" class="st19" cx="185.37" cy="104.71" rx="22.21" ry="22.82"/>
				<path class="st19" d="M92.19,115.15c4.98,5.21,4.9,13.36-0.17,18.2c-5.07,4.84-13.21,4.54-18.19-0.67
					c-4.98-5.21-4.9-13.36,0.17-18.2S87.21,109.94,92.19,115.15z"/>
			</g>
			<g class="st20">
				<path class="st2" d="M61.08,164.56c8.45-19.6,22.55-37.18,41.97-46.75c20.51-10.1,45.41-12.26,67.55-6.86
					c20.62,5.03,35.13,20.21,52.03,31.81c-7.86-10.1-14.6-21.27-24.6-29.21c-13.69-10.86-31.94-14.29-49.41-14.19
					c-19.93,0.1-40.23,4.53-56.96,15.37s-24.72,29.74-31.66,48.43c-2.55,6.87-4.16,13.72-5.12,20.26
					C56.41,176.95,58.47,170.62,61.08,164.56z"/>
			</g>
			<g>
				<path class="st21" d="M232.74,168.82c-8.86-3.86-16.6-9.61-24.59-14.93c-8.65-5.76-17.6-10.25-27.65-13.03
					c-18.62-5.16-39.14-6.08-57.71-0.37c-31.56,9.7-59.99,35.9-68.84,68.15c0.74,11.24,2.73,18.62,2.73,18.62
					c4.85-13.73,11.57-26.8,19.91-38.73c4.35-6.22,9.18-12.18,15.1-16.94c15.59-12.53,37.17-15.33,56.96-12.44
					c19.79,2.9,38.4,10.87,57.08,18c10.14,3.88,20.79,7.58,31.6,6.58c7.87-0.73,15.83-4.68,20.4-10.88
					C249.3,174.58,240.46,172.18,232.74,168.82z"/>
			</g>
			<g class="st22">
				<path class="st6" d="M202.83,164.08c-20.15-10.31-43.6-17.73-66.44-14.25c-14.05,2.14-26.98,8.32-37.91,17.12
					c14.73-8.54,33.11-10.29,50.16-7.79c19.79,2.9,38.4,10.87,57.08,18c10.14,3.88,20.79,7.58,31.6,6.58
					c0.26-0.02,0.51-0.06,0.77-0.09C225.7,179.02,214.11,169.85,202.83,164.08z"/>
			</g>
			<path class="st23" d="M119.69,118.16c7.13-1.02,13.42,1.72,14.05,6.11c0.63,4.39-4.64,8.78-11.78,9.8s-13.42-1.72-14.05-6.11
				C107.28,123.57,112.55,119.18,119.69,118.16z"/>
			<path class="st23" d="M132.72,108.83c2.88-0.41,5.41,0.69,5.66,2.46c0.25,1.77-1.87,3.54-4.75,3.95
				c-2.88,0.41-5.41-0.69-5.66-2.46C127.71,111.01,129.84,109.24,132.72,108.83z"/>
			<path class="st23" d="M213.7,143.71c2.11,2,2.83,4.67,1.6,5.97c-1.23,1.3-3.94,0.74-6.05-1.26c-2.11-2-2.83-4.67-1.6-5.97
				C208.88,141.15,211.59,141.71,213.7,143.71z"/>
			<path class="st23" d="M74.28,151.22c1.96-2.2,4.65-3,6-1.79c1.35,1.21,0.86,3.97-1.1,6.17c-1.96,2.2-4.65,3-6,1.79
				C71.82,156.18,72.31,153.42,74.28,151.22z"/>
			<g>
				<path class="st2" d="M146.5,156.35c-5.39-0.44-9.54-3.52-9.27-6.89c0.27-3.37,4.87-5.75,10.26-5.31
					c5.39,0.44,9.54,3.52,9.27,6.89C156.48,154.41,151.89,156.79,146.5,156.35z"/>
				<path class="st24" d="M146.61,154.93c-4.14-0.34-7.33-2.71-7.12-5.3s3.74-4.42,7.88-4.08c4.14,0.34,7.33,2.71,7.12,5.3
					C154.28,153.44,150.75,155.27,146.61,154.93z"/>
				<path class="st11" d="M143.6,153.62c-1.21-1.26-1.03-3.76,0.39-4.81c2.46-1.81,5.16-2.22,7.93-1.88
					c-1.22-0.73-2.8-1.24-4.54-1.38c-4.14-0.34-7.67,1.49-7.88,4.08c-0.18,2.18,2.05,4.2,5.23,4.98
					C144.33,154.32,143.95,153.99,143.6,153.62z"/>
			</g>
			<g>
				
					<ellipse transform="matrix(0.9718 -0.2358 0.2358 0.9718 -32.229 32.2859)" class="st2" cx="118.89" cy="150.9" rx="9.8" ry="6.12"/>
				<path class="st24" d="M119.99,155.48c-4.04,0.98-7.81-0.27-8.42-2.8c-0.61-2.52,2.17-5.37,6.2-6.35
					c4.04-0.98,7.81,0.27,8.42,2.8C126.81,151.65,124.03,154.5,119.99,155.48z"/>
				<path class="st11" d="M116.72,155.17c-1.55-0.82-2.16-3.25-1.14-4.69c1.77-2.49,4.21-3.72,6.94-4.27
					c-1.39-0.31-3.04-0.3-4.75,0.12c-4.04,0.98-6.82,3.82-6.2,6.35c0.52,2.12,3.27,3.34,6.53,3.09
					C117.64,155.61,117.18,155.42,116.72,155.17z"/>
			</g>
			<g>
				<path class="st2" d="M211.47,176.51c-5.11-1.77-8.36-5.8-7.25-9c1.11-3.19,6.15-4.35,11.26-2.57c5.11,1.77,8.36,5.8,7.25,9
					C221.63,177.13,216.59,178.28,211.47,176.51z"/>
				<path class="st24" d="M211.94,175.17c-3.93-1.36-6.42-4.46-5.57-6.91c0.85-2.45,4.73-3.34,8.65-1.98
					c3.93,1.36,6.42,4.46,5.57,6.91C219.74,175.65,215.87,176.53,211.94,175.17z"/>
				<path class="st11" d="M209.35,173.14c-0.86-1.53-0.06-3.9,1.58-4.56c2.83-1.14,5.55-0.85,8.15,0.17c-1-1.01-2.4-1.9-4.05-2.47
					c-3.93-1.36-7.8-0.48-8.65,1.98c-0.72,2.06,0.94,4.58,3.82,6.14C209.89,174,209.6,173.59,209.35,173.14z"/>
			</g>
			<g>
				<path class="st2" d="M171.18,151.12c-3.92-1.3-6.45-4.34-5.64-6.79s4.65-3.39,8.57-2.09c3.92,1.3,6.45,4.34,5.64,6.79
					C178.95,151.48,175.11,152.41,171.18,151.12z"/>
				<path class="st24" d="M171.52,150.09c-3.01-1-4.95-3.33-4.33-5.21c0.62-1.88,3.57-2.6,6.59-1.61c3.01,1,4.95,3.33,4.33,5.21
					C177.49,150.36,174.54,151.08,171.52,150.09z"/>
				<path class="st11" d="M169.52,148.57c-0.67-1.16-0.09-2.98,1.16-3.5c2.15-0.9,4.23-0.71,6.22,0.04
					c-0.78-0.76-1.85-1.42-3.12-1.84c-3.01-1-5.96-0.28-6.59,1.61c-0.52,1.58,0.77,3.49,2.99,4.64
					C169.94,149.22,169.72,148.91,169.52,148.57z"/>
			</g>
			<g>
				<path class="st2" d="M81.9,180.99c-3.36,2.41-7.3,2.66-8.81,0.56c-1.5-2.1,0-5.75,3.36-8.16c3.36-2.41,7.3-2.66,8.81-0.56
					C86.77,174.93,85.26,178.58,81.9,180.99z"/>
				<path class="st24" d="M81.27,180.1c-2.58,1.85-5.61,2.04-6.77,0.43s0-4.42,2.58-6.27c2.58-1.85,5.61-2.04,6.77-0.43
					S83.85,178.26,81.27,180.1z"/>
				<path class="st11" d="M78.86,180.83c-1.33-0.14-2.46-1.68-2.15-3c0.54-2.27,1.92-3.84,3.7-5.01c-1.07,0.18-2.24,0.66-3.33,1.44
					c-2.58,1.85-3.74,4.66-2.58,6.27c0.97,1.36,3.27,1.43,5.51,0.32C79.64,180.87,79.26,180.87,78.86,180.83z"/>
			</g>
			<g>
				<path class="st2" d="M102.18,162.31c-3.19,2.63-7.1,3.15-8.75,1.16s-0.39-5.74,2.79-8.37c3.19-2.63,7.1-3.15,8.75-1.16
					C106.62,155.93,105.37,159.68,102.18,162.31z"/>
				<path class="st24" d="M101.49,161.47c-2.45,2.02-5.46,2.42-6.72,0.89c-1.26-1.53-0.3-4.41,2.15-6.43
					c2.45-2.02,5.46-2.42,6.72-0.89C104.9,156.57,103.94,159.45,101.49,161.47z"/>
				<path class="st11" d="M99.14,162.36c-1.34-0.05-2.57-1.51-2.35-2.84c0.38-2.3,1.65-3.96,3.35-5.25
					c-1.06,0.25-2.19,0.81-3.22,1.66c-2.45,2.02-3.41,4.9-2.15,6.43c1.06,1.29,3.36,1.21,5.52-0.05
					C99.92,162.35,99.53,162.37,99.14,162.36z"/>
			</g>
			<g>
				<path class="st2" d="M235.73,180.51c-2.98-0.41-5.19-2.26-4.94-4.12c0.26-1.86,2.88-3.04,5.87-2.63
					c2.98,0.41,5.19,2.26,4.94,4.12C241.35,179.74,238.72,180.92,235.73,180.51z"/>
				
					<ellipse transform="matrix(0.1368 -0.9906 0.9906 0.1368 28.4321 386.8847)" class="st24" cx="236.2" cy="177.13" rx="2.62" ry="4.19"/>
				<path class="st11" d="M234.21,178.9c-0.63-0.74-0.46-2.12,0.37-2.66c1.42-0.93,2.94-1.07,4.47-0.79
					c-0.66-0.44-1.52-0.77-2.48-0.91c-2.29-0.32-4.31,0.59-4.51,2.02c-0.17,1.2,1.01,2.4,2.75,2.93
					C234.6,179.31,234.39,179.12,234.21,178.9z"/>
			</g>
			<g>
				
					<ellipse transform="matrix(0.3588 -0.9334 0.9334 0.3588 -31.4195 277.9247)" class="st2" cx="186.57" cy="161.83" rx="4.68" ry="7.48"/>
				<path class="st24" d="M185.29,165.18c-2.96-1.14-4.79-3.56-4.08-5.42c0.71-1.85,3.69-2.43,6.65-1.29
					c2.96,1.14,4.79,3.56,4.08,5.42C191.23,165.75,188.25,166.32,185.29,165.18z"/>
				<path class="st11" d="M183.36,163.57c-0.62-1.19,0.05-2.98,1.32-3.44c2.19-0.8,4.26-0.51,6.22,0.34
					c-0.74-0.8-1.78-1.51-3.03-1.99c-2.96-1.14-5.94-0.56-6.65,1.29c-0.6,1.56,0.6,3.52,2.76,4.78
					C183.75,164.24,183.54,163.92,183.36,163.57z"/>
			</g>
		</g>
		<g>
			<g>
				<path class="st4" d="M435.27,328.56c11.63,11.22,19.67,26.24,20.55,42.14c0.88,15.9-5.97,32.51-19.17,42.34
					c-19.67,14.64-49,11.33-69.3-2c-6.21-4.08-11.83-8.96-18.23-12.75c-23.05-13.63-52.42-11.29-79.52-8.49c-8,0.83-16,1.65-24,2.48
					c11.84-17.86,31.11-30.58,52.02-37.13s43.38-7.24,65.06-4.5c15.56,1.97,32.16,5.51,46.41-1.05c9.96-4.59,16.99-13.4,25.56-20.11
					L435.27,328.56z"/>
			</g>
			<g>
				<path class="st21" d="M285.92,372.55c19.09-3.18,38.5-1.67,57.49,1.38c16.78,2.7,33.19,6.48,50.29,4.02
					c14.93-2.14,29.79-8.28,37.86-21.7c4.53-7.53,6.5-15.69,4.26-24.29c-0.27-1.02-0.54-2.02-0.81-3.01l-0.35,0.54
					c-8.57,6.71-15.61,15.53-25.56,20.11c-14.25,6.56-30.85,3.02-46.41,1.05c-21.68-2.74-44.15-2.05-65.06,4.5
					c-18.7,5.85-36.07,16.66-48,31.65C260.45,379.59,272.77,374.74,285.92,372.55z"/>
			</g>
			<g class="st22">
				<path class="st6" d="M445.65,396.37c-22.41,22.75-57.04,7.7-82.15-0.88c-26.64-9.11-57.84-15.41-85.16-6.54
					c24.56-2.26,50.19-2.83,70.78,9.35c6.41,3.79,12.02,8.67,18.23,12.75c20.29,13.32,49.62,16.64,69.3,2
					c11.5-8.56,18.17-22.27,19.12-36.18C454.21,384.16,450.93,391.01,445.65,396.37z"/>
			</g>
			<g>
				<path class="st2" d="M297.09,370.45c-5.27,1.24-10.16-0.42-10.94-3.71c-0.78-3.29,2.86-6.97,8.13-8.21
					c5.27-1.24,10.16,0.42,10.94,3.71C305.99,365.53,302.36,369.21,297.09,370.45z"/>
				<path class="st24" d="M296.76,369.07c-4.04,0.96-7.81-0.32-8.41-2.85c-0.6-2.53,2.2-5.35,6.24-6.31
					c4.04-0.96,7.81,0.32,8.41,2.85C303.6,365.29,300.81,368.11,296.76,369.07z"/>
				<path class="st11" d="M293.49,368.75c-1.54-0.83-2.14-3.26-1.11-4.7c1.78-2.48,4.23-3.7,6.97-4.22
					c-1.39-0.32-3.04-0.31-4.75,0.09c-4.04,0.96-6.84,3.78-6.24,6.31c0.5,2.13,3.25,3.36,6.51,3.13
					C294.41,369.18,293.95,368.99,293.49,368.75z"/>
			</g>
			<g>
				<path class="st2" d="M343.55,363.53c-5.4-0.39-9.57-3.44-9.33-6.81s4.82-5.79,10.21-5.4c5.4,0.39,9.57,3.44,9.33,6.81
					C353.52,361.51,348.95,363.92,343.55,363.53z"/>
				<path class="st24" d="M343.66,362.12c-4.15-0.3-7.35-2.64-7.17-5.23c0.19-2.59,3.7-4.45,7.84-4.15c4.15,0.3,7.35,2.64,7.17,5.23
					C351.31,360.56,347.8,362.42,343.66,362.12z"/>
				<path class="st11" d="M340.63,360.83c-1.22-1.25-1.07-3.75,0.35-4.81c2.44-1.83,5.14-2.26,7.91-1.94
					c-1.23-0.72-2.81-1.21-4.56-1.34c-4.15-0.3-7.66,1.56-7.84,4.15c-0.16,2.18,2.09,4.18,5.28,4.94
					C341.37,361.52,340.99,361.2,340.63,360.83z"/>
			</g>
			<g>
				<path class="st2" d="M381.98,367.92c-5.4-0.39-9.57-3.44-9.33-6.81c0.24-3.37,4.82-5.79,10.21-5.4c5.4,0.39,9.57,3.44,9.33,6.81
					C391.95,365.89,387.37,368.31,381.98,367.92z"/>
				<path class="st24" d="M382.08,366.5c-4.15-0.3-7.35-2.64-7.17-5.23c0.19-2.59,3.7-4.45,7.84-4.15c4.15,0.3,7.35,2.64,7.17,5.23
					C389.74,364.94,386.22,366.8,382.08,366.5z"/>
				<path class="st11" d="M379.05,365.22c-1.22-1.25-1.07-3.75,0.35-4.81c2.44-1.83,5.14-2.26,7.91-1.94
					c-1.23-0.72-2.81-1.21-4.56-1.34c-4.15-0.3-7.66,1.56-7.84,4.15c-0.16,2.18,2.09,4.18,5.28,4.94
					C379.8,365.91,379.41,365.59,379.05,365.22z"/>
			</g>
			<g>
				
					<ellipse transform="matrix(0.7943 -0.6075 0.6075 0.7943 -125.4628 329.2493)" class="st2" cx="423.52" cy="349.91" rx="9.8" ry="6.12"/>
				<path class="st24" d="M426.38,353.65c-3.3,2.52-7.26,2.9-8.83,0.84s-0.18-5.78,3.12-8.31c3.3-2.52,7.26-2.9,8.83-0.84
					C431.07,347.41,429.68,351.12,426.38,353.65z"/>
				<path class="st11" d="M423.26,354.69c-1.75-0.12-3.29-2.1-2.93-3.83c0.61-2.99,2.35-5.1,4.63-6.7c-1.4,0.28-2.9,0.96-4.3,2.02
					c-3.3,2.52-4.7,6.24-3.12,8.31c1.33,1.74,4.34,1.74,7.22,0.2C424.27,354.72,423.77,354.73,423.26,354.69z"/>
			</g>
			<g>
				
					<ellipse transform="matrix(0.999 -0.0451 0.0451 0.999 -16.0642 14.795)" class="st2" cx="319.87" cy="363.42" rx="7.48" ry="4.68"/>
				<path class="st24" d="M320.03,367.01c-3.17,0.14-5.82-1.35-5.9-3.33c-0.09-1.98,2.41-3.71,5.58-3.85s5.82,1.35,5.9,3.33
					C325.7,365.15,323.2,366.87,320.03,367.01z"/>
				<path class="st11" d="M317.62,366.31c-1.04-0.84-1.14-2.75-0.17-3.68c1.69-1.61,3.7-2.17,5.83-2.18c-1-0.43-2.24-0.67-3.58-0.61
					c-3.17,0.14-5.67,1.87-5.58,3.85c0.08,1.67,1.96,2.98,4.44,3.27C318.24,366.77,317.92,366.56,317.62,366.31z"/>
			</g>
			<g>
				<path class="st2" d="M360.72,373.68c-3.93-1.28-6.47-4.31-5.67-6.76c0.8-2.46,4.63-3.41,8.56-2.13
					c3.93,1.28,6.47,4.31,5.67,6.76C368.49,374,364.65,374.95,360.72,373.68z"/>
				<path class="st24" d="M361.06,372.64c-3.02-0.98-4.97-3.31-4.35-5.2c0.61-1.89,3.56-2.62,6.58-1.64
					c3.02,0.98,4.97,3.31,4.35,5.2C367.02,372.89,364.08,373.63,361.06,372.64z"/>
				<path class="st11" d="M359.05,371.13c-0.68-1.15-0.1-2.98,1.14-3.51c2.15-0.91,4.23-0.73,6.22,0.01
					c-0.78-0.76-1.86-1.41-3.13-1.83c-3.02-0.98-5.96-0.25-6.58,1.64c-0.52,1.59,0.78,3.48,3.01,4.63
					C359.47,371.78,359.25,371.48,359.05,371.13z"/>
			</g>
			<g>
				<path class="st2" d="M407.48,369.26c-3.86,1.48-7.74,0.73-8.66-1.68c-0.93-2.41,1.45-5.57,5.31-7.05
					c3.86-1.48,7.74-0.73,8.66,1.68C413.71,364.62,411.34,367.78,407.48,369.26z"/>
				
					<ellipse transform="matrix(0.9333 -0.359 0.359 0.9333 -103.9568 170.0333)" class="st24" cx="405.8" cy="364.9" rx="5.75" ry="3.59"/>
				<path class="st11" d="M404.58,368.35c-1.25-0.47-1.96-2.25-1.32-3.44c1.09-2.06,2.82-3.23,4.84-3.92
					c-1.08-0.1-2.33,0.08-3.58,0.56c-2.96,1.14-4.79,3.57-4.08,5.42c0.6,1.56,2.8,2.21,5.25,1.7
					C405.32,368.58,404.95,368.48,404.58,368.35z"/>
			</g>
			
				<ellipse transform="matrix(0.9908 -0.1355 0.1355 0.9908 -51.1797 60.0074)" class="st23" cx="415.09" cy="405.86" rx="13.05" ry="8.04"/>
			<path class="st23" d="M432.92,390.11c2.88-0.39,5.41,0.72,5.65,2.5c0.24,1.77-1.89,3.53-4.77,3.92c-2.88,0.39-5.41-0.72-5.65-2.5
				C427.91,392.26,430.05,390.51,432.92,390.11z"/>
			<path class="st25" d="M387.6,394.28c-0.16,5.59-4.82,9.99-10.41,9.82c-5.59-0.16-9.99-4.82-9.82-10.41
				c0.16-5.59,4.82-9.99,10.41-9.82C383.36,384.03,387.76,388.69,387.6,394.28z"/>
			<path class="st25" d="M446.64,364.29c2.63,2.79,2.51,7.19-0.29,9.82c-2.79,2.63-7.19,2.51-9.82-0.29
				c-2.63-2.79-2.51-7.19,0.29-9.82C439.61,361.37,444,361.5,446.64,364.29z"/>
			<path class="st25" d="M357.62,380.98c2.63,2.79,2.51,7.19-0.29,9.82c-2.79,2.63-7.19,2.51-9.82-0.29
				c-2.63-2.79-2.51-7.19,0.29-9.82C350.59,378.06,354.98,378.19,357.62,380.98z"/>
		</g>
	</g>
	<g>
		<g>
			<path class="st16" d="M434.54,161.13c6.2-12.52,8.58-27.03,5.96-40.76c-2.63-13.73-10.39-26.54-21.8-34.61
				c-9.67-6.84-22.38-10.13-33.64-6.47c-9.69,3.15-17.28,11.03-22.22,19.95s-7.57,18.89-10.16,28.75l-4.88,0.11
				c-2.79-0.84-5.72-1.68-8.58-1.13c-2.86,0.55-5.59,2.99-5.4,5.9c0.26,4,5.21,5.73,9.21,5.87c4,0.14,8.71,0,11.14,3.18
				c2.28,2.98,1.23,7.18,0.91,10.92s1.3,8.58,5.05,8.62c2.19,0.02,3.95-1.69,5.45-3.29c2.2-2.35,4.41-4.69,6.61-7.04
				c0.7-0.75,1.44-1.52,2.4-1.9c3.25-1.29,6.24,2.6,6.86,6.04c0.62,3.44,0.5,7.46,3.13,9.77c2.75,2.41,7.28,1.46,9.92-1.06
				c2.64-2.52,3.87-6.14,5.01-9.61c7.56,1.64,9.66,11.09,13.11,18.02c0.9,1.81,2.21,3.7,4.2,4.1c2.64,0.53,5-1.86,6.05-4.34
				c1.05-2.48,1.38-5.28,2.9-7.5c1.54,3.08,3.18,6.28,5.94,8.35c2.75,2.07,6.96,2.65,9.53,0.35c2.57-2.3,1.63-7.6-1.79-8.03
				L434.54,161.13z"/>
		</g>
		<g class="st22">
			<path class="st6" d="M439.44,165.32l-4.9-4.19c6.2-12.52,8.58-27.03,5.96-40.76c-2.16-11.3-7.82-21.98-16.11-29.91
				c5.32,8.83,8.66,19.12,9.61,28.06c0.72,6.78-0.01,13.63-1.47,20.27c-1.28,5.82-3.71,12.46-9.57,15.02
				c-6.19,2.7-13.43-0.92-17.49-5.75c-0.72-0.85-1.85-3.32-2.86-3.83c-0.02-0.01-0.03-0.03-0.03-0.04c-0.1,0.09-0.27,0.24-0.58,0.47
				c-2.2,1.62-3.82,3.9-6.23,5.31c-5.84,3.41-11.92,0.73-15.41-4.46c-1.31-1.94-1.46-3.56-3.96-3.04c-3.04,0.63-5.54,3-8.7,3.54
				c-4,0.69-7.55-1.05-10.19-4c-2.03-2.26-2.55-5.09-4.24-7.48c-1.6-2.26-4.51-2.19-6.86-3.45c-2.01-1.08-3.42-2.53-4.52-4.26
				c-0.9-0.06-1.79-0.03-2.69,0.14c-2.86,0.55-5.59,2.99-5.4,5.9c0.26,4,5.21,5.73,9.21,5.87c4,0.14,8.71,0,11.14,3.18
				c2.28,2.98,1.23,7.18,0.91,10.92s1.3,8.58,5.05,8.62c2.19,0.02,3.95-1.69,5.45-3.29c2.2-2.35,4.41-4.69,6.61-7.04
				c0.7-0.75,1.44-1.52,2.4-1.9c3.25-1.29,6.24,2.6,6.86,6.04c0.62,3.44,0.5,7.46,3.13,9.77c2.75,2.41,7.28,1.46,9.92-1.06
				c2.64-2.52,3.87-6.14,5.01-9.61c7.56,1.64,9.66,11.09,13.11,18.02c0.9,1.81,2.21,3.7,4.2,4.1c2.64,0.53,5-1.86,6.05-4.34
				c1.05-2.48,1.38-5.28,2.9-7.5c1.54,3.08,3.18,6.28,5.94,8.35c2.75,2.07,6.96,2.65,9.53,0.35S442.86,165.75,439.44,165.32z"/>
		</g>
		<path class="st5" d="M388.02,89.86c0,3.43-2.92,6.2-6.53,6.2c-3.61,0-6.53-2.78-6.53-6.2c0-3.43,2.92-6.2,6.53-6.2
			C385.09,83.65,388.02,86.43,388.02,89.86z"/>
		
			<ellipse transform="matrix(0.2306 -0.9731 0.9731 0.2306 188.3618 510.6653)" class="st5" cx="417.08" cy="136.23" rx="8.16" ry="8.16"/>
		<ellipse class="st2" cx="396.84" cy="105.04" rx="15.35" ry="15.19"/>
		<path class="st5" d="M412.14,104.28c-0.41-8.03-7.09-14.42-15.31-14.42c-6.62,0-12.25,4.16-14.4,9.97
			C392.98,95.44,405.87,96.16,412.14,104.28z"/>
		<circle class="st6" cx="399.12" cy="103.9" r="8.49"/>
		<path class="st2" d="M399.12,101.61c0,1.26-1.02,2.29-2.29,2.29c-1.26,0-2.29-1.02-2.29-2.29c0-1.26,1.02-2.29,2.29-2.29
			C398.1,99.33,399.12,100.35,399.12,101.61z"/>
		<g>
			<path class="st16" d="M389.94,82.34c0.05-8.2,2.17-15.82,6.36-22.87c0.97-1.63-1.57-3.11-2.54-1.48
				c-4.44,7.46-6.72,15.67-6.77,24.36C386.98,84.23,389.93,84.23,389.94,82.34L389.94,82.34z"/>
		</g>
		<g>
			<path class="st16" d="M424.82,97.61c4.32-7.52,7.27-15.52,8.84-24.05c0.34-1.85-2.49-2.64-2.84-0.78
				c-1.52,8.29-4.35,16.04-8.55,23.35C421.34,97.77,423.88,99.25,424.82,97.61L424.82,97.61z"/>
		</g>
		<circle class="st16" cx="394.88" cy="57.2" r="4.25"/>
		<circle class="st16" cx="433.08" cy="71.24" r="4.25"/>
		<g>
			<path class="st6" d="M402.33,127.7c-16.45,0-29.52-12.84-29.68-13l0.69-0.69c0.19,0.19,19.61,19.25,40.61,10.35l0.38,0.9
				C410.23,126.99,406.19,127.7,402.33,127.7z"/>
		</g>
		<polygon class="st2" points="378.87,119.57 374.3,126.11 380.83,129.37 384.75,124.15 		"/>
		<path class="st26" d="M377.65,111.25c-0.72,1.25-2.95,1.31-4.98,0.14c-2.03-1.17-3.09-3.14-2.37-4.39
			c0.72-1.25,2.95-1.31,4.98-0.14C377.31,108.03,378.37,110,377.65,111.25z"/>
		<path class="st26" d="M419.54,119.1c0.38,1.39-1.14,3.02-3.4,3.65c-2.26,0.62-4.4,0-4.79-1.39c-0.38-1.39,1.14-3.02,3.4-3.65
			C417.02,117.09,419.16,117.71,419.54,119.1z"/>
	</g>
	<g>
		<polygon class="st2" points="39.4,185.63 42.94,190.27 48.77,189.98 45.45,194.78 47.53,200.23 41.94,198.56 37.39,202.22 
			37.25,196.38 32.37,193.19 37.87,191.26 		"/>
		<polygon class="st2" points="290.67,73.7 292.51,77.99 297.09,78.91 293.57,81.99 294.12,86.63 290.1,84.24 285.86,86.19 
			286.89,81.63 283.73,78.2 288.38,77.77 		"/>
		<polygon class="st2" points="332.11,405.25 335.43,412.99 343.69,414.65 337.35,420.2 338.33,428.57 331.09,424.25 323.44,427.77 
			325.3,419.55 319.59,413.36 327.98,412.6 		"/>
		<polygon class="st2" points="457.27,178.62 458.34,184.54 463.83,187.01 458.53,189.87 457.88,195.85 453.53,191.69 
			447.63,192.92 450.24,187.5 447.25,182.27 453.22,183.08 		"/>
	</g>
	<g>
		<polygon class="st4" points="367.85,299.23 368.92,305.15 374.41,307.62 369.11,310.48 368.46,316.46 364.11,312.3 358.22,313.53 
			360.82,308.11 357.84,302.88 363.8,303.69 		"/>
		<polygon class="st9" points="122.92,180.15 129.43,186.77 138.57,185.16 134.28,193.4 138.64,201.6 129.48,200.07 123.03,206.74 
			121.66,197.56 113.31,193.49 121.62,189.34 		"/>
	</g>
	<g>
		<g>
			<path class="st9" d="M119.72,398.19c2.99,7.19,7.39,13.8,12.89,19.31c0.01-3.96,0.02-7.91,0.02-11.87
				c6.8,9.54,14.6,18.36,23.24,26.26c-4.17-6.71-6.1-14.78-5.42-22.65c7.15,9.55,15.74,18.02,25.39,25.03
				c-3.52-10.79-8.4-21.14-14.49-30.72c6.7,4.79,13.16,9.92,19.35,15.36c-2.83-10.06-9.2-18.68-15.43-27.07
				c4.91,4.9,10.2,9.43,15.8,13.53c-4.48-14.42-12.88-27.6-24.06-37.75L119.72,398.19z"/>
		</g>
		<g>
			<path class="st4" d="M129.57,393.16c1.84,4.44,4.56,8.51,7.95,11.91c0-2.44,0.01-4.88,0.01-7.32c4.19,5.88,9,11.32,14.33,16.19
				c-2.57-4.14-3.76-9.11-3.34-13.97c4.41,5.89,9.71,11.11,15.66,15.44c-2.17-6.65-5.18-13.04-8.94-18.94
				c4.13,2.96,8.12,6.12,11.93,9.47c-1.75-6.2-5.67-11.52-9.52-16.69c3.03,3.02,6.29,5.82,9.74,8.34
				c-2.76-8.89-7.94-17.02-14.84-23.28L129.57,393.16z"/>
		</g>
		<path class="st4" d="M94.84,379.82l13.29,44.1l21.45-27.05C129.58,396.87,99.42,368.76,94.84,379.82z"/>
		<path class="st14" d="M99.4,378.71l10.73,32.1l18.74-20.12C128.87,390.7,103.47,370.55,99.4,378.71z"/>
		<path class="st4" d="M139.79,336.04l44.36,12.38l-26.61,22C157.55,370.41,128.83,340.83,139.79,336.04z"/>
		<path class="st27" d="M180.33,351.58l3.83-3.17l-44.36-12.38c-2.54,1.11-2.95,3.56-2.07,6.66
			C151.95,345.59,166.26,348.02,180.33,351.58z"/>
		<path class="st2" d="M73.17,354.24c0,0,32.52,38.37,47.44,46c0,0,28.2-9.11,38.5-31.36c0,0-33.1-53.51-41.85-58.35
			s-49.39-22.38-52.94-12.6C60.77,307.7,70.94,345.14,73.17,354.24z"/>
		<path class="st4" d="M77.82,359.6c18.82-10.08,32.26-27.23,43.07-45.92c-1.45-1.54-2.68-2.63-3.63-3.16
			c-8.75-4.84-49.39-22.38-52.94-12.6c-3.55,9.77,6.63,47.21,8.85,56.31C73.17,354.24,74.93,356.32,77.82,359.6z"/>
		<path class="st4" d="M133.24,329.55c-1.91-2.69-3.78-5.26-5.54-7.59c-11.01,18.3-24.62,35-42.9,45.43
			c1.28,1.4,2.62,2.86,4.02,4.36C106.98,362.75,122.06,347.08,133.24,329.55z"/>
		
			<ellipse transform="matrix(0.9958 -0.092 0.092 0.9958 -33.5687 13.3808)" class="st6" cx="128.31" cy="370.69" rx="14.53" ry="14.53"/>
		
			<ellipse transform="matrix(0.6228 -0.7824 0.7824 0.6228 -241.6227 240.2174)" class="st0" cx="128.31" cy="370.69" rx="11.06" ry="11.06"/>
		<path class="st27" d="M91.23,306.26c1.45-0.12,3.03,0.4,4.4,1.86c0.8,0.85,1.58,1.71,2.37,2.56c2.19,1.4,4.39,2.78,6.57,4.19
			c9.14,5.88,17.04,12.43,24,20.81c10.31,12.4,18.35,26.39,26.3,40.4c1.6-2.23,3.04-4.62,4.23-7.19c0,0-33.1-53.51-41.85-58.35
			c-5.85-3.23-25.92-12.13-39.67-14.76C81.86,299.67,86.47,303.06,91.23,306.26z"/>
		<path class="st14" d="M92.28,355.18c-12.57-16.43-22.23-34.79-28.55-54.42c-1.39,12.72,7.39,45.09,9.44,53.47
			c0,0,32.52,38.37,47.44,46c0,0,4.53-1.47,10.61-4.65C117.09,383.28,103.68,370.08,92.28,355.18z"/>
	</g>
	<g>
		<g>
			<path class="st2" d="M146.29,77.75c0.97-0.55,1.59-1.66,2.65-1.99c1.36-0.42,2.69,0.59,3.99,1.16c1.48,0.64,3.2,0.68,4.73,0.18
				c0.15-0.16,0.29-0.33,0.45-0.48c1-0.97,2.19-1.83,3.55-2.37c1.36-0.56,2.88-0.76,4.38-0.58c1.49,0.18,2.99,0.8,4.14,1.89
				c1.18,1.12,1.82,2.68,1.89,4.24c0.03,0.78-0.07,1.58-0.35,2.33c-0.27,0.75-0.74,1.44-1.35,1.97c-0.62,0.54-1.4,0.89-2.17,0.98
				c-0.78,0.1-1.55,0.01-2.25-0.23c-0.7-0.26-1.35-0.66-1.83-1.21c-0.48-0.55-0.78-1.25-0.77-1.94c0.42,1.33,1.64,2.07,2.84,2.26
				c1.2,0.21,2.46-0.13,3.16-0.92c1.51-1.64,1.12-4.61-0.47-6.08c-1.65-1.57-4.36-1.96-6.72-1.29c-2.36,0.68-4.46,2.28-6.37,4.13
				c-0.93,2.16-0.9,4.83,0.32,6.88c2.1,3.54,6.76,5.02,10.79,4.15c4.02-0.86,7.4-3.69,9.8-7.03c1.56,2.36,5.22,2.35,7.62,0.85
				c2.4-1.51,3.92-4.03,5.62-6.3c1.7-2.26,3.91-4.47,6.73-4.78c4.16-0.46,9.04,3.19,12.1,0.33l-0.01-0.1
				c-1.6-3.24-5.11-5.45-8.73-5.48c-1.25-0.01-2.53,0.22-3.75-0.09c-2.7-0.67-4.06-3.57-5.83-5.71c-1.4-1.69-4.06-2.88-5.84-2.13
				c-0.44,1.34-0.57,2.74-0.36,4.07c0.19,1.32,0.75,2.68,1.62,3.38c0.45,0.37,0.87,0.49,1.4,0.39c0.53-0.1,0.96-0.45,1.07-0.9
				l0.01-0.1c0.07-0.22,0.09-0.54,0.09-0.82c-0.01-0.28-0.07-0.56-0.19-0.82c-0.12-0.25-0.3-0.5-0.56-0.68
				c-0.25-0.19-0.55-0.34-0.87-0.46c0.34,0,0.7,0,1.04,0.13c0.35,0.11,0.69,0.33,0.95,0.62c0.26,0.3,0.44,0.66,0.56,1.03
				c0.11,0.39,0.15,0.74,0.13,1.19l0.01-0.1c0.04,0.53-0.14,1.11-0.49,1.51c-0.34,0.41-0.76,0.71-1.24,0.89
				c-0.47,0.19-1.01,0.26-1.55,0.17c-0.54-0.09-1-0.29-1.42-0.57c-0.83-0.56-1.37-1.34-1.75-2.14c-0.36-0.81-0.61-1.65-0.68-2.51
				c-0.13-1.35,0.08-2.71,0.57-3.93c-2.59-3.12-6.75-4.9-10.8-4.56c-4.32,0.36-8.37,3.11-10.29,7c-5.37-3.91-13.92-2.31-17.5,3.3
				c-0.47,0.74-0.91,1.58-1.71,1.95c-0.68,0.32-1.46,0.23-2.21,0.29c-2.77,0.2-5.17,2.71-5.26,5.48
				C139.12,73.18,142.72,79.78,146.29,77.75z"/>
		</g>
		<g>
			<path class="st2" d="M363.94,425.4c1.19-0.67,1.95-2.03,3.25-2.44c1.67-0.52,3.3,0.72,4.9,1.42c1.82,0.79,3.93,0.84,5.81,0.22
				c0.18-0.2,0.36-0.4,0.55-0.59c1.23-1.2,2.68-2.24,4.35-2.9c1.67-0.69,3.54-0.93,5.37-0.71c1.83,0.23,3.67,0.98,5.08,2.32
				c1.44,1.38,2.23,3.29,2.31,5.2c0.04,0.96-0.09,1.94-0.43,2.86c-0.34,0.92-0.91,1.77-1.65,2.42c-0.76,0.67-1.72,1.09-2.67,1.21
				c-0.95,0.12-1.9,0.01-2.76-0.29c-0.86-0.31-1.65-0.81-2.24-1.49c-0.59-0.67-0.95-1.54-0.94-2.38c0.52,1.64,2.01,2.54,3.48,2.77
				c1.48,0.26,3.01-0.16,3.88-1.13c1.85-2.01,1.37-5.66-0.58-7.47c-2.02-1.93-5.35-2.4-8.24-1.58c-2.9,0.83-5.48,2.8-7.81,5.06
				c-1.14,2.65-1.1,5.93,0.39,8.44c2.58,4.34,8.3,6.16,13.24,5.1c4.94-1.06,9.08-4.53,12.03-8.63c1.91,2.9,6.41,2.89,9.35,1.04
				c2.94-1.85,4.81-4.95,6.89-7.73c2.09-2.78,4.8-5.49,8.26-5.87c5.11-0.56,11.09,3.92,14.85,0.4l-0.02-0.12
				c-1.96-3.98-6.27-6.69-10.71-6.72c-1.54-0.01-3.11,0.27-4.6-0.11c-3.31-0.83-4.98-4.38-7.16-7.01c-1.72-2.08-4.98-3.53-7.17-2.62
				c-0.54,1.64-0.7,3.37-0.45,4.99c0.24,1.62,0.92,3.29,1.98,4.15c0.55,0.45,1.07,0.6,1.72,0.48c0.65-0.13,1.18-0.55,1.31-1.1
				l0.01-0.12c0.08-0.27,0.11-0.67,0.1-1c-0.01-0.35-0.08-0.69-0.23-1.01c-0.15-0.31-0.37-0.62-0.69-0.83
				c-0.3-0.24-0.68-0.41-1.07-0.56c0.41,0,0.86,0,1.28,0.16c0.43,0.13,0.85,0.4,1.16,0.77c0.32,0.36,0.55,0.81,0.68,1.27
				c0.13,0.48,0.19,0.91,0.16,1.46l0.01-0.12c0.05,0.65-0.18,1.36-0.6,1.85c-0.41,0.5-0.94,0.87-1.52,1.1
				c-0.58,0.23-1.23,0.32-1.9,0.21c-0.66-0.11-1.22-0.36-1.74-0.7c-1.02-0.69-1.68-1.65-2.15-2.62c-0.45-0.99-0.75-2.02-0.84-3.08
				c-0.16-1.66,0.1-3.32,0.7-4.83c-3.18-3.83-8.28-6.01-13.25-5.6c-5.3,0.44-10.27,3.81-12.63,8.59c-6.6-4.8-17.08-2.83-21.48,4.05
				c-0.58,0.91-1.12,1.93-2.09,2.39c-0.83,0.39-1.8,0.29-2.71,0.35c-3.4,0.24-6.35,3.32-6.46,6.72
				C355.14,419.79,359.56,427.89,363.94,425.4z"/>
		</g>
	</g>
	<g>
		<g>
			<path class="st2" d="M213.81,105.44c-1.45-1.99-3.65-4.98-3.74-5.02c-0.04-0.02-0.92,0.18-1.94,0.44
				c-0.99,0.25-1.97,0.45-2.13,0.48c-0.44,0.1-0.51,0.36-0.47,1.88c0.01,0.74,0.04,2.4,0,3.71c-0.04,1.31,0.01,2.75-0.02,3.2
				c-0.1,1.33-0.3,1.95-0.81,1.6c-0.12-0.05-0.3-0.33-0.48-0.9c-0.4-1.04-0.52-1.87-0.4-5.28c0.05-1.38,0.01-3.61-0.04-4.95
				l-0.16-5.1c-0.06-1.47-0.13-3.25-0.18-3.91c-0.05-0.66-0.09-1.29-0.08-1.36c0-0.17,0.22-0.39,0.46-0.48
				c0.06-0.02,0.13-0.02,0.19-0.04c0.38,0.02,0.61,0.27,1.05,1.06c0.22,0.39,1.02,1.58,1.87,2.65c0.85,1.07,1.89,2.43,2.27,2.97
				c0.9,1.28,1.27,1.62,1.66,1.67c0.42,0.11,0.56,0.3,0.65,0.8c0.09,0.51,0.53,1.29,2.07,3.35c2.17,2.9,2.79,3.89,2.76,4.51
				c-0.01,0.24-0.11,0.52-0.19,0.65c-0.12,0.22-0.15,0.23-0.41,0.16C215.35,107.43,214.96,107.04,213.81,105.44z M208.92,98.59
				c-0.42-0.48-3.32-4.4-3.36-4.49c-0.02-0.06-0.14-0.18-0.23-0.25c-0.05-0.05-0.08-0.04-0.11-0.03c-0.09,0.03-0.08,0.23-0.12,0.93
				c-0.08,1.29,0.13,4.13,0.29,4.55c0.19,0.5,0.71,0.51,2.57-0.21C208.76,98.78,209,98.69,208.92,98.59z"/>
		</g>
		<g>
			<path class="st2" d="M196.68,439.99c-1.1-0.6-1.54-1.21-1.89-3.05c-0.16-0.8-1.9-6.52-4.02-13.06c-2.66-8.23-3.74-11.75-3.72-12
				c0.04-0.66,0.4-0.93,2.4-1.58c3.59-1.16,5.5-1.32,7.29-0.6c1.82,0.67,3.03,2.23,3.55,4.93c0.16,0.8,0.27,1.92,0.29,2.47
				c0.05,1.09-0.33,2.72-0.84,3.63l-0.29,0.5l0.9,0.31c2.65,0.9,5.1,2.72,6.64,5.18c0.42,0.67,0.67,1.29,0.99,2.44
				c0.73,2.58,0.58,4.43-0.57,6.31c-0.78,1.31-1.74,2.22-3.13,3.07c-1.34,0.83-3.7,1.75-4.67,1.86
				C198.27,440.54,197.42,440.41,196.68,439.99z M202.68,436.95c1.63-1.03,2.56-2.33,3.02-4.04c0.36-1.37,0.22-2.43-0.51-4.05
				c-0.84-1.84-1.62-2.54-3.52-3.58c-2.25-1.23-3.2-1.53-4.38-1.3c-0.29,0.04-0.61,0.15-0.92,0.25c-1.05,0.34-2.09,0.83-2.2,1.11
				c-0.08,0.23,0.16,1.1,1.49,5.39c1.66,5.29,2.2,6.82,2.59,7.1c0.28,0.26,1.84,0.11,2.84-0.22
				C201.5,437.48,202.16,437.22,202.68,436.95z M198.17,417.37c0.05-0.77-0.02-1.15-0.33-2.1c-0.63-1.96-1.59-3.2-3.15-3.55
				c-0.75-0.16-0.94-0.1-2.54,0.37c-0.33,0.06-0.61,0.15-0.83,0.22c-0.68,0.22-0.97,0.41-1.06,0.59c-0.23,0.22-0.15,0.45,1.21,4.68
				c1.81,5.59,1.69,5.53,3.78,4.1C197.1,420.43,198.06,419.06,198.17,417.37z"/>
		</g>
		<g>
			<path class="st2" d="M433.84,395.02c-2.23-0.3-3.89-1.27-6.61-3.94c-1.2-1.18-2.14-2.43-3.1-4.1c-1.4-2.42-1.84-4.19-1.54-6.42
				c0.18-1.34,0.4-1.94,0.85-2.58c0.17-0.24,0.33-0.44,0.51-0.61c0.95-0.89,2.3-1.11,3.61-0.56c1.11,0.48,1.54,1.04,1.05,1.49
				c-0.16,0.15-0.45,0.16-1.51,0.06c-1.83-0.19-2.29-0.03-2.69,1.26c-0.55,1.73-0.34,3.62,0.67,5.54c0.95,1.8,3.04,4.45,4.22,5.48
				c1,0.89,2.3,1.76,3.1,2.1c1.22,0.51,2.93,0.43,3.84-0.21c0.34-0.19,0.93-1.05,1.22-1.76c0.14-0.26,0.35-1.02,0.55-1.78
				c0.26-0.98,0.38-1.31,0.56-1.4c0.52-0.23,0.9,0.77,0.76,2.25c-0.1,1.01-0.33,1.92-0.76,2.62c-0.38,0.62-1.73,2.01-2.23,2.31
				C435.88,395.06,434.98,395.16,433.84,395.02z"/>
		</g>
	</g>
	<g>
		<path class="st9" d="M261.77,411.07l-69.85-35.72c-2.25-1.15-5.03-0.25-6.19,2c-1.15,2.25-0.25,5.03,2,6.19l69.85,35.72
			L261.77,411.07z"/>
		<path class="st5" d="M251.63,408.13c0.63,1.45-0.47,3.59-2.02,3.94c-1.79,0.41-3.59,0.5-5.39,0.35l13.36,6.83l4.19-8.18
			l-12.3-6.29C250.34,405.75,251.08,406.85,251.63,408.13z"/>
		<path class="st4" d="M195.95,377.4l-4.03-2.06c-2.25-1.15-5.03-0.25-6.19,2c-1.15,2.25-0.25,5.03,2,6.19l4.03,2.06L195.95,377.4z"
			/>
		<path class="st6" d="M197.89,377.97l-4.36,8.53c-0.29,0.56-0.98,0.79-1.55,0.5l0,0c-0.56-0.29-0.79-0.98-0.5-1.55l4.36-8.53
			c0.29-0.56,0.98-0.79,1.55-0.5l0,0C197.95,376.71,198.18,377.4,197.89,377.97z"/>
		<polygon class="st2" points="257.58,419.25 267.75,418.86 261.77,411.07 		"/>
		<polygon class="st6" points="264.32,418.99 267.75,418.86 265.73,416.23 		"/>
		<path class="st25" d="M190.71,376.02c1.13,0.58,1.62,1.89,1.09,2.92c-0.53,1.04-1.88,1.41-3.01,0.83
			c-1.13-0.58-1.62-1.89-1.09-2.92C188.24,375.81,189.58,375.44,190.71,376.02z"/>
		<path class="st28" d="M255.02,415.15L255.02,415.15c-0.14,0.28-0.49,0.39-0.77,0.25l-56.61-28.95c-0.28-0.14-0.39-0.49-0.25-0.77
			l0,0c0.14-0.28,0.49-0.39,0.77-0.25l56.61,28.95C255.05,414.52,255.17,414.87,255.02,415.15z"/>
		<path class="st28" d="M256.16,412.93L256.16,412.93c-0.14,0.28-0.49,0.39-0.77,0.25l-56.61-28.95c-0.28-0.14-0.39-0.49-0.25-0.77
			l0,0c0.14-0.28,0.49-0.39,0.77-0.25l56.61,28.95C256.19,412.3,256.3,412.65,256.16,412.93z"/>
		<path class="st28" d="M257.29,410.71L257.29,410.71c-0.14,0.28-0.49,0.39-0.77,0.25l-56.61-28.95c-0.28-0.14-0.39-0.49-0.25-0.77
			l0,0c0.14-0.28,0.49-0.39,0.77-0.25l56.61,28.95C257.32,410.08,257.43,410.43,257.29,410.71z"/>
	</g>
</g>
</svg>
